<?xml version="1.0" encoding="utf-8"?>
<!-- Generator: Adobe Illustrator 16.0.0, SVG Export Plug-In . SVG Version: 6.00 Build 0)  -->
<!DOCTYPE svg PUBLIC "-//W3C//DTD SVG 1.1//EN" "http://www.w3.org/Graphics/SVG/1.1/DTD/svg11.dtd">
<svg version="1.1" id="Objects" xmlns="http://www.w3.org/2000/svg" xmlns:xlink="http://www.w3.org/1999/xlink" x="0px" y="0px"
	 width="232px" height="285.104px" viewBox="0 0 232 285.104" enable-background="new 0 0 232 285.104" xml:space="preserve">
<g>
	<rect x="126.229" y="167.783" opacity="0.5" fill="#92E8FF" width="25.492" height="2.558"/>
	<rect x="124.783" y="172.017" opacity="0.5" fill="#92E8FF" width="16.74" height="2.558"/>
	<rect x="145.489" y="172.017" opacity="0.5" fill="#92E8FF" width="6.231" height="2.558"/>
	<rect x="137.559" y="176.251" opacity="0.5" fill="#92E8FF" width="14.162" height="2.558"/>
	<rect x="143.224" y="180.486" fill="#92E8FF" width="8.497" height="2.558"/>
	<rect x="128.777" y="180.486" opacity="0.5" fill="#92E8FF" width="11.535" height="2.558"/>
	<rect x="122.829" y="184.721" opacity="0.5" fill="#92E8FF" width="28.892" height="2.557"/>
	<rect x="134.726" y="188.956" opacity="0.5" fill="#92E8FF" width="16.995" height="2.557"/>
	<rect x="145.489" y="193.19" opacity="0.5" fill="#92E8FF" width="6.231" height="2.557"/>
	<rect x="124.783" y="176.251" opacity="0.5" fill="#92E8FF" width="9.65" height="2.558"/>
	<rect x="129.344" y="214.362" opacity="0.5" fill="#92E8FF" width="6.231" height="2.558"/>
	<rect x="119.714" y="214.362" opacity="0.5" fill="#92E8FF" width="6.231" height="2.558"/>
	<rect x="131.894" y="197.424" opacity="0.5" fill="#92E8FF" width="19.827" height="2.557"/>
	<rect x="124.783" y="201.659" opacity="0.5" fill="#92E8FF" width="15.607" height="2.558"/>
	<rect x="143.224" y="201.659" opacity="0.5" fill="#92E8FF" width="8.497" height="2.558"/>
	<rect x="127.645" y="193.19" opacity="0.5" fill="#92E8FF" width="14.162" height="2.557"/>
	<rect x="137.559" y="205.893" opacity="0.5" fill="#92E8FF" width="14.162" height="2.558"/>
	<rect x="145.489" y="210.127" opacity="0.5" fill="#92E8FF" width="6.231" height="2.558"/>
	<rect x="128.777" y="205.893" fill="#92E8FF" width="6.231" height="2.558"/>
	<rect x="137.559" y="214.362" fill="#92E8FF" width="14.162" height="2.558"/>
	<rect x="126.229" y="210.127" opacity="0.5" fill="#92E8FF" width="16.664" height="2.558"/>
	<rect x="122.829" y="218.596" fill="#92E8FF" width="28.892" height="2.558"/>
	<rect x="143.79" y="222.831" opacity="0.5" fill="#92E8FF" width="7.931" height="2.558"/>
	<rect x="125.379" y="222.831" opacity="0.5" fill="#92E8FF" width="14.934" height="2.558"/>
	<rect x="117.313" y="227.066" opacity="0.5" fill="#92E8FF" width="16.096" height="2.557"/>
	<rect x="136.347" y="227.066" opacity="0.5" fill="#92E8FF" width="15.374" height="2.557"/>
	<rect x="130.193" y="231.3" opacity="0.5" fill="#92E8FF" width="21.527" height="2.557"/>
	<rect x="73.608" y="231.3" opacity="0.5" fill="#92E8FF" width="14.902" height="2.557"/>
	<rect x="73.608" y="227.066" opacity="0.5" fill="#92E8FF" width="6.23" height="2.557"/>
	<rect x="73.608" y="222.831" opacity="0.5" fill="#92E8FF" width="14.162" height="2.558"/>
	<rect x="73.608" y="218.596" opacity="0.5" fill="#92E8FF" width="8.497" height="2.558"/>
	<rect x="73.608" y="214.362" opacity="0.5" fill="#92E8FF" width="16.89" height="2.558"/>
	<rect x="73.608" y="210.127" opacity="0.5" fill="#92E8FF" width="21.526" height="2.558"/>
	<rect x="73.608" y="205.893" fill="#92E8FF" width="6.23" height="2.558"/>
	<rect x="73.608" y="201.659" opacity="0.5" fill="#92E8FF" width="11.591" height="2.558"/>
	<rect x="73.608" y="197.424" opacity="0.5" fill="#92E8FF" width="14.162" height="2.557"/>
	<rect x="73.608" y="193.19" opacity="0.5" fill="#92E8FF" width="14.162" height="2.557"/>
	<rect x="73.608" y="188.956" opacity="0.5" fill="#92E8FF" width="6.23" height="2.557"/>
	<rect x="73.608" y="184.721" opacity="0.5" fill="#92E8FF" width="14.162" height="2.557"/>
	<rect x="73.608" y="180.486" opacity="0.5" fill="#92E8FF" width="16.89" height="2.558"/>
	<rect x="73.608" y="176.251" opacity="0.5" fill="#92E8FF" width="7.931" height="2.558"/>
	<rect x="73.608" y="172.017" opacity="0.5" fill="#92E8FF" width="15.373" height="2.558"/>
	<rect x="73.608" y="167.783" opacity="0.5" fill="#92E8FF" width="12.584" height="2.558"/>
</g>
<g opacity="0.1">
	<rect x="181.983" opacity="0.5" fill="#92E8FF" width="50.017" height="5.018"/>
	<rect x="179.147" y="8.309" opacity="0.5" fill="#92E8FF" width="32.846" height="5.017"/>
	<rect x="219.774" y="8.309" opacity="0.5" fill="#92E8FF" width="12.226" height="5.017"/>
	<rect x="204.213" y="16.617" opacity="0.5" fill="#92E8FF" width="27.787" height="5.017"/>
	<rect x="215.327" y="24.925" fill="#92E8FF" width="16.673" height="5.018"/>
	<rect x="186.985" y="24.925" opacity="0.5" fill="#92E8FF" width="22.632" height="5.018"/>
	<rect x="175.314" y="33.233" opacity="0.5" fill="#92E8FF" width="56.686" height="5.018"/>
	<rect x="198.655" y="41.542" opacity="0.5" fill="#92E8FF" width="33.345" height="5.017"/>
	<rect x="219.774" y="49.85" opacity="0.5" fill="#92E8FF" width="12.226" height="5.017"/>
	<rect x="179.147" y="16.617" opacity="0.5" fill="#92E8FF" width="18.934" height="5.017"/>
	<rect x="188.096" y="91.391" opacity="0.5" fill="#92E8FF" width="12.228" height="5.018"/>
	<rect x="169.201" y="91.391" opacity="0.5" fill="#92E8FF" width="12.226" height="5.018"/>
	<rect x="193.098" y="58.158" opacity="0.5" fill="#92E8FF" width="38.902" height="5.018"/>
	<rect x="179.147" y="66.466" opacity="0.5" fill="#92E8FF" width="30.623" height="5.018"/>
	<rect x="215.327" y="66.466" opacity="0.5" fill="#92E8FF" width="16.673" height="5.018"/>
	<rect x="184.762" y="49.85" opacity="0.5" fill="#92E8FF" width="27.787" height="5.017"/>
	<rect x="204.213" y="74.774" opacity="0.5" fill="#92E8FF" width="27.787" height="5.018"/>
	<rect x="219.774" y="83.083" opacity="0.5" fill="#92E8FF" width="12.226" height="5.017"/>
	<rect x="186.985" y="74.774" fill="#92E8FF" width="12.226" height="5.018"/>
	<rect x="204.213" y="91.391" fill="#92E8FF" width="27.787" height="5.018"/>
	<rect x="181.983" y="83.083" opacity="0.5" fill="#92E8FF" width="32.695" height="5.017"/>
	<rect x="175.314" y="99.699" fill="#92E8FF" width="56.686" height="5.018"/>
	<rect x="216.439" y="108.007" opacity="0.5" fill="#92E8FF" width="15.561" height="5.018"/>
	<rect x="180.315" y="108.007" opacity="0.5" fill="#92E8FF" width="29.302" height="5.018"/>
	<rect x="164.49" y="116.315" opacity="0.5" fill="#92E8FF" width="31.58" height="5.018"/>
	<rect x="201.837" y="116.315" opacity="0.5" fill="#92E8FF" width="30.163" height="5.018"/>
	<rect x="189.764" y="124.624" opacity="0.5" fill="#92E8FF" width="42.236" height="5.017"/>
	<rect x="78.74" y="124.624" opacity="0.5" fill="#92E8FF" width="29.24" height="5.017"/>
	<rect x="78.74" y="116.315" opacity="0.5" fill="#92E8FF" width="12.226" height="5.018"/>
	<rect x="78.74" y="108.007" opacity="0.5" fill="#92E8FF" width="27.786" height="5.018"/>
	<rect x="78.74" y="99.699" opacity="0.5" fill="#92E8FF" width="16.672" height="5.018"/>
	<rect x="78.74" y="91.391" opacity="0.5" fill="#92E8FF" width="33.139" height="5.018"/>
	<rect x="78.74" y="83.083" opacity="0.5" fill="#92E8FF" width="42.235" height="5.017"/>
	<rect x="78.74" y="74.774" fill="#92E8FF" width="12.226" height="5.018"/>
	<rect x="78.74" y="66.466" opacity="0.5" fill="#92E8FF" width="22.742" height="5.018"/>
	<rect x="78.74" y="58.158" opacity="0.5" fill="#92E8FF" width="27.786" height="5.018"/>
	<rect x="78.74" y="49.85" opacity="0.5" fill="#92E8FF" width="27.786" height="5.017"/>
	<rect x="78.74" y="41.542" opacity="0.5" fill="#92E8FF" width="12.226" height="5.017"/>
	<rect x="78.74" y="33.233" opacity="0.5" fill="#92E8FF" width="27.786" height="5.018"/>
	<rect x="78.74" y="24.925" opacity="0.5" fill="#92E8FF" width="33.139" height="5.018"/>
	<rect x="78.74" y="16.617" opacity="0.5" fill="#92E8FF" width="15.561" height="5.017"/>
	<rect x="78.74" y="8.309" opacity="0.5" fill="#92E8FF" width="30.162" height="5.017"/>
	<rect x="78.74" opacity="0.5" fill="#92E8FF" width="24.691" height="5.018"/>
</g>
<g>
	<path fill="#F6FEFF" d="M210.199,200.82H28.19c-1.12,0-2.068-0.889-2.117-1.986l-5.216-115.97
		c-0.055-1.218,0.858-2.208,2.039-2.208l191.99-0.207c1.186-0.001,2.107,0.988,2.059,2.208l-4.632,116.173
		C212.27,199.929,211.323,200.82,210.199,200.82z"/>
	<path fill="#242893" d="M210.199,202.574H28.19c-1.12,0-2.068-0.889-2.117-1.986l-5.216-115.97
		c-0.055-1.218,0.858-2.208,2.039-2.209l191.99-0.206c1.186-0.001,2.107,0.988,2.059,2.208l-4.632,116.173
		C212.27,201.683,211.323,202.574,210.199,202.574z"/>
	<linearGradient id="SVGID_1_" gradientUnits="userSpaceOnUse" x1="118.9106" y1="193.4614" x2="118.9106" y2="120.8487">
		<stop  offset="0.2826" style="stop-color:#5213BA"/>
		<stop  offset="1" style="stop-color:#4750B7"/>
	</linearGradient>
	<path fill="url(#SVGID_1_)" d="M211.109,91.865l-3.82,101.955c-0.074,1.984-1.772,3.585-3.794,3.585l-168.652,0.008
		c-2.01,0-3.711-1.598-3.796-3.579L26.713,92.047c-0.092-2.167,1.548-3.933,3.656-3.936l177.046-0.181
		C209.536,87.928,211.19,89.694,211.109,91.865z"/>
</g>
<g>
	<rect x="53.287" y="130.096" fill="#0D85D6" width="29.413" height="60.005"/>
	<rect x="53.287" y="186.071" fill="#92E8FF" width="29.413" height="4.03"/>
	<rect x="58.208" y="173.184" fill="#92E8FF" width="5.37" height="2.389"/>
	<rect x="58.208" y="169.23" fill="#92E8FF" width="1.555" height="2.388"/>
	<rect x="58.208" y="165.275" fill="#92E8FF" width="2.892" height="2.389"/>
	<rect x="58.208" y="161.321" fill="#92E8FF" width="3.533" height="2.388"/>
	<rect x="58.208" y="157.366" fill="#92E8FF" width="3.533" height="2.389"/>
	<rect x="58.208" y="153.412" fill="#92E8FF" width="1.555" height="2.388"/>
	<rect x="58.208" y="149.457" fill="#92E8FF" width="3.533" height="2.388"/>
	<rect x="58.208" y="145.501" fill="#92E8FF" width="4.214" height="2.389"/>
	<rect x="58.208" y="141.547" fill="#92E8FF" width="1.979" height="2.388"/>
	<rect x="58.208" y="137.592" fill="#92E8FF" width="3.835" height="2.389"/>
	<rect x="72.431" y="153.412" fill="#92E8FF" width="1.554" height="2.388"/>
	<rect x="70.149" y="137.592" fill="#92E8FF" width="3.835" height="2.389"/>
	<rect x="58.208" y="133.638" fill="#92E8FF" width="3.14" height="2.388"/>
</g>
<path fill="#92E8FF" d="M27.541,207.382c-1.367,0-2.537-1.082-2.617-2.43L18.021,88.87c-0.045-0.74,0.2-1.438,0.689-1.966
	c0.472-0.508,1.115-0.794,1.813-0.806l192.301-2.985c0.679,0.001,1.355,0.255,1.845,0.75c0.507,0.512,0.775,1.203,0.757,1.944
	l-2.958,116.43c-0.035,1.365-1.193,2.491-2.582,2.511l-182.307,2.634C27.566,207.382,27.554,207.382,27.541,207.382z
	 M212.865,84.112c-0.009,0-0.017,0-0.025,0L20.539,87.098c-0.422,0.006-0.811,0.179-1.095,0.486
	c-0.302,0.325-0.453,0.761-0.425,1.227l6.902,116.084c0.049,0.825,0.773,1.488,1.619,1.488c0.008,0,0.016,0,0.023,0l182.308-2.634
	c0.858-0.012,1.574-0.701,1.596-1.536l2.958-116.43c0.012-0.467-0.154-0.898-0.468-1.215
	C213.667,84.273,213.28,84.112,212.865,84.112z"/>
<g>
	<rect x="34.017" y="46.195" opacity="0.5" fill="#92E8FF" width="27.144" height="3.856"/>
	<rect x="44.874" y="52.581" opacity="0.5" fill="#92E8FF" width="27.144" height="3.856"/>
	<rect x="34.017" y="52.581" fill="#92E8FF" width="6.635" height="3.856"/>
	<rect x="34.017" y="58.966" opacity="0.5" fill="#92E8FF" width="15.08" height="3.856"/>
	<rect x="34.017" y="65.352" opacity="0.5" fill="#92E8FF" width="9.048" height="3.856"/>
	<rect x="46.163" y="65.352" fill="#92E8FF" width="10.473" height="3.856"/>
	<rect x="34.017" y="71.738" opacity="0.5" fill="#92E8FF" width="30.763" height="3.856"/>
	<rect x="34.017" y="78.124" opacity="0.5" fill="#92E8FF" width="22.868" height="3.856"/>
	<rect x="34.017" y="84.51" opacity="0.5" fill="#92E8FF" width="6.635" height="3.856"/>
	<rect x="60.255" y="65.352" opacity="0.5" fill="#92E8FF" width="6.636" height="3.856"/>
	<rect x="51.207" y="116.439" opacity="0.5" fill="#92E8FF" width="6.636" height="3.856"/>
	<rect x="61.462" y="116.439" opacity="0.5" fill="#92E8FF" width="6.635" height="3.856"/>
	<rect x="34.017" y="90.896" opacity="0.5" fill="#92E8FF" width="21.111" height="3.856"/>
	<rect x="65.081" y="97.281" opacity="0.5" fill="#92E8FF" width="8.143" height="3.856"/>
	<rect x="34.017" y="97.281" opacity="0.5" fill="#92E8FF" width="28.048" height="3.856"/>
	<rect x="44.572" y="84.51" opacity="0.5" fill="#92E8FF" width="15.08" height="3.856"/>
	<rect x="34.017" y="103.667" opacity="0.5" fill="#92E8FF" width="15.08" height="3.856"/>
	<rect x="34.017" y="110.053" opacity="0.5" fill="#92E8FF" width="6.635" height="3.856"/>
	<rect x="51.811" y="103.667" opacity="0.5" fill="#92E8FF" width="6.635" height="3.856"/>
	<rect x="34.017" y="116.439" opacity="0.5" fill="#92E8FF" width="15.08" height="3.856"/>
	<rect x="46.08" y="110.053" opacity="0.5" fill="#92E8FF" width="15.08" height="3.856"/>
	<rect x="34.017" y="122.825" opacity="0.5" fill="#92E8FF" width="30.763" height="3.856"/>
	<rect x="34.017" y="129.21" fill="#92E8FF" width="8.444" height="3.856"/>
	<rect x="46.163" y="129.21" opacity="0.5" fill="#92E8FF" width="26.155" height="3.856"/>
	<rect x="53.515" y="135.596" opacity="0.5" fill="#92E8FF" width="6.74" height="3.856"/>
	<rect x="34.017" y="135.596" opacity="0.5" fill="#92E8FF" width="16.369" height="3.856"/>
	<rect x="34.017" y="141.982" opacity="0.5" fill="#92E8FF" width="22.921" height="3.856"/>
	<rect x="101.319" y="141.982" opacity="0.5" fill="#92E8FF" width="15.869" height="3.856"/>
	<rect x="110.553" y="135.596" opacity="0.5" fill="#92E8FF" width="6.636" height="3.856"/>
	<rect x="102.108" y="129.21" opacity="0.5" fill="#92E8FF" width="15.08" height="3.856"/>
	<rect x="108.141" y="122.825" opacity="0.5" fill="#92E8FF" width="9.048" height="3.856"/>
	<rect x="99.204" y="116.439" opacity="0.5" fill="#92E8FF" width="17.984" height="3.856"/>
	<rect x="94.268" y="110.053" opacity="0.5" fill="#92E8FF" width="22.921" height="3.856"/>
	<rect x="110.553" y="103.667" opacity="0.5" fill="#92E8FF" width="6.636" height="3.856"/>
	<rect x="104.847" y="97.281" opacity="0.5" fill="#92E8FF" width="12.342" height="3.856"/>
	<rect x="102.108" y="90.896" opacity="0.5" fill="#92E8FF" width="15.08" height="3.856"/>
	<rect x="102.108" y="84.51" opacity="0.5" fill="#92E8FF" width="15.08" height="3.856"/>
	<rect x="110.553" y="78.124" fill="#92E8FF" width="6.636" height="3.856"/>
	<rect x="102.108" y="71.738" opacity="0.5" fill="#92E8FF" width="15.08" height="3.856"/>
	<rect x="99.204" y="65.352" opacity="0.5" fill="#92E8FF" width="17.984" height="3.856"/>
	<rect x="108.743" y="58.966" opacity="0.5" fill="#92E8FF" width="8.445" height="3.856"/>
	<rect x="100.819" y="52.581" opacity="0.5" fill="#92E8FF" width="16.369" height="3.856"/>
	<rect x="103.788" y="46.195" opacity="0.5" fill="#92E8FF" width="13.4" height="3.856"/>
</g>
<g>
	<path fill="#242893" d="M200.896,159.68h-92.384c-0.569,0-1.031-0.462-1.031-1.031v-57.105c0-0.569,0.462-1.031,1.031-1.031h92.384
		c0.569,0,1.03,0.462,1.03,1.031v57.105C201.926,159.218,201.465,159.68,200.896,159.68z"/>
	<linearGradient id="SVGID_2_" gradientUnits="userSpaceOnUse" x1="154.7031" y1="157.6777" x2="154.7031" y2="120.8779">
		<stop  offset="0.2826" style="stop-color:#5213BA"/>
		<stop  offset="1" style="stop-color:#4750B7"/>
	</linearGradient>
	<rect x="107.48" y="104.195" fill="url(#SVGID_2_)" width="94.445" height="55.485"/>
	<rect x="113.179" y="109.071" fill="#92E8FF" width="55.896" height="2.376"/>
	<rect x="113.179" y="113.005" fill="#92E8FF" width="55.896" height="2.376"/>
	<rect x="113.179" y="116.94" fill="#92E8FF" width="24.595" height="2.376"/>
	<rect x="113.179" y="120.875" fill="#92E8FF" width="55.896" height="2.376"/>
	<rect x="113.179" y="124.809" fill="#92E8FF" width="66.662" height="2.376"/>
	<rect x="113.179" y="128.744" fill="#92E8FF" width="31.302" height="2.376"/>
	<rect x="113.179" y="132.678" fill="#92E8FF" width="60.675" height="2.376"/>
	<rect x="113.179" y="136.613" fill="#92E8FF" width="49.67" height="2.376"/>
</g>
<rect x="91.537" y="100.512" fill="#92E8FF" width="1" height="89.589"/>
<linearGradient id="SVGID_3_" gradientUnits="userSpaceOnUse" x1="-6.5815" y1="35.3618" x2="18.4208" y2="68.0314">
	<stop  offset="0.2826" style="stop-color:#5213BA"/>
	<stop  offset="1" style="stop-color:#4750B7"/>
</linearGradient>
<polygon fill="url(#SVGID_3_)" points="21.845,62.107 19.615,59.877 16.37,63.122 13.125,59.877 10.896,62.107 14.14,65.352 
	10.896,68.597 13.125,70.827 16.37,67.582 19.615,70.827 21.845,68.597 18.6,65.352 "/>
<g>
	<linearGradient id="SVGID_4_" gradientUnits="userSpaceOnUse" x1="136.2261" y1="46.5591" x2="140.5593" y2="79.2249">
		<stop  offset="0.2826" style="stop-color:#5213BA"/>
		<stop  offset="1" style="stop-color:#4750B7"/>
	</linearGradient>
	<polygon fill="url(#SVGID_4_)" points="134.229,74.823 136.844,75.933 143.72,59.738 141.104,58.627 	"/>
	<linearGradient id="SVGID_5_" gradientUnits="userSpaceOnUse" x1="127.7476" y1="47.6846" x2="132.0807" y2="80.3501">
		<stop  offset="0.2826" style="stop-color:#5213BA"/>
		<stop  offset="1" style="stop-color:#4750B7"/>
	</linearGradient>
	<polygon fill="url(#SVGID_5_)" points="131.864,61.757 126.353,67.268 131.864,72.778 133.873,70.769 130.371,67.268 
		133.873,63.766 	"/>
	<linearGradient id="SVGID_6_" gradientUnits="userSpaceOnUse" x1="144.708" y1="45.4316" x2="149.0416" y2="78.1001">
		<stop  offset="0.2826" style="stop-color:#5213BA"/>
		<stop  offset="1" style="stop-color:#4750B7"/>
	</linearGradient>
	<polygon fill="url(#SVGID_6_)" points="146.085,61.757 144.076,63.766 147.577,67.268 144.076,70.769 146.085,72.778 
		151.596,67.268 	"/>
</g>
<g>
	<path fill="#171D6D" d="M219.317,258.432c0.268,0.871-0.548,2.457-1.77,2.463l-201.729,0.746c-1.266,0.004-2.059-1.549-1.567-2.439
		"/>
	<path fill="#242893" d="M217.548,259.807l-201.729,0.746c-1.266,0.004-1.891-0.719-1.399-1.609l21.497-38.913
		c0.342-0.62,1.465-1.119,2.51-1.119h166.944c1.014,0,1.986,0.492,2.174,1.102l11.728,38.202
		C219.54,259.086,218.77,259.801,217.548,259.807z"/>
	<linearGradient id="SVGID_7_" gradientUnits="userSpaceOnUse" x1="131.1509" y1="321.708" x2="70.0786" y2="213.6822">
		<stop  offset="0.2826" style="stop-color:#5213BA"/>
		<stop  offset="1" style="stop-color:#4750B7"/>
	</linearGradient>
	<polygon fill="url(#SVGID_7_)" points="20.284,256.773 151.856,256.33 151.132,225.882 36.702,225.955 	"/>
	<linearGradient id="SVGID_8_" gradientUnits="userSpaceOnUse" x1="216.1875" y1="280.3262" x2="157.0296" y2="175.6865">
		<stop  offset="0.2826" style="stop-color:#5213BA"/>
		<stop  offset="1" style="stop-color:#4750B7"/>
	</linearGradient>
	<polygon fill="url(#SVGID_8_)" points="182.552,256.229 214.114,256.121 205.4,225.849 177.879,225.866 	"/>
	<linearGradient id="SVGID_9_" gradientUnits="userSpaceOnUse" x1="190.9629" y1="294.5508" x2="125.0876" y2="178.0294">
		<stop  offset="0.2826" style="stop-color:#5213BA"/>
		<stop  offset="1" style="stop-color:#4750B7"/>
	</linearGradient>
	<polygon fill="url(#SVGID_9_)" points="154.716,256.32 179.707,256.236 178.291,246.251 154.355,246.31 	"/>
	<linearGradient id="SVGID_10_" gradientUnits="userSpaceOnUse" x1="195.9609" y1="286.2959" x2="139.2475" y2="185.98">
		<stop  offset="0.2826" style="stop-color:#5213BA"/>
		<stop  offset="1" style="stop-color:#4750B7"/>
	</linearGradient>
	<polygon fill="url(#SVGID_10_)" points="153.989,236.111 176.847,236.075 175.399,225.868 153.622,225.881 	"/>
	<linearGradient id="SVGID_11_" gradientUnits="userSpaceOnUse" x1="152.3525" y1="324.9727" x2="86.8807" y2="209.1648">
		<stop  offset="0.2826" style="stop-color:#5213BA"/>
		<stop  offset="1" style="stop-color:#4750B7"/>
	</linearGradient>
	<polygon fill="url(#SVGID_11_)" points="37.729,224.026 151.086,223.974 151.011,220.798 39.438,220.817 	"/>
	<linearGradient id="SVGID_12_" gradientUnits="userSpaceOnUse" x1="202.1147" y1="289.5967" x2="142.3261" y2="183.8414">
		<stop  offset="0.2826" style="stop-color:#5213BA"/>
		<stop  offset="1" style="stop-color:#4750B7"/>
	</linearGradient>
	<polygon fill="url(#SVGID_12_)" points="153.554,223.973 175.129,223.963 174.679,220.794 153.439,220.798 	"/>
	<path fill="#92E8FF" d="M214.263,259.057c-0.005,0-0.01,0-0.015,0l-198.642-0.809c-0.868-0.002-1.543-0.313-1.854-0.848
		c-0.257-0.441-0.236-0.971,0.058-1.492l21.518-38.152c0.435-0.771,1.646-1.326,2.921-1.337l164.384,1.277
		c1.241,0.01,2.361,0.637,2.605,1.459l11.205,37.706c0.146,0.49,0.063,0.979-0.235,1.375
		C215.816,258.758,215.107,259.057,214.263,259.057z M214.252,258.057c0.509-0.016,0.959-0.16,1.155-0.42
		c0.107-0.143,0.132-0.305,0.076-0.49l-11.205-37.706c-0.089-0.299-0.777-0.737-1.654-0.744L38.24,217.419
		c-0.962-0.039-1.818,0.431-2.042,0.829L14.681,256.4c-0.08,0.141-0.155,0.342-0.064,0.498c0.098,0.168,0.41,0.348,0.994,0.35
		L214.252,258.057z"/>
</g>
<g>
	<defs>
		<path id="SVGID_13_" d="M81.883,248.186c-3.68,0.035-5.128,0.598-7.211,1.309c0.758-0.818,1.615-1.901,2.478-3.107
			c2.283,1.665,7.039-0.442,7.757-1.394c1.156-1.531,0.444-5.495-0.034-8.637c-0.311-2.036-0.616-4.364-1.168-6.028
			c-0.445-1.979-2.223-3.765-5.881-3.893c-0.717-0.024-1.431,0.25-2.137,0.746c-0.232-1.223-0.516-2.348-0.903-3.176
			c-0.594-1.64-2.404-2.669-5.852-2.768c-1.852-0.053-3.669,1.858-5.394,4.564c-0.593-1.771-2.503-2.77-6.156-2.608
			c-1.669,0.074-3.206,1.733-4.625,4.124c-0.949-0.656-2.366-1.094-4.338-1.256c-2.949-0.243-6.116,4.494-8.972,9.513
			c-4.701,4.024-8.517,10.619-14.007,20.409c-7.12,2.82-10.461,9.432-14.195,14.494C5.83,277.822,0.37,285.104,0.37,285.104h6.08
			h34.42h12.667c0,0,0.872-5.102,5.583-15.246c0.516-1.111,0.482-2.451-0.123-3.871c4.797-0.451,9.935-1.561,13.396-4.053
			c8.24-5.934,18.81-3.736,18.678-8.471C90.914,247.829,87.085,248.136,81.883,248.186z"/>
	</defs>
	<clipPath id="SVGID_14_">
		<use xlink:href="#SVGID_13_"  overflow="visible"/>
	</clipPath>
	<path opacity="0.1" clip-path="url(#SVGID_14_)" fill="#FF4A1A" d="M-11.708,307.783c14.25-22,38-56.494,54.25-56.496
		c16.25-0.004,26.703,3.373,24.477,15.184c-2.227,11.813,2.231,3.822,8.627,7.543c6.396,3.719,4.699,4.52-1.702,11.52
		s-4.979,21.75-9.94,27S-11.708,307.783-11.708,307.783z"/>
	<linearGradient id="SVGID_15_" gradientUnits="userSpaceOnUse" x1="97.0669" y1="248.103" x2="97.0669" y2="208.368">
		<stop  offset="0" style="stop-color:#0000FF;stop-opacity:0"/>
		<stop  offset="1" style="stop-color:#48A5F9"/>
	</linearGradient>
	<polyline clip-path="url(#SVGID_14_)" fill="url(#SVGID_15_)" points="34.736,186.071 -41.57,285.104 235.703,285.104 
		193.465,186.071 	"/>
</g>
<g>
	<defs>
		<path id="SVGID_16_" d="M214.678,270.479c-3.831-5.193-7.948-11.885-16.014-14.715c-2.548-6.067-4.703-10.829-7.082-14.514
			c-0.034-0.119-0.065-0.237-0.107-0.359c-2.37-6.817-5.195-17.113-9.362-17.518c-2.796-0.271-4.582,0.209-5.579,1.228
			c-1.194-2.936-2.622-5.11-4.433-5.406c-4.132-0.678-6.174,0.425-6.693,2.652c-0.016,0.066-0.022,0.146-0.033,0.218
			c-0.346,0.793-0.655,1.728-0.943,2.701c-0.743-0.785-1.534-1.278-2.383-1.354c-3.435-0.309-5.354,0.5-6.138,2.057
			c-0.229,0.37-0.443,0.809-0.645,1.297c-1.098-1.712-2.3-2.848-3.637-2.959c-1.847-0.154-3.263,0.171-4.301,0.776
			c-0.247,0.103-0.481,0.218-0.688,0.354c-1.42,0.943-2.3,4.101-3.112,6.688c-0.813,2.588-2.091,5.896-1.309,7.13
			c0.998,1.575,3.712,2.125,5.91,1.337c1.544,3.375,3.554,6.85,4.905,8.187c0.092,0.15,0.185,0.301,0.278,0.451
			c-6.054-1.146-6.298-2.526-12.134-2.532c-5.203-0.006-9.034-0.281-9.144,5.355c-0.092,4.734,10.459,2.449,18.749,8.311
			c4.061,2.871,10.382,3.846,15.778,4.094c0.53,0.506,1.047,1.004,1.543,1.496c-0.556,1.91-0.417,3.705,0.197,5.027
			c4.712,10.146,4.082,14.625,4.082,14.625h8.654h31.72h10.985C223.745,285.104,220.093,277.822,214.678,270.479z"/>
	</defs>
	<clipPath id="SVGID_17_">
		<use xlink:href="#SVGID_16_"  overflow="visible"/>
	</clipPath>
	<path opacity="0.1" clip-path="url(#SVGID_17_)" fill="#FF4A1A" d="M240.681,309.289c-14.25-22-38-56.494-54.25-56.496
		c-16.25-0.004-26.703,3.373-24.477,15.186c2.227,11.811-2.231,3.82-8.627,7.541c-6.396,3.719-4.699,4.52,1.702,11.52
		s4.979,21.75,9.94,27S240.681,309.289,240.681,309.289z"/>
	<linearGradient id="SVGID_18_" gradientUnits="userSpaceOnUse" x1="97.0669" y1="248.103" x2="97.0669" y2="208.368">
		<stop  offset="0" style="stop-color:#0000FF;stop-opacity:0"/>
		<stop  offset="1" style="stop-color:#48A5F9"/>
	</linearGradient>
	<polyline clip-path="url(#SVGID_17_)" fill="url(#SVGID_18_)" points="34.736,186.071 -41.57,285.104 235.703,285.104 
		193.465,186.071 	"/>
</g>
<g>
	<rect x="47.037" y="222.908" fill="#92E8FF" width="3.532" height="2.02"/>
	<rect x="47.037" y="219.564" fill="#92E8FF" width="1.554" height="2.02"/>
	<rect x="49.188" y="219.564" fill="#92E8FF" width="3.183" height="2.02"/>
</g>
<g>
	<rect x="85.951" y="230.441" fill="#92E8FF" width="3.533" height="2.02"/>
	<rect x="85.951" y="227.097" fill="#92E8FF" width="1.555" height="2.02"/>
	<rect x="90.164" y="230.441" fill="#92E8FF" width="1.555" height="2.02"/>
	<rect x="85.951" y="223.753" fill="#92E8FF" width="3.533" height="2.02"/>
	<rect x="85.951" y="220.409" fill="#92E8FF" width="4.213" height="2.02"/>
</g>
<g>
	<rect x="138.87" y="230.678" fill="#92E8FF" width="2.901" height="2.02"/>
	<rect x="138.238" y="227.334" fill="#92E8FF" width="3.533" height="2.02"/>
	<rect x="135.009" y="227.334" fill="#92E8FF" width="2.333" height="2.02"/>
	<rect x="136.347" y="223.991" fill="#92E8FF" width="5.425" height="2.02"/>
</g>
<linearGradient id="SVGID_19_" gradientUnits="userSpaceOnUse" x1="198.7192" y1="222.3906" x2="190.7671" y2="210.3578">
	<stop  offset="0.2826" style="stop-color:#5213BA"/>
	<stop  offset="1" style="stop-color:#4750B7"/>
</linearGradient>
<polygon fill="url(#SVGID_19_)" points="192.575,208.818 190.999,208.818 190.999,211.113 188.704,211.113 188.704,212.69 
	190.999,212.69 190.999,214.984 192.575,214.984 192.575,212.69 194.87,212.69 194.87,211.113 192.575,211.113 "/>
<g>
	<g>
		<path fill="#DD8583" d="M76.082,244.759c-1.322-5.039-3.933-12.221-0.728-14.808c3.205-2.586,5.814-2.605,7.194-1.594
			c1.381,1.012,1.844,4.857,2.323,7.999c0.479,3.142,1.19,7.105,0.034,8.637C84.035,246.148,77.2,249.022,76.082,244.759z"/>
		<path fill="#DD8583" d="M67.486,239.269c-1.322-5.039-3.934-12.221-0.729-14.808c3.206-2.586,5.815-2.605,7.195-1.594
			s1.844,4.857,2.322,7.999c0.479,3.142,1.598,6.802,0.916,8.078S68.604,243.532,67.486,239.269z"/>
		<path fill="#F8B7B0" d="M60.64,262.795c-11.6,8.238-16.81,14.658-19.77,22.309H6.45c6.53-9.68,12.92-18.359,15.01-22.039
			c15.99-28.22,17.76-35.51,45.93-31.571C91.68,234.894,70.07,256.084,60.64,262.795z"/>
		<path fill="#F8B7B0" d="M66.398,242.605c3.184-6.46,7.246-16.314,11.425-16.169c4.178,0.146,5.901,2.452,5.992,4.743
			c0.092,2.29-1.928,7.622-4.139,11.342c-2.211,3.719-5.189,7.664-6.662,8.396C71.543,251.646,63.704,248.07,66.398,242.605z"/>
		<path fill="#F8B7B0" d="M57.597,237.477c3.148-6.479,7.155-16.358,11.335-16.238c4.179,0.119,5.983,1.592,6.087,3.882
			c0.104,2.29-2.726,7.573-4.916,11.306c-2.19,3.733-4.373,8.579-5.841,9.319C62.793,246.485,54.935,242.958,57.597,237.477z"/>
		<path fill="#F8B7B0" d="M47.114,240.198c2.724-6.685,6.085-16.818,10.268-17.003s6.081,1.151,6.334,3.425
			c0.252,2.274-2.231,7.744-4.178,11.622c-1.945,3.878-3.811,8.864-5.229,9.708S44.81,245.851,47.114,240.198z"/>
		<path fill="#F8B7B0" d="M36.09,241.635c3.544-6.287,8.156-15.916,12.329-15.572s5.887,1.908,5.852,4.195
			c-0.036,2.287-3.189,7.4-5.608,11.003c-2.419,3.602-4.898,8.313-6.412,8.972C40.737,250.891,33.092,246.955,36.09,241.635z"/>
		<path fill="#F8B7B0" d="M67.844,243.666c-3.461,6.959-2.13,7.942,1.735,7.195c6.241-1.207,6.404-2.618,12.304-2.675
			c5.202-0.05,9.031-0.357,9.188,5.277c0.132,4.734-10.438,2.537-18.678,8.471c-8.241,5.932-25.985,4.043-25.985,4.043
			L67.844,243.666z"/>
	</g>
	<g>
		<path fill="#DD8583" d="M150.868,237.641c1.828-4.2,5.119-10.252,2.388-12.06s-5.194-1.588-6.614-0.646
			c-1.421,0.943-2.301,4.101-3.113,6.688c-0.813,2.588-2.091,5.896-1.309,7.13C143.75,241.168,149.322,241.194,150.868,237.641z"/>
		<path fill="#DD8583" d="M161.354,241.486c1.908-4.848,5.349-11.671,2.472-14.618c-2.877-2.946-5.466-3.273-6.956-2.432
			c-1.49,0.841-2.404,4.605-3.251,7.668c-0.847,3.063-2.39,6.565-1.863,7.913C152.28,241.366,159.74,245.586,161.354,241.486z"/>
		<path fill="#DD8583" d="M171.369,237.005c1.908-4.847,5.349-11.67,2.472-14.617s-5.466-3.273-6.956-2.433
			c-1.49,0.842-2.405,4.606-3.251,7.669c-0.847,3.063-2.39,6.565-1.863,7.913C162.296,236.885,169.755,241.106,171.369,237.005z"/>
		<path fill="#F8B7B0" d="M212.76,285.104h-31.72c-2.189-7.41-6.689-14.139-16.65-23.17c-8.569-7.779-27.52-31.37-3-31.87
			c28.44-0.59,29.33,6.86,41.881,36.77C204.62,270.055,208.47,276.975,212.76,285.104z"/>
		<path fill="#F8B7B0" d="M161.064,241.209c-2.399-6.79-5.27-17.056-9.436-17.404s-6.15,1.738-6.511,4.002
			c-0.361,2.264,1.014,7.796,2.771,11.751c1.757,3.954,4.248,8.224,5.624,9.123C154.888,249.581,163.094,246.955,161.064,241.209z"
			/>
		<path fill="#F8B7B0" d="M171.386,240.875c-2.361-6.806-5.174-17.089-9.338-17.464s-6.129,0.875-6.503,3.136
			c-0.374,2.262,1.813,7.843,3.547,11.808c1.734,3.966,3.329,9.036,4.699,9.943C165.162,249.206,173.382,246.631,171.386,240.875z"
			/>
		<path fill="#F8B7B0" d="M180.289,237.29c-1.915-6.959-4.057-17.419-8.188-18.096c-4.132-0.678-6.174,0.425-6.693,2.652
			c-0.52,2.229,1.301,7.953,2.775,12.033c1.474,4.081,2.737,9.254,4.047,10.259C173.538,245.144,181.909,243.176,180.289,237.29z"/>
		<path fill="#F8B7B0" d="M191.475,240.89c-2.37-6.817-5.195-17.113-9.362-17.518c-4.168-0.404-6.133,0.831-6.504,3.088
			c-0.372,2.258,1.821,7.85,3.562,11.825c1.739,3.975,3.341,9.053,4.713,9.969C185.255,249.172,193.479,246.658,191.475,240.89z"/>
		<path fill="#F8B7B0" d="M155.18,241.556c3.521,6.929,2.197,7.924-1.675,7.21c-6.251-1.154-6.425-2.564-12.325-2.57
			c-5.203-0.006-9.034-0.281-9.144,5.355c-0.092,4.734,10.459,2.449,18.749,8.311c8.29,5.863,26.019,3.824,26.019,3.824
			L155.18,241.556z"/>
	</g>
	<linearGradient id="SVGID_20_" gradientUnits="userSpaceOnUse" x1="29.9263" y1="318.8525" x2="29.9263" y2="275.8186">
		<stop  offset="0.2826" style="stop-color:#5213BA"/>
		<stop  offset="1" style="stop-color:#4750B7"/>
	</linearGradient>
	<path fill="url(#SVGID_20_)" d="M0.37,285.104c0,0,5.46-7.281,10.875-14.625c5.415-7.342,10-17.941,26.484-15.514
		c16.848,2.48,23.44,10.479,21.391,14.893c-4.711,10.145-5.583,15.246-5.583,15.246H0.37z"/>
	
		<linearGradient id="SVGID_21_" gradientUnits="userSpaceOnUse" x1="463.0273" y1="319.0869" x2="463.0273" y2="275.7553" gradientTransform="matrix(-1 0 0 1 658.7773 0)">
		<stop  offset="0.2826" style="stop-color:#5213BA"/>
		<stop  offset="1" style="stop-color:#4750B7"/>
	</linearGradient>
	<path fill="url(#SVGID_21_)" d="M223.745,285.104c0,0-3.652-7.281-9.067-14.625c-5.415-7.342-11.393-17.686-28.308-15.867
		c-16.933,1.818-20.115,11.455-18.066,15.867c4.712,10.146,4.082,14.625,4.082,14.625H223.745z"/>
</g>
</svg>
