<svg xmlns="http://www.w3.org/2000/svg" xmlns:xlink="http://www.w3.org/1999/xlink" viewBox="0 0 396 415">
  <g opacity=".08">
    <path fill-rule="evenodd" d="M314.1 228.7l-43.3-24.9-.3.1-58.5-36.3L4.2 296.5l58.7 36.4.2-.1 43.2 24.8z" clip-rule="evenodd"/>
    <path d="M106.3 361.9c-.7 0-1.4-.2-2-.5l-42.1-24.2c-.5-.1-1-.3-1.5-.6L2 300.2c-1.3-.8-2-2.2-2-3.7s.8-2.9 2-3.7l207.8-128.9c1.3-.8 3-.8 4.3 0l57.5 35.7c.4.1.8.2 1.2.5l43.3 24.9c1.3.7 2.1 2.2 2.2 3.7 0 1.5-.7 3-2 3.8L108.5 361.3c-.7.4-1.5.6-2.2.6zm-42.4-33.4c.4.1.8.2 1.2.5l41.1 23.6 199.5-123.8-35.9-20.6c-.5-.1-1-.3-1.4-.6l-56.4-35L12.3 296.5l51.6 32z"/>
  </g>
  <g opacity=".08">
    <path fill-rule="evenodd" d="M391.8 286.5L372 274.2l-.1.1-19.8-12.3-70.1 43.5 19.8 12.3h.1l19.7 12.3z" clip-rule="evenodd"/>
    <path d="M321.6 334.4c-.7 0-1.5-.2-2.2-.6l-19.1-11.9c-.3-.1-.5-.2-.7-.3l-19.8-12.3c-1.3-.8-2-2.2-2-3.7s.8-2.9 2-3.7l70.2-43.5c1.3-.8 3-.8 4.3 0l19.1 11.9c.2.1.5.2.7.3l19.8 12.3c1.3.8 2 2.2 2 3.7s-.8 2.9-2 3.7l-70.2 43.6c-.6.3-1.3.5-2.1.5zm-18.3-20.7c.3.1.5.2.7.4l17.6 10.9 62.1-38.5-13.2-8.2c-.2-.1-.5-.2-.7-.3l-17.7-11-62.1 38.5 13.3 8.2z"/>
  </g>
  <g opacity=".08">
    <path fill-rule="evenodd" d="M313.7 350.1l-27.6-17.2-.1.1-39.9-24.1-97.7 60.6 39.9 24.2.1-.1 27.6 17.1z" clip-rule="evenodd"/>
    <path d="M216 415c-.7 0-1.5-.2-2.2-.6L187 397.8c-.3-.1-.6-.2-.8-.4l-39.9-24.1c-1.3-.8-2.1-2.2-2.1-3.7s.8-2.9 2-3.7l97.7-60.6c1.3-.8 3-.8 4.3 0l39.1 23.7c.3.1.6.2.9.4l27.6 17.1c1.3.8 2 2.2 2 3.7s-.8 2.9-2 3.7l-97.7 60.6c-.6.3-1.4.5-2.1.5zm-26.3-25.5c.3.1.6.2.9.4l25.4 15.8 89.6-55.6-20.9-13c-.3-.1-.5-.2-.8-.4l-37.7-22.8-89.5 55.6 33 20z"/>
  </g>
  <g opacity=".08">
    <path fill-rule="evenodd" d="M280.2 331.1l-19.8-12.2h-.1l-19.8-12.3-70.2 43.6 19.8 12.3.1-.1 19.8 12.3z" clip-rule="evenodd"/>
    <path fill="none" stroke="#000" stroke-linejoin="round" stroke-miterlimit="10" stroke-width="6" d="M280.2 331.1l-19.8-12.2h-.1l-19.8-12.3-70.2 43.6 19.8 12.3.1-.1 19.8 12.3z"/>
  </g>
  <path fill="#B3D1E2" d="M254.4 3.1l2.9-1.8-.5 196.6-3 1.8z"/>
  <path fill="#C4DDED" d="M254.4 3.1l-.6 196.6-5.2-3.1.6-196.6z"/>
  <path fill="#B3D1E2" d="M292 25.5l3-1.7-.6 196.5-2.9 1.8z"/>
  <path fill="#EEF5FF" d="M286.8 22.4l3-1.7 5.2 3.1-3 1.7z"/>
  <path fill="#C4DDED" d="M292 25.5l-.5 196.6-5.2-3.1.5-196.6zM50.7 170v3.5l34.7 20.9v-3.5z"/>
  <path fill="#B3D1E2" d="M85.4 190.9v3.5L290.9 72v-3.5z"/>
  <path fill="#EEF5FF" d="M50.7 170l34.7 20.9L290.9 68.5l-34.8-20.9z"/>
  <path fill="#C4DDED" d="M50.7 233.4v3.6l34.7 20.8v-3.5z"/>
  <path fill="#B3D1E2" d="M85.4 254.3v3.5l205.5-122.4v-3.5z"/>
  <path fill="#EEF5FF" d="M50.7 233.4l34.7 20.9 205.5-122.4-34.8-20.9z"/>
  <path fill="#C4DDED" d="M50.7 294v3.5l34.7 20.8v-3.5z"/>
  <path fill="#B3D1E2" d="M85.4 314.8v3.5L290.9 196v-3.6z"/>
  <path fill="#EEF5FF" d="M50.7 294l34.7 20.8 205.5-122.4-34.8-20.8z"/>
  <path fill="#A3805A" d="M268 50.9l-.1 26.4-22.7 13.6V64.5z"/>
  <path fill="#DDB786" d="M268 50.9l-.1 26.4-22.7 13.6V64.5z"/>
  <path fill="#826243" d="M258.8 56.4v5.2l-4.4 2.6v-5.1z"/>
  <path fill="#BF9B71" d="M245.2 64.5v26.4l-22.9-13.6V50.9z"/>
  <path fill="#FDDBAA" d="M268 50.9l-22.8 13.6-22.9-13.6 22.8-13.7z"/>
  <path fill="#DDB787" d="M222.3 77.3l22.9-12.8-22.9-13.6z"/>
  <path fill="#A3805A" d="M234.1 70.1l-.1 26.4-22.7 13.6V83.7z"/>
  <path fill="#DDB786" d="M234.1 70.1l-.1 26.4-22.7 13.6V83.7z"/>
  <path fill="#826243" d="M224.9 75.6v5.2l-4.4 2.6v-5.1z"/>
  <path fill="#BF9B71" d="M211.3 83.7v26.4l-22.9-13.6V70.1z"/>
  <path fill="#FDDBAA" d="M234.1 70.1l-22.8 13.6-22.9-13.6 22.8-13.7z"/>
  <path fill="#DDB787" d="M188.4 96.5l22.9-12.8-22.8-13.6z"/>
  <path fill="#A3805A" d="M197.2 92.2l-.1 26.4-22.7 13.7.1-26.5z"/>
  <path fill="#DDB786" d="M197.2 92.2l-.1 26.4-22.7 13.7.1-26.5z"/>
  <path fill="#826243" d="M188 97.8v5.1l-4.4 2.7v-5.2z"/>
  <path fill="#BF9B71" d="M174.5 105.8l-.1 26.5-22.9-13.7.1-26.4z"/>
  <path fill="#FDDBAA" d="M197.2 92.2l-22.7 13.6-22.9-13.6 22.7-13.6z"/>
  <path fill="#DDB787" d="M151.5 118.6l23-12.8-22.9-13.6z"/>
  <path fill="#A3805A" d="M158.5 114.3v26.4l-22.8 13.6.1-26.4z"/>
  <path fill="#DDB786" d="M158.5 114.3v26.4l-22.8 13.6.1-26.4z"/>
  <path fill="#826243" d="M149.3 119.8v5.2l-4.4 2.6v-5.1z"/>
  <path fill="#BF9B71" d="M135.8 127.9l-.1 26.4-22.9-13.6.1-26.4z"/>
  <path fill="#FDDBAA" d="M158.5 114.3l-22.7 13.6-22.9-13.6 22.7-13.7z"/>
  <path fill="#DDB787" d="M112.8 140.7l23-12.8-22.9-13.6z"/>
  <path fill="#A3805A" d="M124.6 133.5v26.4l-22.8 13.6.1-26.4z"/>
  <path fill="#DDB786" d="M124.6 133.5v26.4l-22.8 13.6.1-26.4z"/>
  <path fill="#826243" d="M115.5 139l-.1 5.2-4.4 2.6v-5.1z"/>
  <path fill="#BF9B71" d="M101.9 147.1l-.1 26.4-22.9-13.6.1-26.4z"/>
  <path fill="#FDDBAA" d="M124.6 133.5l-22.7 13.6L79 133.5l22.7-13.7z"/>
  <path fill="#DDB787" d="M78.9 159.9l23-12.8L79 133.5z"/>
  <path fill="#A3805A" d="M269.1 116.3l-.1 25.2-21.7 13v-25.2z"/>
  <path fill="#DDB786" d="M269.1 116.3l-.1 25.2-21.7 13v-25.2z"/>
  <path fill="#826243" d="M260.3 121.6v4.9L256 129l.1-4.9z"/>
  <path fill="#BF9B71" d="M247.3 129.3v25.2l-21.9-13v-25.2z"/>
  <path fill="#FDDBAA" d="M269.1 116.3l-21.8 13-21.9-13 21.8-13.1z"/>
  <path fill="#DDB787" d="M225.4 141.5l21.9-12.2-21.9-13z"/>
  <path fill="#A3805A" d="M236.7 134.6l-.1 25.3-21.7 13v-25.3z"/>
  <path fill="#DDB786" d="M236.7 134.6l-.1 25.3-21.7 13v-25.3z"/>
  <path fill="#826243" d="M227.9 139.9v4.9l-4.2 2.6v-4.9z"/>
  <path fill="#BF9B71" d="M214.9 147.6v25.3l-21.9-13 .1-25.3z"/>
  <path fill="#FDDBAA" d="M236.7 134.6l-21.8 13-21.8-13 21.7-13z"/>
  <path fill="#DDB787" d="M193 159.9l21.9-12.3-21.8-13z"/>
  <path fill="#A3805A" d="M208.2 213.6l-.1 25.2-21.7 13v-25.2z"/>
  <path fill="#DDB786" d="M208.2 213.6l-.1 25.2-21.7 13v-25.2z"/>
  <path fill="#826243" d="M199.4 218.9v4.9l-4.3 2.5.1-4.9z"/>
  <path fill="#BF9B71" d="M186.4 226.6v25.2l-21.9-13v-25.2z"/>
  <path fill="#FDDBAA" d="M208.2 213.6l-21.8 13-21.9-13 21.8-13.1z"/>
  <path fill="#DDB787" d="M164.5 238.8l21.9-12.2-21.9-13z"/>
  <path fill="#A3805A" d="M201.8 154.9l-.1 25.3-21.7 13V168z"/>
  <path fill="#DDB786" d="M201.8 154.9l-.1 25.3-21.7 13V168z"/>
  <path fill="#826243" d="M193 160.3v4.9l-4.3 2.5.1-4.9z"/>
  <path fill="#BF9B71" d="M180 168v25.2l-21.9-13v-25.3z"/>
  <path fill="#FDDBAA" d="M201.8 154.9L180 168l-21.9-13.1 21.8-13z"/>
  <path fill="#DDB787" d="M158.1 180.2L180 168l-21.9-13.1z"/>
  <path fill="#A3805A" d="M165.6 175.7l-.1 25.2-21.7 13 .1-25.2z"/>
  <path fill="#DDB786" d="M165.6 175.7l-.1 25.2-21.7 13 .1-25.2z"/>
  <path fill="#826243" d="M156.8 181v4.9l-4.2 2.5v-4.9z"/>
  <path fill="#BF9B71" d="M143.9 188.7l-.1 25.2-21.9-13 .1-25.2z"/>
  <path fill="#FDDBAA" d="M165.6 175.7l-21.7 13-21.9-13 21.7-13.1z"/>
  <path fill="#DDB787" d="M121.9 200.9l22-12.2-21.9-13z"/>
  <path fill="#A3805A" d="M132.1 195.2l-.1 25.3-21.7 13v-25.3z"/>
  <path fill="#DDB786" d="M132.1 195.2l-.1 25.3-21.7 13v-25.3z"/>
  <path fill="#826243" d="M123.3 200.5v4.9l-4.2 2.6v-4.9z"/>
  <path fill="#BF9B71" d="M110.3 208.2v25.3l-21.9-13 .1-25.3z"/>
  <path fill="#FDDBAA" d="M132.1 195.2l-21.8 13-21.8-13 21.7-13z"/>
  <path fill="#DDB787" d="M88.4 220.5l21.9-12.3-21.8-13z"/>
  <path fill="#A3805A" d="M160.5 245.4v19.1l-16.5 9.8.1-19.1z"/>
  <path fill="#DDB786" d="M160.5 245.4v19.1l-16.5 9.8.1-19.1z"/>
  <path fill="#826243" d="M153.9 249.4v3.7l-3.2 1.9v-3.7z"/>
  <path fill="#BF9B71" d="M144.1 255.2l-.1 19.1-16.5-9.8v-19.1z"/>
  <path fill="#FDDBAA" d="M160.5 245.4l-16.4 9.8-16.6-9.8 16.5-9.9z"/>
  <path fill="#DDB787" d="M127.5 264.5l16.6-9.3-16.6-9.8z"/>
  <path fill="#A3805A" d="M136 259.2v19.2l-16.5 9.8.1-19.1z"/>
  <path fill="#DDB786" d="M136 259.2v19.2l-16.5 9.8.1-19.1z"/>
  <path fill="#826243" d="M129.4 263.3v3.7l-3.2 1.9v-3.7z"/>
  <path fill="#BF9B71" d="M119.6 269.1l-.1 19.1-16.5-9.8v-19.2z"/>
  <path fill="#FDDBAA" d="M136 259.2l-16.4 9.9-16.6-9.9 16.5-9.8z"/>
  <path fill="#DDB787" d="M103 278.4l16.6-9.3-16.6-9.9z"/>
  <path fill="#B3D1E2" d="M52.3 122.5l3-1.8-.6 196.6-2.9 1.8z"/>
  <path fill="#EEF5FF" d="M47.1 119.4l2.9-1.8 5.3 3.1-3 1.8z"/>
  <path fill="#C4DDED" d="M52.3 122.5l-.5 196.6-5.3-3.1.6-196.6z"/>
  <path fill="#B3D1E2" d="M90 144.9l2.9-1.7-.5 196.6-3 1.7z"/>
  <path fill="#EEF5FF" d="M84.7 141.8l3-1.7 5.2 3.1-3 1.7z"/>
  <path fill="#C4DDED" d="M90 144.9l-.6 196.6-5.2-3.1.5-196.6z"/>
  <path fill="#2D2C2B" d="M311.5 206.9l-2.6-1.6-.2-77.4 2.6 1.5z"/>
  <path fill="#484746" d="M311.3 129.4l-2.6-1.5 4.2-2.6 2.7 1.6z"/>
  <path fill="#403F3E" d="M315.6 126.9l.2 77.4-4.3 2.5-.2-77.4z"/>
  <path fill="#EEF5FF" d="M358.4 222.1l-44.1-26.5 35.3 4.7 44.1 26.4z"/>
  <path fill="#C4DDED" d="M358.7 298.9l-44.2-26.4-.2-76.9 44.1 26.5z"/>
  <path fill="#B3D1E2" d="M358.4 222.1l35.3 4.6.2 51.3-35.2 20.9z"/>
  <path fill="#B3D1E2" d="M359 293.5v5.3l-37.3 22.4v-5.4z"/>
  <path fill="#C4DDED" d="M321.7 315.8v5.4l-44.4-26.5v-5.4z"/>
  <path fill="#D3E4FE" d="M359 293.5l-37.3 22.3-44.4-26.5 37.2-22.3z"/>
  <path fill="#373635" d="M353.5 290.2l-30.1 18-35.9-21.3 30.1-18.1z"/>
  <path fill="#D3E4FE" d="M317 197.3l-2.7-1.6-.2-77.4 2.7 1.6z"/>
  <path fill="#EEF5FF" d="M316.8 119.9l-2.7-1.6 4.3-2.5 2.6 1.6z"/>
  <path fill="#B3D1E2" d="M321 117.4l.2 82.4-4.2-2.5-.2-77.4z"/>
  <path fill="#759AA3" d="M359.6 163l2.6-1.6v20.4l-2.7 1.6z"/>
  <path fill="#EEF5FF" d="M317.8 138.1l2.6-1.6 41.8 24.9-2.6 1.6z"/>
  <path fill="#D3E4FE" d="M359.6 163l-.1 20.4-41.8-24.9.1-20.4z"/>
  <path fill="#D3E4FE" d="M358.5 222.1l-2.6-1.6-.2-77.4 2.6 1.6z"/>
  <path fill="#EEF5FF" d="M358.3 144.7l-2.6-1.6 4.2-2.5 2.6 1.6z"/>
  <path fill="#B3D1E2" d="M362.5 142.2l.2 80.5-4.2-.6-.2-77.4z"/>
  <path fill="#2D2C2B" d="M358.3 233.1l-2.7-1.6-.2-77.4 2.7 1.6z"/>
  <path fill="#484746" d="M358.1 155.7l-2.7-1.6 4.3-2.5 2.6 1.6z"/>
  <path fill="#403F3E" d="M362.3 153.2l.2 77.4-4.2 2.5-.2-77.4z"/>
  <path fill="#313130" d="M293.4 219.4v3.3l-15.2 9.1.1-3.3z"/>
  <path fill="#222221" d="M278.3 228.5l-.1 3.3-2.3-1.4v-3.3zM324 237.5v3.4l-30.6-18.2v-3.3zM311 247.9l-.1 3.4-2.1-1.3v-3.3z"/>
  <path fill="#373635" d="M343.7 228.3L311 247.9l-2.2-1.3 15.2-9.1-30.6-18.1-15.1 9.1-2.4-1.4 32.8-19.7z"/>
  <path fill="#EEF5FF" d="M321 221.6l-4.2-2.5-.1-42.2 4.2 2.4z"/>
  <path fill="#CFCCC8" d="M320.9 179.3l-4.2-2.4 4.8-2.8 4.2 2.5z"/>
  <path fill="#B3D1E2" d="M325.7 176.6l.1 42.2-4.8 2.8-.1-42.3z"/>
  <path fill="#C4DDED" d="M313.1 185.9l-5.8-3.5-.1-9.8 5.9 3.5z"/>
  <path fill="#EEF5FF" d="M313.1 176.1l-5.9-3.5 30.6-18.2 5.9 3.5z"/>
  <path fill="#B3D1E2" d="M343.7 157.9v9.8l-30.6 18.2v-9.8z"/>
  <path fill="#A3805A" d="M274.8 219.7l.1 26.8 23.1 13.8-.1-26.8z"/>
  <path fill="#DDB786" d="M274.8 219.7l.1 26.8 23.1 13.8-.1-26.8z"/>
  <path fill="#826243" d="M284.1 225.4l.1 5.2 4.4 2.7v-5.2z"/>
  <path fill="#BF9B71" d="M297.9 233.5l.1 26.8 23.2-13.8-.1-26.8z"/>
  <path fill="#FDDBAA" d="M274.8 219.7l23.1 13.8 23.2-13.8-23.1-13.8z"/>
  <path fill="#DDB787" d="M321.2 246.5l-23.3-13 23.2-13.8z"/>
  <path fill="#313130" d="M343.7 228.3v3.3l-32.8 19.7.1-3.4z"/>
  <path fill="#373635" d="M325.3 239.3l-14.3 8.6-2.1-1 15.1-9.4z"/>
  <path fill="#373635" d="M310.9 251.3l.1-3.4-2.1-1v3.3z"/>
  <g>
    <defs>
      <path id="SVGID_1_" d="M238.4 212.7l-82.8 48.9c-2.4 1.4-3.9 4-3.9 6.9l-.2 83.5 96.9-57.4.2-78.9c0-2.1-3-3.2-5.3-3.8-.5-.1-1-.2-1.5-.2-1.2 0-2.3.3-3.4 1"/>
    </defs>
    <clipPath id="SVGID_2_">
      <use overflow="visible" xlink:href="#SVGID_1_"/>
    </clipPath>
    <linearGradient id="SVGID_3_" x1="103.718" x2="104.579" y1="310.878" y2="310.878" gradientTransform="matrix(-112.752 0 0 112.752 11943.037 -34770.305)" gradientUnits="userSpaceOnUse">
      <stop offset="0" stop-color="#f5f5f5"/>
      <stop offset="1" stop-color="#b3d1e2"/>
    </linearGradient>
    <path fill="url(#SVGID_3_)" d="M151.5 211.7h97.1V352h-97.1z" clip-path="url(#SVGID_2_)"/>
    <defs>
      <path id="SVGID_4_" d="M151.5 211.7h164.7v183.1H151.5z"/>
    </defs>
    <clipPath id="SVGID_5_">
      <use overflow="visible" xlink:href="#SVGID_4_"/>
    </clipPath>
    <path fill="#C4DDED" d="M154.1 350.7l94.1-55.8.2-79.2c0-2.3-2.4-3.7-4.3-2.6l-86.8 51.3c-1.9 1.1-3.1 3.2-3.1 5.4l-.1 80.9z" clip-path="url(#SVGID_5_)"/>
    <path fill="#5BC5F7" d="M244.6 217.7l-86.2 51-.1 74.6 86.3-51.1z" clip-path="url(#SVGID_5_)"/>
    <defs>
      <path id="SVGID_6_" d="M151.8 352l70.1 41.8c2.4 1.4 5.3 1.4 7.7 0 0 0 72.5-43.2 84.9-50.6 1.1-.7 1.8-1.9 1.8-3.2l-.2-3.1c-.1-.1-75.3-37.8-75.3-37.8l-89 52.9z"/>
    </defs>
    <clipPath id="SVGID_7_">
      <use overflow="visible" xlink:href="#SVGID_6_"/>
    </clipPath>
    <linearGradient id="SVGID_8_" x1="104.902" x2="105.791" y1="310.322" y2="310.322" gradientTransform="matrix(0 107.7787 107.7787 0 -33212.09 -11007.145)" gradientUnits="userSpaceOnUse">
      <stop offset="0" stop-color="#f5f5f5"/>
      <stop offset="1" stop-color="#b3d1e2"/>
    </linearGradient>
    <path fill="url(#SVGID_8_)" d="M151.8 299h164.4v96.1H151.8z" clip-path="url(#SVGID_7_)"/>
    <path fill="#FFF" d="M154.2 350.3l94-55.9 66.5 39.7c1.9 1.1 1.9 4 0 5.2l-86.6 51.6a6.05 6.05 0 0 1-6.1 0l-67.8-40.6z"/>
    <path fill="#D3E4FE" d="M180.2 352l-4.7 2.8c-1.9-1.1-2.8-1.7-4.7-2.8 1.9-1.1 2.8-1.7 4.7-2.8 1.9 1.2 2.8 1.7 4.7 2.8M187.2 347.9c-1.9 1.1-2.8 1.7-4.7 2.8-1.9-1.1-2.8-1.7-4.7-2.8 1.9-1.1 2.8-1.7 4.7-2.8 1.8 1.2 2.8 1.7 4.7 2.8M194.1 343.8c-1.9 1.1-2.8 1.7-4.7 2.8-1.9-1.1-2.8-1.7-4.7-2.8 1.9-1.1 2.8-1.7 4.7-2.8 1.8 1.2 2.8 1.7 4.7 2.8M201 339.7c-1.9 1.1-2.8 1.7-4.7 2.8-1.9-1.1-2.8-1.7-4.7-2.8 1.9-1.1 2.8-1.7 4.7-2.8 1.8 1.2 2.8 1.7 4.7 2.8M207.9 335.7c-1.9 1.1-2.8 1.7-4.7 2.8-1.9-1.1-2.8-1.7-4.7-2.8 1.9-1.1 2.8-1.7 4.7-2.8 1.8 1.1 2.8 1.6 4.7 2.8M214.8 331.6c-1.9 1.1-2.8 1.7-4.7 2.8-1.9-1.1-2.8-1.7-4.7-2.8 1.9-1.1 2.8-1.7 4.7-2.8 1.9 1.1 2.8 1.7 4.7 2.8M221.7 327.5c-1.9 1.1-2.8 1.7-4.7 2.8-1.9-1.1-2.8-1.7-4.7-2.8 1.9-1.1 2.8-1.7 4.7-2.8 1.9 1.1 2.8 1.7 4.7 2.8M228.6 323.4c-1.9 1.1-2.8 1.7-4.7 2.8-1.9-1.1-2.8-1.7-4.7-2.8 1.9-1.1 2.8-1.7 4.7-2.8 1.9 1.1 2.8 1.7 4.7 2.8M235.5 319.3c-1.9 1.1-2.8 1.7-4.7 2.8-1.9-1.1-2.8-1.7-4.7-2.8 1.9-1.1 2.8-1.7 4.7-2.8 1.9 1.1 2.8 1.7 4.7 2.8M242.4 315.2c-1.9 1.1-2.8 1.7-4.7 2.8-1.9-1.1-2.8-1.7-4.7-2.8 1.9-1.1 2.8-1.7 4.7-2.8 1.9 1.1 2.8 1.7 4.7 2.8M249.3 311.1c-1.9 1.1-2.8 1.7-4.7 2.8-1.9-1.1-2.8-1.7-4.7-2.8 1.9-1.1 2.8-1.7 4.7-2.8 1.9 1.1 2.9 1.7 4.7 2.8M256.3 307c-1.9 1.1-2.8 1.7-4.7 2.8-1.9-1.1-2.8-1.7-4.7-2.8 1.9-1.1 2.8-1.7 4.7-2.8 1.8 1.1 2.8 1.7 4.7 2.8M186.9 355.9c-1.9 1.1-2.8 1.7-4.7 2.8-1.9-1.1-2.8-1.7-4.7-2.8 1.9-1.1 2.8-1.7 4.7-2.8 1.8 1.1 2.8 1.7 4.7 2.8M193.8 351.8c-1.9 1.1-2.8 1.7-4.7 2.8-1.9-1.1-2.8-1.7-4.7-2.8 1.9-1.1 2.8-1.7 4.7-2.8 1.9 1.2 2.8 1.7 4.7 2.8M200.7 347.7c-1.9 1.1-2.8 1.7-4.7 2.8-1.9-1.1-2.8-1.7-4.7-2.8 1.9-1.1 2.8-1.7 4.7-2.8 1.9 1.2 2.8 1.7 4.7 2.8M207.6 343.6c-1.9 1.1-2.8 1.7-4.7 2.8-1.9-1.1-2.8-1.7-4.7-2.8 1.9-1.1 2.8-1.7 4.7-2.8 1.9 1.2 2.8 1.7 4.7 2.8M214.5 339.5c-1.9 1.1-2.8 1.7-4.7 2.8-1.9-1.1-2.8-1.7-4.7-2.8 1.9-1.1 2.8-1.7 4.7-2.8 1.9 1.2 2.8 1.7 4.7 2.8M221.4 335.4c-1.9 1.1-2.8 1.7-4.7 2.8-1.9-1.1-2.8-1.7-4.7-2.8 1.9-1.1 2.8-1.7 4.7-2.8 1.9 1.2 2.8 1.7 4.7 2.8M228.3 331.3c-1.9 1.1-2.8 1.7-4.7 2.8-1.9-1.1-2.8-1.7-4.7-2.8 1.9-1.1 2.8-1.7 4.7-2.8 1.9 1.2 2.9 1.7 4.7 2.8M235.3 327.2c-1.9 1.1-2.8 1.7-4.7 2.8-1.9-1.1-2.8-1.7-4.7-2.8 1.9-1.1 2.8-1.7 4.7-2.8 1.8 1.2 2.8 1.7 4.7 2.8M242.2 323.1c-1.9 1.1-2.8 1.7-4.7 2.8-1.9-1.1-2.8-1.7-4.7-2.8 1.9-1.1 2.8-1.7 4.7-2.8 1.8 1.2 2.8 1.7 4.7 2.8M249.1 319.1c-1.9 1.1-2.8 1.7-4.7 2.8-1.9-1.1-2.8-1.7-4.7-2.8 1.9-1.1 2.8-1.7 4.7-2.8 1.8 1.1 2.8 1.7 4.7 2.8M256 315c-1.9 1.1-2.8 1.7-4.7 2.8-1.9-1.1-2.8-1.7-4.7-2.8 1.9-1.1 2.8-1.7 4.7-2.8 1.9 1.1 2.8 1.7 4.7 2.8"/>
    <path fill="#D3E4FE" d="M262.9 310.9c-3.1 1.9-4.7 2.8-7.8 4.7-1.9-1.1-2.8-1.7-4.7-2.8 3.1-1.9 4.7-2.8 7.9-4.7 1.8 1.1 2.7 1.7 4.6 2.8M196.6 357.9c-3.1 1.8-4.7 2.8-7.8 4.6-1.9-1.1-2.8-1.7-4.7-2.8 3.1-1.8 4.7-2.8 7.8-4.6 1.9 1.2 2.8 1.7 4.7 2.8"/>
    <path fill="#D3E4FE" d="M200.4 355.7c-1.9 1.1-2.8 1.7-4.7 2.8-1.9-1.1-2.8-1.7-4.7-2.8 1.9-1.1 2.8-1.7 4.7-2.8 1.9 1.1 2.8 1.7 4.7 2.8M207.4 351.6c-1.9 1.1-2.8 1.7-4.7 2.8-1.9-1.1-2.8-1.7-4.7-2.8 1.9-1.1 2.8-1.7 4.7-2.8 1.8 1.1 2.8 1.7 4.7 2.8M214.3 347.5c-1.9 1.1-2.8 1.7-4.7 2.8-1.9-1.1-2.8-1.7-4.7-2.8 1.9-1.1 2.8-1.7 4.7-2.8 1.8 1.1 2.8 1.7 4.7 2.8M221.2 343.4c-1.9 1.1-2.8 1.7-4.7 2.8-1.9-1.1-2.8-1.7-4.7-2.8 1.9-1.1 2.8-1.7 4.7-2.8 1.8 1.1 2.8 1.7 4.7 2.8M228.1 339.3c-1.9 1.1-2.8 1.7-4.7 2.8-1.9-1.1-2.8-1.7-4.7-2.8 1.9-1.1 2.8-1.7 4.7-2.8 1.8 1.2 2.8 1.7 4.7 2.8M235 335.2c-1.9 1.1-2.8 1.7-4.7 2.8-1.9-1.1-2.8-1.7-4.7-2.8 1.9-1.1 2.8-1.7 4.7-2.8 1.9 1.2 2.8 1.7 4.7 2.8M241.9 331.1c-1.9 1.1-2.8 1.7-4.7 2.8-1.9-1.1-2.8-1.7-4.7-2.8 1.9-1.1 2.8-1.7 4.7-2.8 1.9 1.2 2.8 1.7 4.7 2.8M248.8 327c-1.9 1.1-2.8 1.7-4.7 2.8-1.9-1.1-2.8-1.7-4.7-2.8 1.9-1.1 2.8-1.7 4.7-2.8 1.9 1.2 2.8 1.7 4.7 2.8M255.7 322.9c-1.9 1.1-2.8 1.7-4.7 2.8-1.9-1.1-2.8-1.7-4.7-2.8 1.9-1.1 2.8-1.7 4.7-2.8 1.9 1.2 2.8 1.7 4.7 2.8M262.6 318.8c-1.9 1.1-2.8 1.7-4.7 2.8-1.9-1.1-2.8-1.7-4.7-2.8 1.9-1.1 2.8-1.7 4.7-2.8 1.9 1.2 2.8 1.7 4.7 2.8M269.5 314.7c-1.9 1.1-2.8 1.7-4.7 2.8-1.9-1.1-2.8-1.7-4.7-2.8 1.9-1.1 2.8-1.7 4.7-2.8 1.9 1.2 2.9 1.7 4.7 2.8M200.2 363.7c-1.9 1.1-2.8 1.7-4.7 2.8-1.9-1.1-2.8-1.7-4.7-2.8 1.9-1.1 2.8-1.7 4.7-2.8 1.8 1.1 2.8 1.7 4.7 2.8M207.1 359.6c-1.9 1.1-2.8 1.7-4.7 2.8-1.9-1.1-2.8-1.7-4.7-2.8 1.9-1.1 2.8-1.7 4.7-2.8 1.8 1.1 2.8 1.7 4.7 2.8M214 355.5c-1.9 1.1-2.8 1.7-4.7 2.8-1.9-1.1-2.8-1.7-4.7-2.8 1.9-1.1 2.8-1.7 4.7-2.8 1.9 1.1 2.8 1.7 4.7 2.8M220.9 351.4c-1.9 1.1-2.8 1.7-4.7 2.8-1.9-1.1-2.8-1.7-4.7-2.8 1.9-1.1 2.8-1.7 4.7-2.8 1.9 1.1 2.8 1.7 4.7 2.8M227.8 347.3c-1.9 1.1-2.8 1.7-4.7 2.8-1.9-1.1-2.8-1.7-4.7-2.8 1.9-1.1 2.8-1.7 4.7-2.8 1.9 1.1 2.8 1.7 4.7 2.8M234.7 343.2c-1.9 1.1-2.8 1.7-4.7 2.8-1.9-1.1-2.8-1.7-4.7-2.8 1.9-1.1 2.8-1.7 4.7-2.8 1.9 1.1 2.8 1.7 4.7 2.8M241.6 339.1c-1.9 1.1-2.8 1.7-4.7 2.8-1.9-1.1-2.8-1.7-4.7-2.8 1.9-1.1 2.8-1.7 4.7-2.8 1.9 1.1 2.8 1.7 4.7 2.8M248.5 335c-1.9 1.1-2.8 1.7-4.7 2.8-1.9-1.1-2.8-1.7-4.7-2.8 1.9-1.1 2.8-1.7 4.7-2.8 1.9 1.1 2.9 1.7 4.7 2.8M255.5 330.9c-1.9 1.1-2.8 1.7-4.7 2.8-1.9-1.1-2.8-1.7-4.7-2.8 1.9-1.1 2.8-1.7 4.7-2.8 1.8 1.1 2.8 1.7 4.7 2.8M262.4 326.8c-1.9 1.1-2.8 1.7-4.7 2.8-1.9-1.1-2.8-1.7-4.7-2.8 1.9-1.1 2.8-1.7 4.7-2.8 1.8 1.1 2.8 1.7 4.7 2.8M272.3 320.9c-3.1 1.8-4.6 2.7-7.7 4.5-1.9-1.1-2.8-1.7-4.7-2.8 3.1-1.8 4.6-2.7 7.7-4.5 1.8 1.2 2.8 1.7 4.7 2.8"/>
    <path fill="#D3E4FE" d="M276.2 318.6c-1.9 1.1-2.8 1.7-4.7 2.8-1.9-1.1-2.8-1.7-4.7-2.8 1.9-1.1 2.8-1.7 4.7-2.8 1.8 1.2 2.8 1.7 4.7 2.8M207.7 368.1c-1.9 1.1-2.8 1.7-4.7 2.8-1.9-1.1-2.8-1.7-4.7-2.8 1.9-1.1 2.8-1.7 4.7-2.8 1.9 1.1 2.8 1.7 4.7 2.8M214.6 364c-1.9 1.1-2.8 1.7-4.7 2.8-1.9-1.1-2.8-1.7-4.7-2.8 1.9-1.1 2.8-1.7 4.7-2.8 1.9 1.1 2.9 1.7 4.7 2.8M221.6 359.9c-1.9 1.1-2.8 1.7-4.7 2.8-1.9-1.1-2.8-1.7-4.7-2.8 1.9-1.1 2.8-1.7 4.7-2.8 1.8 1.1 2.8 1.7 4.7 2.8M263 335.3c-13.1 7.7-26.2 15.5-39.2 23.2-1.9-1.1-2.8-1.7-4.7-2.8 13.1-7.7 26.2-15.5 39.2-23.2 1.9 1.2 2.8 1.7 4.7 2.8M269.9 331.2c-1.9 1.1-2.8 1.7-4.7 2.8-1.9-1.1-2.8-1.7-4.7-2.8 1.9-1.1 2.8-1.7 4.7-2.8 1.9 1.2 2.8 1.7 4.7 2.8M276.8 327.1c-1.9 1.1-2.8 1.7-4.7 2.8-1.9-1.1-2.8-1.7-4.7-2.8 1.9-1.1 2.8-1.7 4.7-2.8 1.9 1.2 2.8 1.7 4.7 2.8M283.8 323c-1.9 1.1-2.8 1.7-4.7 2.8-1.9-1.1-2.8-1.7-4.7-2.8 1.9-1.1 2.8-1.7 4.7-2.8 1.8 1.2 2.8 1.7 4.7 2.8"/>
    <path fill="#B3D1E2" d="M231 360.5l32.2-19.2 18.5 11.7-32.3 19.3z"/>
    <path fill="none" d="M151.5 211.7h164.7v183.1H151.5z"/>
  </g>
  <g>
    <path fill="#FFF" d="M202.5 297.8l-17.8-4.4v-18.7l17.8-16.5 17.8 2.6v18.7l-17.8 18.3zm-16-6.3l16 3.9 16-16.4v-16.3l-16-2.3-16 14.8v16.3z"/>
    <path fill="#FFF" d="M197.5 274v.3c0 4.3 5 4.6 5.1 4.6v-15.7c-.1.2-5.1 7.3-5.1 10.8zM202.7 278.8zM202.7 278.8zM202.7 263.1zM202.7 263.1v15.7c.2-.1 5.1-4.3 5.1-8.6v-.3c0-3.3-5-6.7-5.1-6.8zM202.7 263.1z"/>
    <path fill="#FFF" d="M202.6 278.5s-2.1-1.3-6 .5-5.7 8.4-8.2 9.2c0 0 4.3 2.2 8 1.4 3.3-.7 6.7-4.8 6.2-11.1z"/>
    <path fill="#FFF" d="M202.7 278.3s.9-1.3 2.9-2.6c.8-.5 1.8-1 2.9-1.4 3.9-1.2 5.7 4 8.2 2.8 0 0-4.3 5.5-8 7.7-2.7 1.5-5.5.9-6.2-3-.1-.9 0-2.2.2-3.5zM202.6 304.3l-18-4.4v1l18 4.5 17.7-18.3v-1z"/>
    <path fill="#FFF" d="M184.6 297.6v1.1l18 4.5 17.7-18.3v-1.1l-17.7 18.3z"/>
    <path fill="#FFF" d="M202.6 301l17.8-18.3v-1.1l-17.8 18.3-18-4.5v1.1zM202.5 279.4l-17.1-3.3.4-1 16.7 3.3 16.7-16.3.4.6z"/>
    <path fill="#FFF" d="M202.9 296.4l-.8.4v-18.3l.8-.3z"/>
    <path fill="#FFF" d="M202.5 297.8l-17.8-4.4v-18.7l17.8-16.5 17.8 2.6v18.7l-17.8 18.3zm-16-6.3l16 3.9 16-16.4v-16.3l-16-2.3-16 14.8v16.3z"/>
    <path fill="#FFF" d="M202.9 296.4l-.8.4v-18.3l.8-.3z"/>
    <path fill="#FFF" d="M202.6 304.3l-18-4.4v1l18 4.5 17.7-18.3v-1z"/>
    <path fill="#FFF" d="M184.6 297.6v1.1l18 4.5 17.7-18.3v-1.1l-17.7 18.3z"/>
    <path fill="#FFF" d="M202.6 301l17.8-18.3v-1.1l-17.8 18.3-18-4.5v1.1zM202.5 279.4l-17.1-3.3.4-1 16.7 3.3 16.7-16.3.4.6z"/>
  </g>
</svg>
