<svg xmlns="http://www.w3.org/2000/svg" xmlns:xlink="http://www.w3.org/1999/xlink" viewBox="0 0 422 344">
  <g opacity=".08">
    <path d="M348.9 160.7c-.6-.1-1.2-.3-1.7-.6l-73.3-41.9L14.1 266.6l67.8 38.7c.5.1 1 .3 1.5.5l53.5 28.3 259.5-148.3-47.5-25.1z"/>
    <path d="M408.4 181.7L352.3 152c-.5-.2-1-.4-1.5-.5l-74.5-42.6c-1.5-.9-3.4-.9-5 0L2.3 262.7c-1.4.8-2.3 2.3-2.3 3.9s.9 3.1 2.3 3.9l76 43.4c.6.3 1.2.5 1.8.6l54.6 28.9c.7.4 1.5.6 2.3.6.9 0 1.7-.2 2.5-.7l90.5-51.7c-.4-.7-.6-1.4-.6-2.2 0-1.6.9-3.2 2.4-4l47.2-25.9c1.5-.8 3.3-.8 4.8 0l1.3.7 123.4-70.5c1.5-.8 2.4-2.4 2.3-4 0-1.7-.9-3.2-2.4-4zm-325 124.1c-.5-.2-1-.4-1.5-.5l-67.8-38.7 259.7-148.4 73.3 41.9c.5.3 1.1.5 1.7.6l47.5 25.1-259.4 148.4-53.5-28.4zM281.5 268.7L244 289.3l21.8 11.3 37.4-20.3z"/>
    <path d="M279 259.5l-47.2 25.9c-1.5.8-2.4 2.4-2.4 4 0 .8.2 1.5.6 2.2.4.7 1.1 1.4 1.9 1.8l31.6 16.4c.7.4 1.5.6 2.3.6.8 0 1.6-.2 2.4-.6l47.2-25.6c1.5-.8 2.4-2.3 2.4-4 0-1.6-1-3.2-2.5-4L285 260.1l-1.3-.7c-1.4-.7-3.2-.7-4.7.1zm-35 29.8l37.5-20.6 21.8 11.5-37.5 20.4-21.8-11.3z"/>
  </g>
  <path fill="#BD8A17" d="M165.9 143.3v.6l-.4-.1zM148.5 143v.9s.6-.1.6-.2c-.1-.1-.6-.7-.6-.7"/>
  <path fill="#F4FF8C" d="M148.8 143h-.4v.1c.2 0 .3-.1.4-.1z"/>
  <path fill="#BD8A17" d="M165.9 138.6v.6l-.4-.1zM148.5 138.3v.9s.6-.1.6-.2c-.1-.1-.6-.7-.6-.7"/>
  <path fill="#F4FF8C" d="M148.8 138.3l-.4.1v.1c.2-.1.3-.2.4-.2z"/>
  <path fill="#BD8A17" d="M173.8 137.6v1.1l-.8-1.1zM165.9 133.9v.6l-.4-.1zM148.5 133.7v.9s.6-.1.6-.2c-.1-.2-.6-.7-.6-.7M139.9 137.4v.8l.8-.7z"/>
  <path fill="#F4FF8C" d="M148.8 133.6h-.4v.1c.2 0 .3 0 .4-.1zM140.6 137.3l-.2-.1-.4.2.3.2.3-.3M173.8 137.6l-.2-.1c.1 0 .1.1.2.1"/>
  <path fill="#BD8A17" d="M173.8 132.9v1.1l-.8-1.1zM165.9 129.2v.7l-.4-.1zM148.5 129v.9s.6-.1.6-.2c-.1-.2-.6-.7-.6-.7M139.9 132.7v.8l.8-.7z"/>
  <path fill="#F4FF8C" d="M148.8 128.9h-.4v.1c.2 0 .3 0 .4-.1zM140.6 132.6l-.2-.1-.4.2.3.2.3-.3M173.8 132.9l-.2-.1c.1 0 .1.1.2.1"/>
  <path fill="#E3B637" d="M144.6 133.9c6.7-3.7 17.7-3.7 24.5 0 3.1 1.7 4.8 3.9 5.1 6.1.3-2.7-1.4-5.4-5.1-7.4-6.8-3.7-17.7-3.7-24.5 0-3.6 2-5.3 4.7-5 7.3.3-2.2 1.9-4.3 5-6"/>
  <path fill="#D38B4A" d="M136 133.6h.7v2.9h-.7z"/>
  <path fill="#BD8A17" d="M173.8 128.2v1.1l-.8-1.1zM165.9 124.6v.6l-.4-.1zM148.5 124.3v.9s.6-.1.6-.2c-.1-.2-.6-.7-.6-.7M139.9 128v.8l.8-.7z"/>
  <path fill="#F4FF8C" d="M136.8 135.4c-.1-.7-.1-1.4 0-2.1l-.6-.1 1.7-3.3-1.9 3.7.6.1c-.1.6-.1 1.1-.1 1.7h.3zM148.8 124.2l-.4.1v.1c.2-.1.3-.1.4-.2zM140.6 127.9l-.2-.1-.4.2.3.2.3-.3M173.8 128.2l-.2-.1c.1.1.1.1.2.1M177.2 133.6v.3h.3l-.1-.3h-.2z"/>
  <path fill="#EDCA40" d="M169.1 141.4c6.7-3.7 6.7-9.7-.1-13.4-.2-.1-.3-.2-.5-.2-4.5-2.3-10.7-3.1-16.3-2.2-2.8.4-5.4 1.2-7.7 2.4-6.7 3.7-6.7 9.7.1 13.4 2.1 1.2 4.7 2 7.4 2.4 3.1.5 6.5.5 9.6.1 2.8-.5 5.4-1.3 7.5-2.5"/>
  <path fill="#E3B637" d="M161.6 143.8c.5-5.9 3.7-11.7 6.9-16.1-4.5-2.3-10.7-3.1-16.3-2.2-1.2 5.8-.9 12.4-.2 18.2 3.2.6 6.5.6 9.6.1"/>
  <path fill="#D9A12C" d="M144.7 141.4c-4.9-3.6-4.4-8.7 1.5-11.9 6.5-3.5 17-3.5 23.5 0 2.3 1.3 3.8 2.8 4.5 4.4-.3-2.2-2-4.3-5-6-6.8-3.7-17.7-3.7-24.5 0-6.9 3.7-6.8 9.7 0 13.5"/>
  <path fill="#E3B637" d="M144.6 129.2c6.7-3.7 17.7-3.7 24.5 0 3.1 1.7 4.8 3.9 5.1 6.1.3-2.6-1.4-5.4-5.1-7.4-6.8-3.7-17.7-3.7-24.5 0-3.6 2-5.3 4.7-5 7.3.3-2.2 1.9-4.3 5-6"/>
  <path fill="#F9BA7A" d="M168.7 143l5-2.6-.4-.2c.7-.6 1.4-1.1 1.9-1.8l.6.1 1.9-3.7-.6-.1c.1-.7.1-1.4 0-2l.6-.1-1.8-3.7-.6.1c-.5-.6-1.1-1.2-1.9-1.8l.4-.2-4.9-2.7-.4.2c-.9-.3-1.7-.6-2.7-.9l.2-.3-6.7-1.1-.2.3c-1.2-.1-2.5-.1-3.7-.1l-.1-.3-6.7.9.1.3c-1.1.3-2.2.6-3.3 1l-.4-.2-5 2.6.4.2c-.7.6-1.4 1.1-1.9 1.8l-.6-.1-1.9 3.7.6.1c-.1.7-.1 1.4 0 2l-.6.1 1.8 3.7.6-.1c.5.6 1.1 1.2 1.9 1.8l-.4.2 4.9 2.7.4-.2c.9.3 1.7.6 2.7.9l-.2.3 6.7 1.1.2-.3c1.2.1 2.5.1 3.7.1l.2.3 6.7-.9-.1-.3c1.1-.3 2.2-.6 3.3-1l.3.2z"/>
  <path fill="#D38B4A" d="M138.4 134.8v3.3l-.6.1v-3.4zM136 128.9h.7v2.9h-.7z"/>
  <path fill="#E0964C" d="M145.2 139.2v3.4l-.5.2v-3.3zM154.5 141.2v3.4s-.2.4-.2.3v-3.4l.2-.3zM158.3 141.3v3.3l.1.4v-3.4zM168.3 139.4v3.4l.4.2v-3.4z"/>
  <path fill="#D38B4A" d="M175.2 135v3.3l.5.1v-3.3zM177.6 129.2v3.1l-.7.2v-3.3z"/>
  <path fill="#BD8A17" d="M173.8 123.5v1.1l-.8-1.1zM165.9 119.9v.6l-.4-.1zM148.5 119.6v.9s.6-.1.6-.2c-.1-.1-.6-.7-.6-.7M139.9 123.3v.8l.8-.7z"/>
  <path fill="#DDAD4E" d="M136 131.1v3.4l1.8 3.7v-3.4z"/>
  <path fill="#F4C253" d="M139.8 136.8v3.3l4.9 2.7v-3.3z"/>
  <path fill="#FCDC7C" d="M147.7 140.4v3.4l6.6 1.1v-3.4z"/>
  <path fill="#FFCE55" d="M165.2 140.7v3.4l-6.8.9v-3.4z"/>
  <path fill="#F4C253" d="M173.7 137v3.3l-5 2.7v-3.4z"/>
  <path fill="#DDAD4E" d="M177.6 131.4v3.4l-1.9 3.6v-3.3z"/>
  <path fill="#FFCE55" d="M168.7 139.6l5-2.6-.4-.2c.7-.6 1.4-1.1 1.9-1.8l.6.1 1.9-3.7-.6-.1c.1-.7.1-1.4 0-2l.6-.1-1.8-3.7-.6.1c-.5-.6-1.1-1.2-1.9-1.8l.4-.2-4.9-2.7-.4.2c-.9-.3-1.7-.6-2.7-.9l.2-.3-6.7-1.1-.2.3c-1.2-.1-2.5-.1-3.7-.1l-.1-.3-6.7.9.1.3c-1.1.3-2.2.6-3.3 1l-.4-.2-5 2.6.4.2c-.7.6-1.4 1.1-1.9 1.8l-.6-.1-1.9 3.7.6.1c-.1.7-.1 1.4 0 2l-.6.1 1.8 3.7.6-.1c.5.6 1.1 1.2 1.9 1.8l-.4.2 4.9 2.7.4-.2c.9.3 1.7.6 2.7.9l-.2.3 6.7 1.1.2-.3c1.2.1 2.5.1 3.7.1l.2.3 6.7-.9-.1-.3c1.1-.3 2.2-.6 3.3-1l.3.2z"/>
  <path fill="#F4FF8C" d="M136.8 130.7c-.1-.7-.1-1.4 0-2.1l-.6-.1 1.7-3.3-1.9 3.7.6.1c-.1.6-.1 1.2-.1 1.7h.3zM140.5 136.2c-.7-.6-1.4-1.2-1.9-1.8l-.6.1-1.6-3.4h-.4l1.8 3.7.6-.1c.5.6 1 1.1 1.7 1.6l.4-.1zM148.8 119.6h-.4v.1c.2-.1.3-.1.4-.1zM140.6 123.2l-.2-.1-.4.2.3.2.3-.3M175.9 134.7l-.6-.1c-.5.6-1.2 1.2-1.9 1.8l.1.1c.6-.5 1.1-1 1.5-1.5l.6.1.3-.4zM173.8 123.6l-.2-.1c.1 0 .1 0 .2.1M177.2 128.9v.3h.3l-.1-.3h-.2zM158.6 141.2l-.1-.3c-1.2 0-2.5 0-3.7-.1l-.2.3-6.7-1.1.2-.3c-.9-.3-1.8-.5-2.7-.9l-.4.2-4.7-2.6-.4.2 4.9 2.7.4-.2c.9.3 1.7.6 2.7.9l-.2.3 6.7 1.1.2-.3c1.2.1 2.5.1 3.7.1l.1.3 6.8-.9-.1-.3-6.5.9zM168.9 139.3l-.4-.2c-1 .4-2.1.7-3.3 1l.1.3c1-.3 2-.6 2.9-.9l.4.2 5-2.6-.2-.1-4.5 2.3z"/>
  <path fill="#FCDC7C" d="M169.1 136.7c6.7-3.7 6.7-9.7-.1-13.4-.2-.1-.3-.2-.5-.2-4.5-2.3-10.7-3.1-16.3-2.2-2.8.4-5.4 1.2-7.7 2.4-6.7 3.7-6.7 9.7.1 13.4 2.1 1.2 4.7 2 7.4 2.4 3.1.5 6.5.5 9.6 0 2.8-.4 5.4-1.2 7.5-2.4"/>
  <path fill="#F4A855" d="M144.7 136.7c-4.9-3.6-4.4-8.7 1.5-11.9 6.5-3.5 17-3.5 23.5 0 2.3 1.3 3.8 2.8 4.5 4.4-.3-2.2-2-4.3-5-6-6.8-3.7-17.7-3.7-24.5 0-6.9 3.7-6.8 9.8 0 13.5"/>
  <path fill="#F4A855" d="M144.6 124.5c6.7-3.7 17.7-3.7 24.5 0 3.1 1.7 4.8 3.9 5.1 6.1.3-2.6-1.4-5.4-5.1-7.4-6.8-3.7-17.7-3.7-24.5 0-3.6 2-5.3 4.7-5 7.3.3-2.1 1.9-4.3 5-6"/>
  <g>
    <path fill="#FFF" d="M163.2 133.9l-10.9 1.7-6.6-3.7 3.5-5.8 10.2-2 6.5 3.7-2.7 6.1zm-10.6 1l9.7-1.5 2.6-5.6-5.7-3.3-9.2 1.8-3.2 5.2 5.8 3.4z"/>
    <path fill="#5BFF97" d="M152.3 129.8c1.6.9 4.3.3 4.4.2l-5.5-3.1c0 .1-.1 2.2 1.1 2.9zM156.6 130.1zM156.6 130.1zM151.2 126.9z"/>
    <path fill="#00B369" d="M151.2 126.9l5.5 3.1s1.2-1.6-.3-2.4l-.1-.1c-1.3-.6-5-.6-5.1-.6z"/>
    <path fill="#5BFF97" d="M151.2 126.9zM156.5 130s-1.6 0-3 1c-1.4.9 0 2.5-1.1 3 0 0 3-.2 4.7-.9 1.5-.6 1.9-1.9-.6-3.1z"/>
    <path fill="#00B369" d="M156.5 130s0-.4.6-.9c.2-.2.6-.5 1-.7 1.6-.8 4.4 0 5.3-.6 0 0-.3 1.7-1.5 2.7-.9.7-2.6 1-4.3.3-.4-.3-.8-.6-1.1-.8z"/>
    <path fill="#5BFF97" d="M165.5 135.1l-10.9 1.7.4.2 10.9-1.6 2.9-6.2-.4-.2z"/>
    <path fill="#5BFF97" d="M153.8 136.4l.4.2 10.9-1.7 2.9-6.1-.3-.3-2.9 6.2z"/>
    <path fill="#5BFF97" d="M164.4 134.5l2.9-6.2-.4-.2-2.9 6.2-11 1.6.4.3z"/>
    <path fill="#FFF" d="M156.8 130.2l-10.1 1.8-.2-.3 9.9-1.7 3-5.6h.5z"/>
    <path fill="#FFF" d="M162.9 133.5l-.3.2-6.3-3.6.3-.2z"/>
    <path fill="#FFF" d="M163.2 133.9l-10.9 1.7-6.6-3.7 3.5-5.8 10.2-2 6.5 3.7-2.7 6.1zm-10.6 1l9.7-1.5 2.6-5.6-5.7-3.3-9.2 1.8-3.2 5.2 5.8 3.4z"/>
    <path fill="#FFF" d="M162.9 133.5l-.3.2-6.3-3.6.3-.2z"/>
    <path fill="#5BFF97" d="M165.5 135.1l-10.9 1.7.4.2 10.9-1.6 2.9-6.2-.4-.2z"/>
    <path fill="#5BFF97" d="M153.8 136.4l.4.2 10.9-1.7 2.9-6.1-.3-.3-2.9 6.2z"/>
    <path fill="#5BFF97" d="M164.4 134.5l2.9-6.2-.4-.2-2.9 6.2-11 1.6.4.3z"/>
    <path fill="#FFF" d="M156.8 130.2l-10.1 1.8-.2-.3 9.9-1.7 3-5.6h.5z"/>
  </g>
  <g>
    <defs>
      <path id="SVGID_1_" d="M253.2 25.3l-74.6 44.2c-5.3 3.1-9.6 11.7-9.6 18.9v177.1c0 4 1.3 6.8 3.3 8l10.8 6.4 4.1-12.1 66-39.1c5.3-3.1 9.6-11.7 9.6-18.9v-164l1.4-4.1 6.7-10.1-10.6-6.3c-.9-.8-2-1.3-3.3-1.3-1.2.1-2.4.5-3.8 1.3"/>
    </defs>
    <clipPath id="SVGID_2_">
      <use overflow="visible" xlink:href="#SVGID_1_"/>
    </clipPath>
    <linearGradient id="SVGID_3_" x1="197.146" x2="201.202" y1="206.484" y2="206.484" gradientTransform="rotate(169 4145.954 3543.631) scale(36.9135)" gradientUnits="userSpaceOnUse">
      <stop offset="0" stop-color="#f9f9f9"/>
      <stop offset=".023" stop-color="#f5f5f5"/>
      <stop offset=".636" stop-color="#e6ecef"/>
      <stop offset=".667" stop-color="#d3e7f2"/>
      <stop offset=".679" stop-color="#cde3ef"/>
      <stop offset=".694" stop-color="#bdd8e7"/>
      <stop offset=".701" stop-color="#b3d1e2"/>
      <stop offset=".96" stop-color="#b3d1e2"/>
      <stop offset="1" stop-color="#b3d1e2"/>
    </linearGradient>
    <path fill="url(#SVGID_3_)" d="M267.2 6L118.4 33.4l54.2 264.7 148.7-27.5z" clip-path="url(#SVGID_2_)"/>
    <g>
      <defs>
        <path id="SVGID_4_" d="M168.9 24.1h105v256.6h-105z"/>
      </defs>
      <clipPath id="SVGID_5_">
        <use overflow="visible" xlink:href="#SVGID_4_"/>
      </clipPath>
      <path fill="#C4DDED" d="M176.9 270.3V93.2c0-7.3 4.3-15.8 9.6-18.9L261.2 30c2.1-1.2 4-1.4 5.5-.9l1.4.9s.1 0 .1.1l2.6 1.5-6.7 10.1-1.4 4.1v164c0 7.3-4.4 15.8-9.6 18.9l-66 39.1-4.1 12.1-2.9-1.7c-1.9-1.2-3.2-4-3.2-7.9" clip-path="url(#SVGID_5_)"/>
      <path fill="#42B7E5" d="M176.7 262.9V93.1l3.2 1.9v169.7z" clip-path="url(#SVGID_5_)"/>
      <path fill="#FFF" d="M264.2 235.3l-74.7 44.2c-5.3 3.1-9.6-.2-9.6-7.5V94.9c0-7.3 4.3-15.8 9.6-18.9l74.7-44.2c5.3-3.1 9.6.2 9.6 7.5v177.1c0 7.3-4.3 15.8-9.6 18.9" clip-path="url(#SVGID_5_)"/>
      <path fill="#42B7E5" d="M179.9 264.7V94.9l93.9-55.7V209l-93.9 55.7z" clip-path="url(#SVGID_5_)"/>
      <path fill="#3F3E3E" d="M200.3 76.8c0-1.6 1.1-3.6 2.5-4.4 1.4-.8 2.5-.2 2.5 1.5 0 1.6-1.1 3.6-2.5 4.4-1.4.7-2.5.1-2.5-1.5" clip-path="url(#SVGID_5_)"/>
      <path fill="#484746" d="M208.6 71.4c0-1.1.8-2.5 1.7-3 .9-.6 1.7-.1 1.7 1s-.8 2.5-1.7 3c-1 .6-1.7.1-1.7-1" clip-path="url(#SVGID_5_)"/>
      <path fill="#D3E4FE" d="M219 245.7l17.5-10.4c2.2-1.3 3.9.1 3.9 3.1s-1.8 6.4-3.9 7.7L219 256.5c-2.2 1.3-3.9-.1-3.9-3.1-.1-2.9 1.7-6.4 3.9-7.7" clip-path="url(#SVGID_5_)"/>
      <path fill="#C4DDED" d="M217 255.4l17.5-10.4c2.2-1.3 3.9-4.8 3.9-7.7 0-1-.2-1.8-.5-2.4 1.5-.1 2.5 1.3 2.5 3.5 0 3-1.8 6.4-3.9 7.7L219 256.5c-1.5.9-2.7.5-3.4-.7.4 0 .9-.1 1.4-.4" clip-path="url(#SVGID_5_)"/>
      <path fill="#5BC5F7" d="M179.9 262.9V96.8l93.9-55.7v166.2z" clip-path="url(#SVGID_5_)"/>
      <path fill="#42B7E5" d="M177.6 261.6V95.4l2.3 1.4v166.1z" clip-path="url(#SVGID_5_)"/>
      <path fill="#9FDEF7" d="M179.9 96.8v21.4l94-55.7V41.1z" clip-path="url(#SVGID_5_)"/>
      <path fill="#FBFBFB" d="M189.3 99.4v5.8l30.2-18.1v-5.8z" clip-path="url(#SVGID_5_)"/>
      <path fill="#9FDEF7" d="M187.8 172v15.1l78.7-43.1v-15.1z" clip-path="url(#SVGID_5_)"/>
      <path fill="#FFF" d="M210.9 167.5c0 1.6-1.2 3.7-2.7 4.5-1.5.8-2.7.2-2.7-1.5 0-1.6 1.2-3.7 2.7-4.5 1.5-.8 2.7-.1 2.7 1.5M218.1 163.6c0 1.7-1.2 3.7-2.7 4.5-1.5.8-2.7.2-2.7-1.5 0-1.6 1.2-3.7 2.7-4.5 1.5-.8 2.7-.2 2.7 1.5M225.3 159.6c0 1.6-1.2 3.7-2.7 4.5-1.5.8-2.7.2-2.7-1.5s1.2-3.7 2.7-4.5c1.4-.8 2.7-.1 2.7 1.5M232.4 155.7c0 1.6-1.2 3.7-2.7 4.5-1.5.8-2.7.2-2.7-1.5 0-1.6 1.2-3.7 2.7-4.5 1.5-.8 2.7-.1 2.7 1.5M239.6 151.8c0 1.6-1.2 3.6-2.7 4.5-1.5.8-2.7.2-2.7-1.5 0-1.6 1.2-3.7 2.7-4.5 1.5-.8 2.7-.2 2.7 1.5M246.8 147.8c0 1.6-1.2 3.7-2.7 4.5-1.5.8-2.7.2-2.7-1.5s1.2-3.7 2.7-4.5c1.5-.8 2.7-.1 2.7 1.5" clip-path="url(#SVGID_5_)"/>
      <path fill="#73D0F4" d="M194.9 200.4v11.1l30.4-16.7v-11z" clip-path="url(#SVGID_5_)"/>
      <path fill="#FBDC7B" d="M229 181.3v11.1l30.4-16.7v-11.1z" clip-path="url(#SVGID_5_)"/>
      <path fill="#9FDEF7" d="M187.8 148.8v15.1l78.7-43.1v-15.1z" clip-path="url(#SVGID_5_)"/>
      <path fill="#FFF" d="M210.6 140.6v6.9l3.2-1.8v1.2l-4.4 2.5v-8.1zM222.4 138.2c0 2.3-1.7 5.1-4 6.3-2.2 1.2-4 .4-4-1.9s1.7-5 4-6.3c2.2-1.2 4-.4 4 1.9m-6.7 3.6c0 1.6 1.2 2.2 2.7 1.4 1.5-.8 2.7-2.7 2.7-4.3 0-1.6-1.2-2.2-2.7-1.4-1.5.8-2.7 2.7-2.7 4.3M228.5 134.9l1.1-.6v3c-.8 1-1.9 2.1-2.9 2.7-2.2 1.2-3.9.4-3.9-2 0-2.3 1.7-5 4-6.3 1.1-.6 2.1-.7 2.9-.4l-.7 1.4c-.6-.3-1.4-.2-2.2.3-1.5.8-2.7 2.8-2.7 4.4 0 1.6 1.2 2.2 2.7 1.4.6-.3 1.2-.9 1.7-1.5v-2.4zM232.7 128.5v8.1l-1.3.7v-8.1zM235.9 126.7l4 3.7v-5.9l1.2-.7v8.2l-1.2.6-4-3.6v5.8l-1.3.7v-8.1z" clip-path="url(#SVGID_5_)"/>
    </g>
  </g>
  <g opacity=".08">
    <path d="M372.8 234.5l-47.2 26 44.4 24 47.2-25.6z"/>
    <path d="M370 289.1c-.8 0-1.6-.2-2.4-.6l-44.4-24.1c-1.5-.8-2.4-2.3-2.4-4 0-1.6.9-3.2 2.4-4l47.2-25.9c1.5-.8 3.3-.8 4.8 0l44.4 24.4c1.5.8 2.4 2.3 2.4 4 0 1.6-.9 3.1-2.4 4l-47.2 25.6c-.7.4-1.6.6-2.4.6zm-34.8-28.7l34.8 18.8 37.5-20.4-34.7-19.1-37.6 20.7z"/>
  </g>
  <g>
    <path fill="#FFDB59" d="M268.8 241.4l-47.2 25.9 44.4 24.1 47.2-25.6-44.4-24.4z"/>
  </g>
  <path fill="#F49C00" d="M266.1 291.2v8l-20.4-10.7-5.9-3.2-18.2-9.6v-8.4z"/>
  <g>
    <path fill="#FCCB3E" d="M266.1 291.1l-.1 8.1 47.3-25.1v-8.3l-47.2 25.3z"/>
  </g>
  <g opacity=".5">
    <path fill="#6499A0" d="M268.9 243l-41.4 22.7 38.9 21.1 41.3-22.5-38.8-21.3z"/>
  </g>
  <g>
    <path fill="#FFDB59" d="M268.8 224.6l-47.2 25.9 44.4 24.1 47.2-25.6-44.4-24.4z"/>
  </g>
  <path fill="#F49C00" d="M266.1 274.4v8.1l-20.4-10.8-5.9-3.1-18.2-9.7v-8.4z"/>
  <g>
    <path fill="#FCCB3E" d="M266.1 274.4l-.1 8.1 47.3-25.1v-8.3l-47.2 25.3z"/>
  </g>
  <g opacity=".5">
    <path fill="#6499A0" d="M268.9 226.2L227.5 249l38.9 21.1 41.3-22.5-38.8-21.4z"/>
  </g>
  <g>
    <path fill="#FFDB59" d="M268.8 207.9l-47.2 25.9 44.4 24.1 47.2-25.6-44.4-24.4z"/>
  </g>
  <path fill="#F49C00" d="M266.1 257.7v8l-20.4-10.8-5.9-3.1-18.2-9.6v-8.4z"/>
  <g>
    <path fill="#FCCB3E" d="M266.1 257.6l-.1 8.1 47.3-25.1v-8.3l-47.2 25.3z"/>
  </g>
  <g opacity=".5">
    <path fill="#6499A0" d="M268.9 209.5l-41.4 22.7 38.9 21.1 41.3-22.5-38.8-21.3z"/>
  </g>
  <g>
    <path fill="#FFDB59" d="M268.8 191.1L221.6 217l44.4 24.1 47.2-25.6-44.4-24.4z"/>
  </g>
  <path fill="#F49C00" d="M266.1 240.9v8.1l-20.4-10.8-5.9-3.1-18.2-9.7V217z"/>
  <g>
    <path fill="#FCCB3E" d="M266.1 240.9l-.1 8.1 47.3-25.1v-8.3l-47.2 25.3z"/>
  </g>
  <g opacity=".5">
    <path fill="#6499A0" d="M268.9 192.7l-41.4 22.7 38.9 21.1 41.3-22.5-38.8-21.3z"/>
  </g>
  <g>
    <path fill="#FFDB59" d="M268.8 174.3l-47.2 25.9 44.4 24.1 47.2-25.6-44.4-24.4z"/>
  </g>
  <path fill="#F49C00" d="M266.1 224.1v8.1l-20.4-10.8-5.9-3.1-18.2-9.7v-8.3z"/>
  <g>
    <path fill="#FCCB3E" d="M266.1 224.1l-.1 8.1 47.3-25.1v-8.3l-47.2 25.3z"/>
  </g>
  <g opacity=".5">
    <path fill="#6499A0" d="M268.9 176l-41.4 22.7 38.9 21.1 41.3-22.5-38.8-21.3z"/>
  </g>
  <g>
    <path fill="#FFDB59" d="M268.8 157.6l-47.2 25.9 44.4 24.1 47.2-25.6-44.4-24.4z"/>
  </g>
  <path fill="#F49C00" d="M266.1 207.4v8.1l-20.4-10.8-5.9-3.2-18.2-9.6v-8.4z"/>
  <g>
    <path fill="#FCCB3E" d="M266.1 207.4l-.1 8.1 47.3-25.1v-8.3l-47.2 25.3z"/>
  </g>
  <g opacity=".6">
    <path fill="#FFF" d="M269.4 176.7l-10 5.7-3.7-2.1c-2-1.2-2-3 0-4.2 2-1.2 5.3-1.2 7.3 0l2.1 1.2c.3.2.8.2 1 0l2.1-1.2c.3-.2.3-.4 0-.6l-2.1-1.2c-3.8-2.1-9.9-2.1-13.6 0-3.8 2.1-3.8 5.6 0 7.8l3.7 2.1c-1 .8-.8 1.9.5 2.7l9.4 5.4c1.4.8 3.8.8 5.2 0l12.6-7.2c1.4-.8 1.4-2.2 0-3l-9.4-5.4c-1.3-.8-3.6-.8-5.1 0zm3 7.6l3.2 1.4c.2.1.3.2.3.3 0 .1-.1.2-.2.3l-2.1 1.2c-.2.1-.4.1-.6.1-.2 0-.4-.1-.5-.2l-2.4-1.8c-1.3.2-2.8.1-3.8-.5-1.4-.8-1.4-2.2 0-3 1.4-.8 3.8-.8 5.2 0 1 .6 1.4 1.4.9 2.2z"/>
  </g>
  <g>
    <path fill="#5CFF96" d="M374.6 220l-47.2 26 44.4 24.1 47.2-25.6-44.4-24.5z"/>
    <path fill="#00B269" d="M372 269.8l-.1 8.1-20.3-10.8-6-3.1-18.2-9.7V246z"/>
    <path fill="#48D372" d="M372 269.8l-.1 8.1 47.3-25.1v-8.3L372 269.8z"/>
  </g>
  <g opacity=".5">
    <path fill="#6499A0" d="M374.7 221.7l-41.4 22.7 38.9 21.1 41.3-22.5-38.8-21.3z"/>
  </g>
  <g>
    <path fill="#5CFF96" d="M374.6 203.3l-47.2 25.9 44.4 24.1 47.2-25.6-44.4-24.4z"/>
    <path fill="#00B269" d="M372 253.1l-.1 8-20.3-10.7-6-3.2-18.2-9.6v-8.4z"/>
    <path fill="#48D372" d="M372 253.1l-.1 8.1 47.3-25.1v-8.3L372 253.1z"/>
  </g>
  <g opacity=".5">
    <path fill="#6499A0" d="M374.7 204.9l-41.4 22.7 38.9 21.1 41.3-22.5-38.8-21.3z"/>
  </g>
  <g>
    <path fill="#5CFF96" d="M374.6 186.5l-47.2 25.9 44.4 24.1 47.2-25.6-44.4-24.4z"/>
    <path fill="#00B269" d="M372 236.3l-.1 8.1-20.3-10.8-6-3.1-18.2-9.7v-8.3z"/>
    <path fill="#48D372" d="M372 236.3l-.1 8.1 47.3-25.1V211L372 236.3z"/>
  </g>
  <g opacity=".5">
    <path fill="#6499A0" d="M374.7 188.2l-41.4 22.7 38.9 21.1 41.3-22.5-38.8-21.3z"/>
  </g>
  <g>
    <path fill="#5CFF96" d="M374.6 169.8l-47.2 25.9 44.4 24.1 47.2-25.6-44.4-24.4z"/>
    <path fill="#00B269" d="M372 219.6l-.1 8-20.3-10.7-6-3.2-18.2-9.6v-8.4z"/>
    <path fill="#48D372" d="M372 219.5l-.1 8.1 47.3-25.1v-8.3L372 219.5z"/>
  </g>
  <g opacity=".5">
    <path fill="#6499A0" d="M374.7 171.4l-41.4 22.7 38.9 21.1 41.3-22.5-38.8-21.3z"/>
  </g>
  <g>
    <path fill="#5CFF96" d="M374.6 153l-47.2 26 44.4 24.1 47.2-25.6-44.4-24.5z"/>
    <path fill="#00B269" d="M372 202.8l-.1 8.1-20.3-10.8-6-3.1-18.2-9.7V179z"/>
    <path fill="#48D372" d="M372 202.8l-.1 8.1 47.3-25.1v-8.3L372 202.8z"/>
  </g>
  <g opacity=".5">
    <path fill="#6499A0" d="M374.7 154.6l-41.4 22.7 38.9 21.1 41.3-22.5-38.8-21.3z"/>
  </g>
  <g>
    <path fill="#5CFF96" d="M374.6 136.3l-47.2 25.9 44.4 24.1 47.2-25.6-44.4-24.4z"/>
    <path fill="#00B269" d="M372 186.1l-.1 8-20.3-10.7-6-3.2-18.2-9.6v-8.4z"/>
    <path fill="#48D372" d="M372 186l-.1 8.1 47.3-25.1v-8.3L372 186z"/>
  </g>
  <g opacity=".6">
    <path fill="#FFF" d="M376 155.4l-3.5-2c-3.6-2-9.4-2-12.9 0-3.6 2-3.6 5.3 0 7.4l3.5 2c-.9.8-.8 1.8.4 2.5l8.9 5.1c1.4.8 3.6.8 5 0l11.9-6.8c1.4-.8 1.4-2.1 0-2.8l-8.9-5.1c-1.1-.7-3-.8-4.4-.3zm2.3 7.4l3.1 1.3c.2.1.3.2.3.3 0 .1-.1.2-.2.3l-2 1.1c-.1.1-.3.1-.5.1s-.4-.1-.5-.2l-2.3-1.7c-1.2.2-2.7.1-3.6-.5-1.4-.8-1.4-2.1 0-2.8s3.6-.8 5 0c.8.6 1.1 1.4.7 2.1zm-5.3-5.7l-7 4-3.5-2c-1.9-1.1-1.9-2.9 0-4s5-1.1 7 0l3.5 2z"/>
  </g>
  <g>
    <path fill="#D2E3FD" d="M70.4 257.3l77.3-42.7 18.4 30.1-77.3 42.7z"/>
    <defs>
      <path id="SVGID_6_" d="M50.8 190.4h153.4v120.4H50.8z"/>
    </defs>
    <clipPath id="SVGID_7_">
      <use overflow="visible" xlink:href="#SVGID_6_"/>
    </clipPath>
    <path fill="#FFF" d="M127.3 220.8s-1.1 50.5-1.4 50.5-1.4-50.5-1.4-50.5c0 .2.1.4.4.6.6.3 1.5.3 2 0 .2-.2.4-.4.4-.6" clip-path="url(#SVGID_7_)"/>
    <path fill="#E0E0E2" d="M126.9 220.3c.6.3.6.8 0 1.1-.6.3-1.5.3-2 0-.6-.3-.6-.8 0-1.1.5-.4 1.4-.4 2 0" clip-path="url(#SVGID_7_)"/>
    <path fill="#E95152" d="M125.8 190.4c10.7 0 19.3 8.2 19.3 18.4s-8.7 18.4-19.3 18.4c-10.7 0-19.3-8.2-19.3-18.4s8.7-18.4 19.3-18.4" clip-path="url(#SVGID_7_)"/>
    <path fill="#F46970" d="M119 195.2c5 0 9 3.8 9 8.5s-4 8.5-9 8.5-9-3.8-9-8.5 4-8.5 9-8.5" clip-path="url(#SVGID_7_)"/>
    <path fill="#E1EDFF" d="M107.2 277.3l77.3-42.7 19.6 32.2-77.3 42.7z" clip-path="url(#SVGID_7_)"/>
    <path fill="#B3D1E1" d="M107.2 277.3l19.6 32.2-2.5 1.3-17.1-28-18.4 10.1-18.4-30.2-17.1 9.3-2.5-3.9 19.6-10.8 18.4 30z" clip-path="url(#SVGID_7_)"/>
  </g>
  <g>
    <defs>
      <path id="SVGID_8_" d="M238.2 0h116.3v108.3H238.2z"/>
    </defs>
    <clipPath id="SVGID_9_">
      <use overflow="visible" xlink:href="#SVGID_8_"/>
    </clipPath>
    <g clip-path="url(#SVGID_9_)">
      <defs>
        <path id="SVGID_10_" d="M238.2 22.3h75.1v64.2h-75.1z"/>
      </defs>
      <clipPath id="SVGID_11_">
        <use overflow="visible" xlink:href="#SVGID_10_"/>
      </clipPath>
      <g clip-path="url(#SVGID_11_)">
        <defs>
          <path id="SVGID_12_" d="M238.2 22.3h75.1v64.2h-75.1z"/>
        </defs>
        <clipPath id="SVGID_13_">
          <use overflow="visible" xlink:href="#SVGID_12_"/>
        </clipPath>
        <g clip-path="url(#SVGID_13_)">
          <defs>
            <path id="SVGID_14_" d="M290.6 26.4h19.8v7.8h-19.8z"/>
          </defs>
          <clipPath id="SVGID_15_">
            <use overflow="visible" xlink:href="#SVGID_14_"/>
          </clipPath>
          <path fill="#D84141" d="M305.1 27.3c-1.6-.9-3.6-1.2-5.9-.7-1.4.3-2.9.8-4.4 1.7-1.5.8-2.9 1.8-4.2 3l5.4 3c1.3-1.2 2.7-2.2 4.2-3 1.5-.8 3-1.4 4.4-1.7 2.2-.4 4.2-.2 5.9.7l-5.4-3z" clip-path="url(#SVGID_15_)"/>
        </g>
        <g clip-path="url(#SVGID_13_)">
          <defs>
            <path id="SVGID_16_" d="M238.2 22.3h52.2V86h-52.2z"/>
          </defs>
          <clipPath id="SVGID_17_">
            <use overflow="visible" xlink:href="#SVGID_16_"/>
          </clipPath>
          <path fill="#D84141" d="M285.1 23.3c-1.9-1-4.2-1.3-6.8-.8-1.6.3-3.3 1-5.1 1.9-2.9 1.6-5.7 4-8.1 6.7-4.4 5.1-7.6 11.7-8.3 17.8-1.3.3-2.7.8-4.2 1.6-2.5 1.4-4.9 3.4-7 5.8-4.4 5.1-7.4 11.9-7.4 17.8 0 4.3 1.6 7.4 4.2 8.8l5.4 3c-2.6-1.4-4.2-4.5-4.2-8.8 0-5.9 3-12.7 7.4-17.8 2.1-2.4 4.4-4.4 7-5.8 1.5-.8 2.9-1.3 4.2-1.6.8-6.1 3.9-12.7 8.3-17.8 2.4-2.8 5.2-5.1 8.1-6.7 1.8-1 3.5-1.6 5.1-1.9 2.6-.5 4.9-.2 6.8.8l-5.4-3z" clip-path="url(#SVGID_17_)"/>
        </g>
        <g clip-path="url(#SVGID_13_)">
          <defs>
            <path id="SVGID_18_" d="M243.2 24.8h70.2v61.6h-70.2z"/>
          </defs>
          <clipPath id="SVGID_19_">
            <use overflow="visible" xlink:href="#SVGID_18_"/>
          </clipPath>
          <path fill="#E85151" d="M278.2 27c8.3-4.6 15.3-1.7 16.5 6.4 1.3-1.2 2.7-2.2 4.2-3 8-4.4 14.4-.9 14.5 7.8 0 8.7-6.4 19.3-14.4 23.6l-41.3 22.7c-8 4.4-14.4.9-14.5-7.8 0-8.7 6.4-19.3 14.4-23.6 1.5-.8 2.9-1.3 4.2-1.6 1.1-9.4 8-19.9 16.4-24.5" clip-path="url(#SVGID_19_)"/>
        </g>
      </g>
    </g>
    <g clip-path="url(#SVGID_9_)">
      <defs>
        <path id="SVGID_20_" d="M279.9 26.1h74.6v64.2h-74.6z"/>
      </defs>
      <clipPath id="SVGID_21_">
        <use overflow="visible" xlink:href="#SVGID_20_"/>
      </clipPath>
      <g clip-path="url(#SVGID_21_)">
        <defs>
          <path id="SVGID_22_" d="M279.9 26.1h74.6v64.2h-74.6z"/>
        </defs>
        <clipPath id="SVGID_23_">
          <use overflow="visible" xlink:href="#SVGID_22_"/>
        </clipPath>
        <g clip-path="url(#SVGID_23_)">
          <defs>
            <path id="SVGID_24_" d="M331.4 29.8h19.8v7.8h-19.8z"/>
          </defs>
          <clipPath id="SVGID_25_">
            <use overflow="visible" xlink:href="#SVGID_24_"/>
          </clipPath>
          <path fill="#F8B879" d="M345.9 30.7c-1.6-.9-3.6-1.2-5.9-.7-1.4.3-2.9.8-4.4 1.7-1.5.8-2.9 1.8-4.2 3l5.4 3c1.3-1.2 2.7-2.2 4.2-3 1.5-.8 3-1.4 4.4-1.7 2.2-.4 4.2-.2 5.9.7l-5.4-3z" clip-path="url(#SVGID_25_)"/>
        </g>
        <g clip-path="url(#SVGID_23_)">
          <defs>
            <path id="SVGID_26_" d="M279.9 26.1h52.2v63.7h-52.2z"/>
          </defs>
          <clipPath id="SVGID_27_">
            <use overflow="visible" xlink:href="#SVGID_26_"/>
          </clipPath>
          <path fill="#F8B879" d="M326.8 27.1c-1.9-1-4.2-1.3-6.8-.8-1.6.3-3.3 1-5.1 1.9-2.9 1.6-5.7 3.9-8.1 6.7-4.4 5.1-7.6 11.7-8.3 17.8-1.3.3-2.7.8-4.2 1.6-2.5 1.4-4.9 3.4-7 5.8-4.4 5.1-7.4 11.9-7.4 17.8 0 4.3 1.6 7.4 4.2 8.8l5.4 3c-2.6-1.4-4.2-4.5-4.2-8.8 0-5.9 3-12.7 7.4-17.8 2.1-2.4 4.4-4.4 7-5.8 1.5-.8 2.9-1.3 4.2-1.6.8-6.1 3.9-12.7 8.3-17.8 2.4-2.8 5.1-5.1 8.1-6.7 1.8-1 3.5-1.6 5.1-1.9 2.6-.5 4.9-.2 6.8.8l-5.4-3z" clip-path="url(#SVGID_27_)"/>
        </g>
        <g clip-path="url(#SVGID_23_)">
          <defs>
            <path id="SVGID_28_" d="M284.4 28.6h70.2v61.6h-70.2z"/>
          </defs>
          <clipPath id="SVGID_29_">
            <use overflow="visible" xlink:href="#SVGID_28_"/>
          </clipPath>
          <path fill="#FADC7A" d="M319.4 30.8c8.3-4.6 15.3-1.7 16.5 6.4 1.3-1.2 2.7-2.2 4.2-3 8-4.4 14.4-.9 14.5 7.8 0 8.7-6.4 19.3-14.4 23.6l-41.3 22.7c-8 4.4-14.4.9-14.5-7.8 0-8.7 6.4-19.3 14.4-23.6 1.5-.8 2.9-1.3 4.2-1.6 1.2-9.4 8-19.9 16.4-24.5" clip-path="url(#SVGID_29_)"/>
        </g>
      </g>
    </g>
    <path fill="#42FCFB" fill-rule="evenodd" d="M273.3 98.1l1.8-.9c.6.9 1.2 1.8 1.9 2.7l-1.6 1.1c-.8-.9-1.5-1.8-2.1-2.9M270.7 92.4l2-.5c.3 1 .7 2.1 1.2 3.1l-1.9.7c-.5-1.1-.9-2.2-1.3-3.3M269.3 86.3l2-.2c.2 1.1.4 2.2.6 3.2l-2 .4c-.2-1.1-.4-2.2-.6-3.4M289.8 108.3l.1-1.9h1.7c.6-.1 1.1-.1 1.7-.2l.4 1.9c-.6.1-1.3.1-1.9.2-.7.1-1.3 0-2 0M283.2 106.7l.8-1.7c1.1.4 2.2.8 3.3 1l-.5 1.8c-1.2-.2-2.4-.6-3.6-1.1M277.5 103.2l1.4-1.3c.4.4.8.7 1.3 1 .4.3.9.6 1.4.9l-1.1 1.6c-.6-.3-1.1-.6-1.6-1s-1-.8-1.4-1.2M307.3 100l-1.6-1.2c.8-.8 1.5-1.7 2.1-2.6l1.7 1.1c-.7.9-1.4 1.9-2.2 2.7M302.6 104.4l-1.3-1.5c.9-.7 1.8-1.4 2.6-2.2l1.5 1.3c-.9.9-1.8 1.7-2.8 2.4M296.7 107.5l-.7-1.8c.5-.2 1-.4 1.6-.6l1.5-.8 1.1 1.6c-.5.3-1.1.6-1.7.8-.6.3-1.2.6-1.8.8M311.2 95l-1.8-1c.6-.9 1.2-1.9 1.8-2.9l1.8.9-1.8 3M329.6 10.2l-1.8.9c-.6-.9-1.2-1.8-1.9-2.7l1.6-1.1c.8.9 1.5 1.9 2.1 2.9M332.2 16l-2 .5c-.3-1-.7-2.1-1.2-3.1l1.9-.7c.6 1.1 1 2.2 1.3 3.3M333.7 22l-2 .2c-.2-1.1-.4-2.2-.6-3.2l2-.4c.2 1.2.4 2.3.6 3.4M313.1 0l-.1 1.9h-1.7c-.6.1-1.1.1-1.7.1l-.4-1.9c.6-.1 1.3-.1 1.9-.2.7.1 1.4.1 2 .1M319.8 1.6l-.8 1.7c-1.1-.4-2.2-.8-3.3-1l.5-1.8c1.2.3 2.4.7 3.6 1.1M325.5 5.2L324 6.5c-.4-.4-.8-.7-1.3-1-.4-.3-.9-.6-1.4-.9l1.1-1.6c.6.3 1.1.6 1.6 1s1 .7 1.5 1.2M295.6 8.3l1.6 1.2c-.8.8-1.5 1.7-2.1 2.6l-1.7-1.1c.7-.9 1.4-1.8 2.2-2.7M300.4 4l1.3 1.5c-.9.7-1.8 1.4-2.6 2.2l-1.5-1.3c.9-.9 1.8-1.7 2.8-2.4M306.2.9l.7 1.8c-.5.2-1 .4-1.6.6l-1.4.7-1.1-1.6c.5-.3 1.1-.6 1.7-.8.6-.3 1.1-.5 1.7-.7M291.8 13.3l1.8 1c-.6.9-1.2 1.9-1.8 2.9l-1.8-.9c.5-1 1.1-2 1.8-3" clip-path="url(#SVGID_9_)" clip-rule="evenodd"/>
  </g>
  <g>
    <path fill="#C4DDEC" d="M295.5 139.8v7.2h-5.9v-7.2z"/>
    <defs>
      <path id="SVGID_30_" d="M278.3 132.5H320v30.1h-41.7z"/>
    </defs>
    <clipPath id="SVGID_31_">
      <use overflow="visible" xlink:href="#SVGID_30_"/>
    </clipPath>
    <path fill="#C4DDEC" d="M289.6 139.8v7.2c-1.8 0-3.5-.4-4.7-1.1-1.2-.7-1.9-1.6-1.9-2.6v-7.2c0 1 .8 1.9 2 2.6 1.1.7 2.8 1.1 4.6 1.1" clip-path="url(#SVGID_31_)"/>
    <path fill="#0D7DA8" d="M306.7 149.2v7.2-10.5z" clip-path="url(#SVGID_31_)"/>
    <path fill="#C4DDEC" d="M313.4 152.8c-1.8 0-3.5-.4-4.7-1.1-1.2-.7-1.9-1.6-2-2.6v7.2c0 1 .7 1.9 1.9 2.6 1.2.7 2.9 1.1 4.7 1.1 3.7 0 6.6-1.6 6.6-3.6v-7.2c.1 2-2.9 3.6-6.5 3.6M291.8 154.2c-3.1 1.7-8.1 1.7-11.2 0-1.6-.9-2.3-2-2.3-3.1v7.2c0 1.1.8 2.2 2.3 3.1 3.1 1.7 8.1 1.7 11.2 0l14.9-8.2V146l-14.9 8.2z" clip-path="url(#SVGID_31_)"/>
    <path fill="#F5F5F5" d="M317.9 133.9c1.2.7 1.9 1.6 1.9 2.6l.1 12.8c0 2-2.9 3.6-6.6 3.6-1.8 0-3.5-.4-4.7-1.1-1.2-.7-1.9-1.6-1.9-2.6v-3.3l-14.9 8.2c-3.1 1.7-8.1 1.7-11.2 0-3.1-1.7-3.1-4.4 0-6.1l14.9-8.2h-5.9c-1.8 0-3.5-.4-4.7-1.1-1.2-.7-1.9-1.6-2-2.6 0-2 2.9-3.6 6.6-3.6h23.2c1.8 0 3.5.4 4.7 1.1.1 0 .2.1.2.1.2.1.2.1.3.2" clip-path="url(#SVGID_31_)"/>
  </g>
  <g>
    <path fill="#9CB5CC" d="M154 125.4l1.5.9.1-36.1-1.5-.9z"/>
    <defs>
      <path id="SVGID_32_" d="M52.3 38.1H176v164.7H52.3z"/>
    </defs>
    <clipPath id="SVGID_33_">
      <use overflow="visible" xlink:href="#SVGID_32_"/>
    </clipPath>
    <path fill="#9CB5CC" d="M154 90.1l-1.5-.8c-.4-.2-.7-.7-.9-1.3l1.5.8c.1.6.4 1 .9 1.3" clip-path="url(#SVGID_33_)"/>
    <path fill="#D7E7F7" d="M153.1 87.2l-1.5-.8c.2-1.1.8-2.3 1.6-3.3l1.5.8c-.8.9-1.4 2.1-1.6 3.3" clip-path="url(#SVGID_33_)"/>
    <path fill="#D7E7F7" d="M154.7 83.9l-1.5-.8c.5-.5 1-1 1.6-1.3.4-.2.7-.3 1-.4l1.5.8c-.3.1-.7.2-1 .4-.6.3-1.1.7-1.6 1.3M157.3 82.2l-1.5-.8c.5-.1 1 0 1.4.2l1.5.8c-.4-.2-.8-.3-1.4-.2" clip-path="url(#SVGID_33_)"/>
    <path fill="#9CB5CC" d="M108.8 158.8l1.5.8.1-44.9-1.5-.8z"/>
    <path fill="#D7E7F7" d="M114.4 108.2l-1.5-.8 38.7-21.1 1.5.9z"/>
    <path fill="#9CB5CC" d="M65.1 173.8l1.5.8.1-36.1-1.5-.9z"/>
    <path fill="#D7E7F7" d="M70.7 131.9l-1.5-.8 37.2-20.2 1.5.8z"/>
    <path fill="#9CB5CC" d="M108.9 106.8l1.5.8V62.7l-1.4-.8z"/>
    <path fill="#D7E7F7" d="M110.4 62.7l-1.4-.8 1.5-.8 1.4.8z"/>
    <path fill="#F8F9FC" d="M111.9 61.9l-.1 44.9c1.2-.4 2.2.2 2.5 1.4l38.7-21c.4-1.8 1.7-3.7 3.3-4.6 1.8-1 3.3-.2 3.3 1.8 0 1.7-1.1 3.8-2.6 4.9v36.1l-1.5.8V90.1c-1.2.4-2.2-.2-2.5-1.4l-38.7 21c-.3 1.5-1.3 3.1-2.5 4.1l-.1 44.9-1.5.8.1-44.9c-1.2.4-2.2-.2-2.5-1.4l-37.2 20.2c-.3 1.5-1.3 3.1-2.5 4.1v36.1l-1.5.8v-36.1c-1.5.4-2.6-.4-2.6-2.1 0-2 1.5-4.5 3.3-5.5 1.6-.9 2.9-.4 3.2 1.1l37.2-20.2c.3-1.5 1.3-3.1 2.5-4.1l.1-44.9 1.6-.7z"/>
    <path fill="#D7E7F7" d="M65 138.4l-1.5-.8c-.6-.3-1-1-1-2 0-1.4.7-3 1.7-4.1l1.5.8c-1 1.2-1.7 2.8-1.7 4.1.1.9.4 1.6 1 2M65.8 132.2l-1.5-.8c.5-.5 1-1 1.6-1.3.4-.2.7-.3 1-.4l1.5.8c-.3.1-.7.2-1 .4-.6.3-1.1.8-1.6 1.3"/>
    <path fill="#D7E7F7" d="M68.4 130.5l-1.5-.8c.5-.1 1 0 1.4.2l1.5.8c-.4-.2-.9-.3-1.4-.2"/>
    <path fill="#F2A92E" d="M91.3 88l-3-1.7c-.4-.2-.6-.6-.6-1.3l3 1.7c0 .6.2 1.1.6 1.3"/>
    <path fill="#D1AC80" d="M127.7 40l-3-1.7c.2-.1.5-.2.7-.2l3 1.7c-.2 0-.4.1-.7.2m.7-.2c.3-.1.6 0 .9.1l-3-1.7c-.2-.1-.5-.2-.9-.1l3 1.7zm-.7.2l-3-1.7-16.7 9.1 3 1.7 16.7-9.1zm-20.5 6.4c.3-.1.5-.2.8-.3l-3-1.7c-.3.1-.5.1-.8.3l3 1.7zm.8-.3c.5-.1 1 0 1.4.2l-3-1.7c-.4-.2-.9-.3-1.4-.2l3 1.7zm-18.2 12l-3-1.7.9 28.6 3 1.7-.9-28.6zm17.4-11.7l-3-1.7L89 52.9l3 1.7 15.2-8.2zM89.8 58.1c0-.9.5-1.9 1.1-2.7l-3-1.7c-.7.8-1.1 1.8-1.1 2.7l3 1.7zm1.1-2.7c.3-.4.7-.7 1.1-.9l-3-1.7c-.4.2-.7.5-1.1.9l3 1.7z"/>
    <path fill="#EAC89B" d="M92 54.5l15.2-8.1c1.2-.6 2.4-.4 2.8.6l.9 2.1 16.8-9.1c1.2-.7 2.2-.1 2.2 1.2l-1 24.7c0 1.3-.9 2.8-2.1 3.4l-34 18.5c-1.2.6-2.1.1-2.1-1.1l-.9-28.6c0-1.3 1-2.9 2.2-3.6"/>
  </g>
  <g>
    <path fill="#BD8A17" d="M76.2 195.1v.6l-.5-.1zM58.7 194.8v.9s.6-.1.6-.2c-.1-.1-.6-.7-.6-.7"/>
    <path fill="#F4FF8C" d="M59.1 194.8h-.4v.1c.1 0 .2-.1.4-.1z"/>
    <path fill="#BD8A17" d="M76.2 190.4v.6l-.5-.1zM58.7 190.1v.9s.6-.1.6-.2c-.1-.1-.6-.7-.6-.7"/>
    <path fill="#F4FF8C" d="M59.1 190.1l-.4.1v.1c.1-.1.2-.2.4-.2z"/>
    <path fill="#BD8A17" d="M84 189.4v1l-.8-1zM76.2 185.7v.6l-.5-.1zM58.7 185.5v.9s.6-.1.6-.2c-.1-.2-.6-.7-.6-.7M50.2 189.2v.8l.7-.7z"/>
    <path fill="#F4FF8C" d="M59.1 185.4h-.4v.1c.1 0 .2 0 .4-.1zM50.8 189.1l-.2-.1-.4.2.3.2c.1-.2.2-.3.3-.3M84 189.4l-.2-.1c.1 0 .1.1.2.1"/>
    <path fill="#BD8A17" d="M84 184.7v1.1l-.8-1.1zM76.2 181v.6h-.5zM58.7 180.8v.9s.6-.1.6-.2c-.1-.2-.6-.7-.6-.7M50.2 184.5v.8l.7-.7z"/>
    <path fill="#F4FF8C" d="M59.1 180.7h-.4v.1c.1 0 .2 0 .4-.1zM50.8 184.4l-.2-.1-.4.2.3.2.3-.3M84 184.7l-.2-.1c.1 0 .1.1.2.1"/>
    <path fill="#E3B637" d="M54.8 185.7c6.7-3.7 17.7-3.7 24.5 0 3.1 1.7 4.8 3.9 5.1 6.1.3-2.7-1.4-5.4-5.1-7.4-6.8-3.7-17.7-3.7-24.5 0-3.6 2-5.3 4.7-5 7.3.3-2.2 2-4.3 5-6"/>
    <path fill="#D38B4A" d="M46.2 185.4h.7v2.9h-.7z"/>
    <path fill="#BD8A17" d="M84 180v1.1l-.8-1.1zM76.2 176.3v.7l-.5-.1zM58.7 176.1v.9s.6-.1.6-.2c-.1-.2-.6-.7-.6-.7M50.2 179.8v.8l.7-.7z"/>
    <path fill="#F4FF8C" d="M47 187.2c-.1-.7-.1-1.4 0-2.1l-.6-.1 1.7-3.3-1.9 3.7.6.1c-.1.6-.1 1.1-.1 1.7h.3zM59.1 176l-.4.1v.1c.1-.1.2-.1.4-.2zM50.8 179.7l-.2-.1-.4.2.3.2.3-.3M84 180l-.2-.1c.1 0 .1.1.2.1M87.5 185.4v.3h.3l-.1-.3h-.2z"/>
    <path fill="#EDCA40" d="M79.3 193.2c6.7-3.7 6.7-9.7-.1-13.4-.2-.1-.3-.2-.5-.2-4.5-2.3-10.7-3.1-16.3-2.2-2.8.4-5.4 1.2-7.7 2.4-6.7 3.7-6.7 9.7.1 13.4 2.1 1.2 4.7 2 7.4 2.4 3.1.5 6.5.5 9.6.1 2.8-.5 5.4-1.3 7.5-2.5"/>
    <path fill="#E3B637" d="M71.8 195.6c.5-5.9 3.7-11.7 6.9-16.1-4.5-2.3-10.7-3.1-16.3-2.2-1.2 5.8-.9 12.4-.2 18.2 3.2.5 6.5.6 9.6.1"/>
    <path fill="#D9A12C" d="M54.9 193.1s0 .1 0 0c-4.9-3.6-4.4-8.7 1.5-11.9 6.5-3.5 17-3.5 23.5 0 2.3 1.3 3.8 2.8 4.5 4.4-.3-2.2-2-4.3-5-6-6.8-3.7-17.7-3.7-24.5 0-6.8 3.8-6.8 9.8 0 13.5"/>
    <path fill="#E3B637" d="M54.8 181c6.7-3.7 17.7-3.7 24.5 0 3.1 1.7 4.8 3.9 5.1 6.1.3-2.6-1.4-5.4-5.1-7.4-6.8-3.7-17.7-3.7-24.5 0-3.6 2-5.3 4.7-5 7.3.3-2.2 2-4.3 5-6"/>
    <path fill="#F9BA7A" d="M78.9 194.8l5-2.6-.4-.2c.7-.6 1.4-1.1 1.9-1.8l.6.1 1.9-3.7-.6-.1c.1-.7.1-1.4 0-2l.6-.1-1.8-3.7-.6.1c-.5-.6-1.1-1.2-1.9-1.8l.4-.2-4.9-2.7-.4.2c-.9-.3-1.7-.6-2.7-.9l.2-.3-6.7-1.1-.2.3c-1.2-.1-2.5-.1-3.7-.1l-.1-.3-6.7.9.1.3c-1.1.3-2.2.6-3.3 1l-.4-.2-5 2.6.4.2c-.7.6-1.4 1.1-1.9 1.8l-.6-.1-1.9 3.7.6.1c-.1.7-.1 1.4 0 2l-.6.1L48 190l.6-.1c.5.6 1.1 1.2 1.9 1.8l-.4.2 4.9 2.7.4-.2c.9.3 1.7.6 2.7.9l-.2.3 6.7 1.1.2-.3c1.2.1 2.5.1 3.7.1l.2.3 6.7-.9-.1-.3c1.1-.3 2.2-.6 3.3-1l.3.2z"/>
    <path fill="#D38B4A" d="M48.6 186.5v3.4l-.6.1v-3.4zM46.2 180.7h.7v2.9h-.7z"/>
    <path fill="#E0964C" d="M55.4 191v3.4l-.4.2v-3.3zM64.8 193v3.4s-.2.4-.2.3v-3.4l.2-.3zM68.5 193.1v3.3l.1.4v-3.4zM78.5 191.2v3.3l.4.3v-3.4z"/>
    <path fill="#D38B4A" d="M85.4 186.8v3.3l.6.1v-3.3zM87.8 181v3.1l-.7.2V181z"/>
    <path fill="#BD8A17" d="M84 175.3v1.1l-.8-1.1zM76.2 171.7v.6l-.5-.1zM58.7 171.4v.9s.6-.1.6-.2c-.1-.1-.6-.7-.6-.7M50.2 175.1v.8l.7-.7z"/>
    <path fill="#DDAD4E" d="M46.2 182.9v3.4L48 190v-3.4z"/>
    <path fill="#F4C253" d="M50 188.6v3.3l5 2.7v-3.3z"/>
    <path fill="#FCDC7C" d="M57.9 192.2v3.4l6.7 1.1v-3.4z"/>
    <path fill="#FFCE55" d="M75.4 192.5v3.4l-6.8.9v-3.4z"/>
    <path fill="#F4C253" d="M83.9 188.8v3.3l-5 2.7v-3.4z"/>
    <path fill="#DDAD4E" d="M87.8 183.2v3.4l-1.8 3.6v-3.3z"/>
    <path fill="#FFCE55" d="M78.9 191.4l5-2.6-.4-.2c.7-.6 1.4-1.1 1.9-1.8l.6.1 1.9-3.7-.6-.1c.1-.7.1-1.4 0-2l.6-.1-1.8-3.7-.6.1c-.5-.6-1.1-1.2-1.9-1.8l.4-.2-4.9-2.7-.4.2c-.9-.3-1.7-.6-2.7-.9l.2-.3-6.7-1.1-.2.3c-1.2-.1-2.5-.1-3.7-.1l-.1-.3-6.7.9.1.3c-1.1.3-2.2.6-3.3 1l-.4-.2-5 2.6.4.2c-.7.6-1.4 1.1-1.9 1.8l-.6-.1-1.9 3.7.6.1c-.1.7-.1 1.4 0 2l-.6.1 1.8 3.7.6-.1c.5.6 1.1 1.2 1.9 1.8l-.4.2 4.9 2.7.4-.2c.9.3 1.7.6 2.7.9l-.2.3 6.7 1.1.2-.3c1.2.1 2.5.1 3.7.1l.2.3 6.7-.9-.1-.3c1.1-.3 2.2-.6 3.3-1l.3.2z"/>
    <path fill="#F4FF8C" d="M47 182.5c-.1-.7-.1-1.4 0-2.1l-.6-.1 1.7-3.3-1.9 3.7.6.1c-.1.6-.1 1.2-.1 1.7h.3zM50.7 188c-.7-.6-1.4-1.2-1.9-1.8l-.6.1-1.6-3.4h-.4l1.8 3.7.6-.1c.5.6 1 1.1 1.7 1.6l.4-.1zM59.1 171.4h-.4v.1c.1-.1.2-.1.4-.1zM50.8 175l-.2-.1-.4.2.3.2.3-.3M86.2 186.5l-.6-.1c-.5.6-1.2 1.2-1.9 1.8l.1.1c.6-.5 1.1-1 1.5-1.5l.6.1.3-.4zM84 175.4l-.2-.1c.1 0 .1 0 .2.1M87.5 180.7v.3h.3l-.1-.3h-.2zM68.9 193l-.1-.3c-1.2 0-2.5 0-3.7-.1l-.2.3-6.7-1.1.2-.3c-.9-.3-1.8-.5-2.7-.9l-.4.2-4.7-2.6-.4.2 4.9 2.7.4-.2c.9.3 1.7.6 2.7.9l-.2.3 6.7 1.1.2-.3c1.2.1 2.5.1 3.7.1l.1.3 6.8-.9-.1-.3-6.5.9zM79.2 191.1l-.4-.2c-1 .4-2.1.7-3.3 1l.1.3c1-.3 2-.6 2.9-.9l.4.2 5-2.6-.2-.1-4.5 2.3z"/>
    <path fill="#FCDC7C" d="M79.3 188.5c6.7-3.7 6.7-9.7-.1-13.4-.2-.1-.3-.2-.5-.2-4.5-2.3-10.7-3.1-16.3-2.2-2.8.4-5.4 1.2-7.7 2.4-6.7 3.7-6.7 9.7.1 13.4 2.1 1.2 4.7 2 7.4 2.4 3.1.5 6.5.5 9.6 0 2.8-.4 5.4-1.2 7.5-2.4"/>
    <path fill="#F4A855" d="M54.9 188.5c-4.9-3.6-4.4-8.7 1.5-11.9 6.5-3.5 17-3.5 23.5 0 2.3 1.3 3.8 2.8 4.5 4.4-.3-2.2-2-4.3-5-6-6.8-3.7-17.7-3.7-24.5 0-6.8 3.7-6.8 9.7 0 13.5"/>
    <path fill="#F4A855" d="M54.8 176.3c6.7-3.7 17.7-3.7 24.5 0 3.1 1.7 4.8 3.9 5.1 6.1.3-2.6-1.4-5.4-5.1-7.4-6.8-3.7-17.7-3.7-24.5 0-3.6 2-5.3 4.7-5 7.3.3-2.1 2-4.3 5-6"/>
  </g>
  <g>
    <path fill="#FFF" d="M73.4 185.6l-10.9 1.7-6.6-3.7 3.5-5.8 10.2-2 6.5 3.7-2.7 6.1zm-10.5 1.1l9.7-1.5 2.6-5.6-5.7-3.3-9.2 1.8-3.2 5.2 5.8 3.4z"/>
    <path fill="#5BFF97" d="M62.5 181.6c1.6.9 4.3.3 4.4.2l-5.5-3.1c0 .1-.1 2.2 1.1 2.9zM66.9 181.8zM66.9 181.8zM61.4 178.7z"/>
    <path fill="#00B369" d="M61.4 178.7l5.5 3.1s1.2-1.6-.3-2.4l-.1-.1c-1.2-.6-5-.6-5.1-.6z"/>
    <path fill="#5BFF97" d="M61.4 178.7zM66.7 181.8s-1.6 0-3 1c-1.4.9 0 2.5-1.1 3 0 0 3-.2 4.7-.9 1.5-.6 1.9-1.9-.6-3.1z"/>
    <path fill="#00B369" d="M66.7 181.7s0-.4.6-.9c.2-.2.6-.5 1-.7 1.6-.8 4.4 0 5.3-.6 0 0-.3 1.7-1.5 2.7-.9.7-2.6 1-4.3.3-.4-.2-.7-.5-1.1-.8z"/>
    <path fill="#5BFF97" d="M75.8 186.9l-11 1.7.4.2 10.9-1.6L79 181l-.3-.2z"/>
    <path fill="#5BFF97" d="M64 188.2l.4.2 11-1.7 2.9-6.2-.4-.2-2.9 6.2z"/>
    <path fill="#5BFF97" d="M74.6 186.3l2.9-6.2-.4-.2-2.9 6.2-10.9 1.6.4.2z"/>
    <path fill="#FFF" d="M67 182l-10.1 1.7-.1-.2 9.8-1.7 3.1-5.6h.4z"/>
    <path fill="#FFF" d="M73.2 185.3l-.3.2-6.4-3.6.3-.2z"/>
    <path fill="#FFF" d="M73.4 185.6l-10.9 1.7-6.6-3.7 3.5-5.8 10.2-2 6.5 3.7-2.7 6.1zm-10.5 1.1l9.7-1.5 2.6-5.6-5.7-3.3-9.2 1.8-3.2 5.2 5.8 3.4z"/>
    <path fill="#FFF" d="M73.2 185.3l-.3.2-6.4-3.6.3-.2z"/>
    <path fill="#5BFF97" d="M75.8 186.9l-11 1.7.4.2 10.9-1.6L79 181l-.3-.2z"/>
    <path fill="#5BFF97" d="M64 188.2l.4.2 11-1.7 2.9-6.2-.4-.2-2.9 6.2z"/>
    <path fill="#5BFF97" d="M74.6 186.3l2.9-6.2-.4-.2-2.9 6.2-10.9 1.6.4.2z"/>
    <path fill="#FFF" d="M67 182l-10.1 1.7-.1-.2 9.8-1.7 3.1-5.6h.4z"/>
  </g>
  <g>
    <path fill="#BD8A17" d="M124.3 167.7v.6l-.5-.1zM106.8 167.4v.9s.6-.1.6-.2c-.1-.1-.6-.7-.6-.7"/>
    <path fill="#F4FF8C" d="M107.1 167.4h-.4v.1c.2-.1.3-.1.4-.1z"/>
    <path fill="#BD8A17" d="M124.3 163v.6l-.5-.1zM106.8 162.7v.9s.6-.1.6-.2c-.1-.1-.6-.7-.6-.7"/>
    <path fill="#F4FF8C" d="M107.1 162.7l-.4.1v.1c.2-.1.3-.2.4-.2z"/>
    <path fill="#BD8A17" d="M132.1 162v1l-.8-1zM124.3 158.3v.6l-.5-.1zM106.8 158v.9s.6-.1.6-.2c-.1-.1-.6-.7-.6-.7M98.3 161.8v.8l.7-.8z"/>
    <path fill="#F4FF8C" d="M107.1 158h-.4v.1c.2 0 .3-.1.4-.1zM98.9 161.6l-.2-.1-.4.2.3.2.3-.3M132.1 162l-.2-.1c.1 0 .1 0 .2.1"/>
    <path fill="#BD8A17" d="M132.1 157.3v1l-.8-1zM124.3 153.6v.6l-.5-.1zM106.8 153.4v.9s.6-.1.6-.2c-.1-.2-.6-.7-.6-.7M98.3 157.1v.8l.7-.7z"/>
    <path fill="#F4FF8C" d="M107.1 153.3h-.4v.1c.2 0 .3 0 .4-.1zM98.9 157l-.2-.1-.4.2.3.2c.1-.2.2-.2.3-.3M132.1 157.3l-.2-.1c.1 0 .1.1.2.1"/>
    <path fill="#E3B637" d="M102.9 158.3c6.7-3.7 17.7-3.7 24.5 0 3.1 1.7 4.8 3.9 5.1 6.1.3-2.7-1.4-5.4-5.1-7.4-6.8-3.7-17.7-3.7-24.5 0-3.6 2-5.3 4.7-5 7.3.3-2.2 1.9-4.4 5-6"/>
    <path fill="#D38B4A" d="M94.3 158h.7v2.9h-.7z"/>
    <path fill="#BD8A17" d="M132.1 152.6v1.1l-.8-1.1zM124.3 148.9v.6h-.5zM106.8 148.7v.9s.6-.1.6-.2c-.1-.2-.6-.7-.6-.7M98.3 152.4v.8l.7-.7z"/>
    <path fill="#F4FF8C" d="M95.1 159.8c-.1-.7-.1-1.4 0-2.1l-.6-.1 1.7-3.3-1.9 3.7.6.1c-.1.6-.1 1.1-.1 1.7h.3zM107.1 148.6l-.4.1v.1c.2-.1.3-.1.4-.2zM98.9 152.3l-.2-.1-.4.2.3.2.3-.3M132.1 152.6l-.2-.1c.1 0 .1.1.2.1M135.6 157.9v.3h.3l-.1-.3h-.2z"/>
    <path fill="#EDCA40" d="M127.4 165.8c6.7-3.7 6.7-9.7-.1-13.4-.2-.1-.3-.2-.5-.2-4.5-2.3-10.7-3.1-16.3-2.2-2.8.4-5.4 1.2-7.7 2.4-6.7 3.7-6.7 9.7.1 13.4 2.1 1.2 4.7 2 7.4 2.4 3.1.5 6.5.5 9.6.1 2.8-.5 5.4-1.4 7.5-2.5"/>
    <path fill="#E3B637" d="M119.9 168.2c.5-5.9 3.7-11.7 6.9-16.1-4.5-2.3-10.7-3.1-16.3-2.2-1.2 5.8-.9 12.4-.2 18.2 3.2.5 6.5.5 9.6.1"/>
    <path fill="#D9A12C" d="M103 165.7c-4.9-3.6-4.4-8.7 1.5-11.9 6.5-3.5 17-3.5 23.5 0 2.3 1.3 3.8 2.8 4.5 4.4-.3-2.2-2-4.3-5-6-6.8-3.7-17.7-3.7-24.5 0-6.8 3.8-6.8 9.8 0 13.5"/>
    <path fill="#E3B637" d="M102.9 153.6c6.7-3.7 17.7-3.7 24.5 0 3.1 1.7 4.8 3.9 5.1 6.1.3-2.6-1.4-5.4-5.1-7.4-6.8-3.7-17.7-3.7-24.5 0-3.6 2-5.3 4.7-5 7.3.3-2.2 1.9-4.3 5-6"/>
    <path fill="#F9BA7A" d="M127 167.4l5-2.6-.4-.2c.7-.6 1.4-1.1 1.9-1.8l.6.1 1.9-3.7-.6-.1c.1-.7.1-1.4 0-2l.6-.1-1.8-3.7-.6.1c-.5-.6-1.1-1.2-1.9-1.8l.4-.2-4.9-2.7-.4.2c-.9-.3-1.7-.6-2.7-.9l.2-.3-6.7-1.1-.2.3c-1.2-.1-2.5-.1-3.7-.1l-.1-.3-6.7.9.1.3c-1.1.3-2.2.6-3.3 1l-.4-.2-5 2.6.4.2c-.7.6-1.4 1.1-1.9 1.8l-.6-.1-1.9 3.7.6.1c-.1.7-.1 1.4 0 2l-.6.1 1.8 3.7.6-.1c.5.6 1.1 1.2 1.9 1.8l-.4.2 4.9 2.7.4-.2c.9.3 1.7.6 2.7.9l-.2.3 6.7 1.1.2-.3c1.2.1 2.5.1 3.7.1l.2.3 6.7-.9-.1-.3c1.1-.3 2.2-.6 3.3-1l.3.2z"/>
    <path fill="#D38B4A" d="M96.7 159.1v3.4l-.6.1v-3.4zM94.3 153.3h.7v2.9h-.7z"/>
    <path fill="#E0964C" d="M103.5 163.6v3.4l-.4.2v-3.3zM112.8 165.6v3.4s-.2.4-.2.3v-3.4l.2-.3zM116.6 165.6v3.4l.1.3V166zM126.6 163.8v3.3l.4.3V164z"/>
    <path fill="#D38B4A" d="M133.5 159.3v3.4l.6.1v-3.4zM135.9 153.5v3.2l-.7.2v-3.4z"/>
    <path fill="#BD8A17" d="M132.1 147.9v1.1l-.8-1.1zM124.3 144.2v.7l-.5-.1zM106.8 144v.9s.6-.1.6-.2c-.1-.2-.6-.7-.6-.7M98.3 147.7v.8l.7-.7z"/>
    <path fill="#DDAD4E" d="M94.3 155.5v3.4l1.8 3.7v-3.4z"/>
    <path fill="#F4C253" d="M98.1 161.1v3.4l5 2.7v-3.3z"/>
    <path fill="#FCDC7C" d="M106 164.8v3.4l6.7 1.1v-3.4z"/>
    <path fill="#FFCE55" d="M123.5 165.1v3.3l-6.8.9V166z"/>
    <path fill="#F4C253" d="M132 161.4v3.3l-5 2.7V164z"/>
    <path fill="#DDAD4E" d="M135.9 155.8v3.3l-1.8 3.7v-3.4z"/>
    <path fill="#FFCE55" d="M127 164l5-2.6-.4-.2c.7-.6 1.4-1.1 1.9-1.8l.6.1 1.9-3.7-.6-.1c.1-.7.1-1.4 0-2l.6-.1-1.8-3.7-.6.1c-.5-.6-1.1-1.2-1.9-1.8l.4-.2-4.9-2.7-.4.2c-.9-.3-1.7-.6-2.7-.9l.2-.3-6.7-1.1-.2.3c-1.2-.1-2.5-.1-3.7-.1l-.1-.3-6.7.9.1.3c-1.1.3-2.2.6-3.3 1l-.4-.2-5 2.6.4.2c-.7.6-1.4 1.1-1.9 1.8l-.6-.1-1.9 3.7.6.1c-.1.7-.1 1.4 0 2l-.6.1 1.8 3.7.6-.1c.5.6 1.1 1.2 1.9 1.8l-.4.2 4.9 2.7.4-.2c.9.3 1.7.6 2.7.9l-.2.3 6.7 1.1.2-.3c1.2.1 2.5.1 3.7.1l.2.3 6.7-.9-.1-.3c1.1-.3 2.2-.6 3.3-1l.3.2z"/>
    <path fill="#F4FF8C" d="M95.1 155.1c-.1-.7-.1-1.4 0-2.1l-.6-.1 1.7-3.3-1.9 3.7.6.1c-.1.6-.1 1.2-.1 1.7h.3zM98.8 160.5c-.7-.6-1.4-1.2-1.9-1.8l-.6.1-1.6-3.4h-.4l1.8 3.7.6-.1c.5.6 1 1.1 1.7 1.6l.4-.1zM107.1 143.9h-.4v.1c.2 0 .3 0 .4-.1zM98.9 147.6l-.2-.1-.4.2.3.2.3-.3M134.3 159.1l-.6-.1c-.5.6-1.2 1.2-1.9 1.8l.1.1c.6-.5 1.1-1 1.5-1.5l.6.1.3-.4zM132.1 147.9l-.2-.1c.1 0 .1.1.2.1M135.6 153.3v.3h.3l-.1-.3h-.2zM117 165.6l-.1-.3c-1.2 0-2.5 0-3.7-.1l-.2.3-6.7-1.1.2-.3c-.9-.3-1.8-.5-2.7-.9l-.4.2-4.7-2.6-.4.2 4.9 2.7.4-.2c.9.3 1.7.6 2.7.9l-.2.3 6.7 1.1.2-.3c1.2.1 2.5.1 3.7.1l.1.3 6.8-.9-.1-.3-6.5.9zM127.2 163.6l-.4-.2c-1 .4-2.1.7-3.3 1l.1.3c1-.3 2-.6 2.9-.9l.4.2 5-2.6-.2-.1-4.5 2.3z"/>
    <path fill="#FCDC7C" d="M127.4 161.1c6.7-3.7 6.7-9.7-.1-13.4-.2-.1-.3-.2-.5-.2-4.5-2.3-10.7-3.1-16.3-2.2-2.8.4-5.4 1.2-7.7 2.4-6.7 3.7-6.7 9.7.1 13.4 2.1 1.2 4.7 2 7.4 2.4 3.1.5 6.5.5 9.6 0 2.8-.4 5.4-1.2 7.5-2.4"/>
    <path fill="#F4A855" d="M103 161c-4.9-3.6-4.4-8.7 1.5-11.9 6.5-3.5 17-3.5 23.5 0 2.3 1.3 3.8 2.8 4.5 4.4-.3-2.2-2-4.3-5-6-6.8-3.7-17.7-3.7-24.5 0-6.8 3.8-6.8 9.8 0 13.5"/>
    <path fill="#F4A855" d="M102.9 148.9c6.7-3.7 17.7-3.7 24.5 0 3.1 1.7 4.8 3.9 5.1 6.1.3-2.6-1.4-5.4-5.1-7.4-6.8-3.7-17.7-3.7-24.5 0-3.6 2-5.3 4.7-5 7.3.3-2.2 1.9-4.3 5-6"/>
    <g>
      <path fill="#FFF" d="M121.5 158.2l-10.9 1.7-6.6-3.7 3.5-5.8 10.2-2 6.5 3.7-2.7 6.1zm-10.5 1.1l9.7-1.5 2.6-5.6-5.7-3.3-9.2 1.8-3.2 5.2 5.8 3.4z"/>
      <path fill="#5BFF97" d="M110.6 154.2c1.6.9 4.3.3 4.4.2l-5.5-3.1c0 .1-.1 2.2 1.1 2.9zM115 154.4zM115 154.4zM109.5 151.3z"/>
      <path fill="#00B369" d="M109.5 151.3l5.5 3.1s1.2-1.6-.3-2.4l-.1-.1c-1.3-.6-5-.6-5.1-.6z"/>
      <path fill="#5BFF97" d="M109.5 151.3zM114.8 154.4s-1.6 0-3 1c-1.4.9 0 2.5-1.1 3 0 0 3-.2 4.7-.9 1.5-.6 1.9-2-.6-3.1z"/>
      <path fill="#00B369" d="M114.8 154.3s0-.4.6-.9c.2-.2.6-.5 1-.7 1.6-.8 4.4 0 5.3-.6 0 0-.3 1.7-1.5 2.7-.9.7-2.6 1-4.3.3-.4-.2-.7-.5-1.1-.8z"/>
      <path fill="#5BFF97" d="M123.9 159.5l-11 1.7.4.2 10.9-1.7 2.9-6.1-.3-.2z"/>
      <path fill="#5BFF97" d="M112.1 160.7l.4.3 11-1.7 2.9-6.2-.4-.2-2.9 6.2z"/>
      <path fill="#5BFF97" d="M122.7 158.9l2.9-6.2-.4-.2-2.9 6.1-10.9 1.7.3.2z"/>
      <path fill="#FFF" d="M115.1 154.6l-10.1 1.7-.1-.2 9.8-1.7 3.1-5.7.4.1z"/>
      <path fill="#FFF" d="M121.3 157.9l-.3.2-6.4-3.7.3-.1z"/>
      <path fill="#FFF" d="M121.5 158.2l-10.9 1.7-6.6-3.7 3.5-5.8 10.2-2 6.5 3.7-2.7 6.1zm-10.5 1.1l9.7-1.5 2.6-5.6-5.7-3.3-9.2 1.8-3.2 5.2 5.8 3.4z"/>
      <path fill="#FFF" d="M121.3 157.9l-.3.2-6.4-3.7.3-.1z"/>
      <path fill="#5BFF97" d="M123.9 159.5l-11 1.7.4.2 10.9-1.7 2.9-6.1-.3-.2z"/>
      <path fill="#5BFF97" d="M112.1 160.7l.4.3 11-1.7 2.9-6.2-.4-.2-2.9 6.2z"/>
      <path fill="#5BFF97" d="M122.7 158.9l2.9-6.2-.4-.2-2.9 6.1-10.9 1.7.3.2z"/>
      <path fill="#FFF" d="M115.1 154.6l-10.1 1.7-.1-.2 9.8-1.7 3.1-5.7.4.1z"/>
    </g>
  </g>
</svg>
