<svg xmlns="http://www.w3.org/2000/svg" xmlns:xlink="http://www.w3.org/1999/xlink" viewBox="0 0 362 338">
  <g opacity=".08">
    <path fill-rule="evenodd" d="M357.5 197.7l-63.7-38.4-.2.2-63.6-38.3L4.5 257l63.7 38.3.3-.1 63.5 38.3z" clip-rule="evenodd"/>
    <path d="M132 338c-.8 0-1.6-.2-2.3-.6l-62.4-37.6c-.5-.1-1-.3-1.4-.6L2.2 260.9C.8 260.1 0 258.6 0 257s.8-3.1 2.2-3.9l225.5-135.8c1.4-.9 3.2-.9 4.7 0l62.4 37.6c.5.1 1 .3 1.4.6l63.7 38.3c1.4.8 2.2 2.3 2.2 3.9s-.8 3.1-2.2 3.9L134.3 337.4c-.7.4-1.5.6-2.3.6zm-62.6-47.3c.5.1 1 .3 1.4.6l61.2 36.9 216.6-130.5-56-33.7c-.5-.1-1-.3-1.4-.6L230 126.5 13.4 257l56 33.7z"/>
  </g>
  <defs>
    <path id="SVGID_1_" d="M157 190.1l-57.5 33.2-1.7.3-4.9-.4v2.2c-.2 1 .3 1.9 1.4 2.6l31 17.9c2.2 1.3 6.1 1.1 8.6-.4l62.1-35.9c1.4-.8 2.1-1.8 2.1-2.8v-2.3l-5.1 1-27.4-15.9c-1-.6-2.3-.9-3.7-.9-1.7.1-3.5.6-4.9 1.4"/>
  </defs>
  <clipPath id="SVGID_2_">
    <use overflow="visible" xlink:href="#SVGID_1_"/>
  </clipPath>
  <linearGradient id="SVGID_3_" x1="129.996" x2="132.48" y1="230.426" y2="230.426" gradientTransform="rotate(180 2853.824 4992.03) scale(42.3825)" gradientUnits="userSpaceOnUse">
    <stop offset="0" stop-color="#f9f9f9"/>
    <stop offset=".023" stop-color="#f5f5f5"/>
    <stop offset=".636" stop-color="#e6ecef"/>
    <stop offset=".667" stop-color="#d3e7f2"/>
    <stop offset=".679" stop-color="#cde3ef"/>
    <stop offset=".694" stop-color="#bdd8e7"/>
    <stop offset=".701" stop-color="#b3d1e2"/>
    <stop offset=".96" stop-color="#b3d1e2"/>
    <stop offset="1" stop-color="#b3d1e2"/>
  </linearGradient>
  <path fill="url(#SVGID_3_)" d="M92.7 188.8h105.4v58.4H92.7z" clip-path="url(#SVGID_2_)"/>
  <defs>
    <path id="SVGID_4_" d="M28.9 0h260.8v310.2H28.9z"/>
  </defs>
  <clipPath id="SVGID_5_">
    <use overflow="visible" xlink:href="#SVGID_4_"/>
  </clipPath>
  <path fill="#D3E4FE" d="M165.6 184.4l31 17.9c2.2 1.3 1.9 3.5-.6 5l-62.1 35.9c-2.5 1.5-6.4 1.6-8.6.4l-31-17.9c-2.2-1.3-1.9-3.5.6-5l62.1-35.9c2.5-1.5 6.4-1.7 8.6-.4" clip-path="url(#SVGID_5_)"/>
  <path fill="#B3D1E2" d="M153.9 202.1l-35.4 20.4 8.8-27 35.4-20.4z" clip-path="url(#SVGID_5_)"/>
  <path fill="#C4DDED" d="M118.5 222.5l-7.1-4.6 8.8-27 7.1 4.6z" clip-path="url(#SVGID_5_)"/>
  <path fill="#F5F5F5" d="M228.6 144.3L62.7 240.2V100L228.6 4.1z" clip-path="url(#SVGID_5_)"/>
  <path fill="#C4DDED" d="M62.7 100v140.2l-7-4.1V95.9z" clip-path="url(#SVGID_5_)"/>
  <path fill="#EEF5FF" d="M228.6 4.1L62.7 100l-7-4.1L221.5 0z" clip-path="url(#SVGID_5_)"/>
  <path fill="#1697C4" d="M62.7 101.2v124.2l165.9-95.9V5.3z" clip-path="url(#SVGID_5_)"/>
  <path fill="#1DABEB" d="M226.4 10.6v116.6L65 220.5V104z" clip-path="url(#SVGID_5_)"/>
  <path fill="#9FDEF7" d="M226.4 10.6v19.2L65 123.2V104z" clip-path="url(#SVGID_5_)"/>
  <path fill="#FBFBFB" d="M72.9 106.3v5.2l25.9-15v-5.2z" clip-path="url(#SVGID_5_)"/>
  <defs>
    <path id="SVGID_6_" d="M276.8 41.2l-46.4 29c-3.3 2.1-6 7.6-6 12.4v116.1c0 2.6.8 4.4 2.1 5.2l6.7 4.2 2.6-7.9 41.1-25.6c3.3-2.1 6-7.6 6-12.4V54.7l.9-2.7 4.1-6.6-6.6-4.1c-.6-.5-1.3-.8-2-.8-.9-.1-1.7.2-2.5.7"/>
  </defs>
  <clipPath id="SVGID_7_">
    <use overflow="visible" xlink:href="#SVGID_6_"/>
  </clipPath>
  <linearGradient id="SVGID_8_" x1="128.171" x2="130.657" y1="231.664" y2="231.664" gradientTransform="rotate(169 2922.47 4120.227) scale(36.9135)" gradientUnits="userSpaceOnUse">
    <stop offset="0" stop-color="#f9f9f9"/>
    <stop offset=".023" stop-color="#f5f5f5"/>
    <stop offset=".636" stop-color="#e6ecef"/>
    <stop offset=".667" stop-color="#d3e7f2"/>
    <stop offset=".679" stop-color="#cde3ef"/>
    <stop offset=".694" stop-color="#bdd8e7"/>
    <stop offset=".701" stop-color="#b3d1e2"/>
    <stop offset=".96" stop-color="#b3d1e2"/>
    <stop offset="1" stop-color="#b3d1e2"/>
  </linearGradient>
  <path fill="url(#SVGID_8_)" d="M285.5 28.5l-92.5 18L226.7 220l92.5-18z" clip-path="url(#SVGID_7_)"/>
  <path fill="#C4DDED" d="M229.3 201.8V85.7c0-4.8 2.7-10.3 6-12.4l46.4-29c1.3-.8 2.5-.9 3.4-.6l.9.6.1.1 1.6 1-4.1 6.6-.9 2.7v107.5c0 4.8-2.7 10.3-6 12.4l-41.1 25.6-2.6 7.9-1.8-1.1c-1.1-.8-1.9-2.6-1.9-5.2"/>
  <path fill="#42B7E5" d="M229.2 196.9V85.6l2 1.3v111.3z"/>
  <path fill="#FFF" d="M283.6 178.9l-46.4 29c-3.3 2.1-6-.1-6-4.9V86.9c0-4.8 2.7-10.3 6-12.4l46.4-29c3.3-2.1 6 .1 6 4.9v116.1c0 4.7-2.7 10.3-6 12.4"/>
  <path fill="#42B7E5" d="M231.2 198.2V86.9l58.4-36.5V161.7l-58.4 36.5z"/>
  <path fill="#3F3E3E" d="M243.9 74.9c0-1.1.7-2.4 1.5-2.9.9-.5 1.5-.1 1.5 1s-.7 2.3-1.5 2.9c-.8.5-1.5.1-1.5-1"/>
  <path fill="#484746" d="M249 71.4c0-.7.5-1.6 1.1-2 .6-.4 1.1-.1 1.1.7 0 .7-.5 1.6-1.1 2-.6.4-1.1.1-1.1-.7"/>
  <path fill="#D3E4FE" d="M255.5 185.7l10.9-6.8c1.4-.8 2.4.1 2.4 2s-1.1 4.2-2.4 5.1l-10.9 6.8c-1.4.8-2.5-.1-2.5-2 .1-2 1.2-4.3 2.5-5.1"/>
  <path fill="#C4DDED" d="M254.3 192l10.9-6.8c1.4-.8 2.4-3.1 2.4-5.1 0-.6-.1-1.2-.3-1.6.9 0 1.5.8 1.5 2.3 0 2-1.1 4.2-2.5 5.1l-10.9 6.8c-.9.6-1.7.3-2.1-.4.4 0 .7-.1 1-.3"/>
  <path fill="#5BC5F7" d="M231.2 197V88.1l58.4-36.5v108.9z"/>
  <path fill="#42B7E5" d="M229.7 196.1l.1-108.9 1.4.9V197z"/>
  <path fill="#9FDEF7" d="M231.2 88.1v14l58.5-36.5v-14z"/>
  <path fill="#FBFBFB" d="M237 89.7v3.8l18.9-11.8v-3.8z"/>
  <path fill="#F9BA7A" d="M203 279.7l7.6-4.3-.7-.4c1.1-.9 2.1-1.8 2.9-2.8l.9.1 2.8-5.9-.9-.2c.2-1.1.2-2.2 0-3.3l.9-.1-2.7-5.9-.9.1c-.8-1-1.7-1.9-2.9-2.9l.7-.4-7.5-4.3-.7.4c-1.3-.5-2.7-1-4.1-1.4l.3-.5-10.2-1.8-.3.5c-1.9-.1-3.8-.2-5.7-.1l-.2-.5-10.3 1.4.2.5c-1.7.4-3.4 1-5 1.6l-.7-.4-7.6 4.3.7.4c-1.1.9-2.1 1.8-2.9 2.8l-.9-.1-2.8 5.9.9.1c-.2 1.1-.2 2.2 0 3.3l-.9.1 2.7 5.9.9-.1c.8 1 1.7 1.9 2.9 2.9l-.7.4 7.5 4.4.7-.4c1.3.5 2.7 1 4.1 1.4l-.1.6 10.2 1.8.3-.5c1.9.1 3.8.2 5.7.1l.2.5 10.3-1.4-.2-.5c1.7-.4 3.4-1 5-1.6l.5.3z"/>
  <path fill="#D38B4A" d="M156.8 266.5v5.4l-.9.1v-5.4zM153.2 257.1h1.1v4.7h-1.1z"/>
  <path fill="#E0964C" d="M167.2 273.7v5.4l-.7.4v-5.4zM181.4 276.9v5.4s-.3.6-.3.5v-5.4l.3-.5zM187.1 276.9v5.5l.2.5v-5.4zM202.4 273.9v5.4l.6.4v-5.4z"/>
  <path fill="#D38B4A" d="M212.9 266.8v5.5l.9.1V267zM216.6 257.5v5.1l-1.1.2v-5.3z"/>
  <path fill="#BD8A17" d="M210.8 248.5v1.7l-1.3-1.7zM198.8 242.6v1l-.7-.2zM172.2 242.2v1.4s1-.2.9-.3c-.1-.3-.9-1.1-.9-1.1M159.2 248.1v1.3l1.1-1.1z"/>
  <path fill="#DDAD4E" d="M153.2 260.7v5.4l2.7 5.9v-5.4z"/>
  <path fill="#F4C253" d="M159 269.7v5.4l7.5 4.4v-5.4z"/>
  <path fill="#FCDC7C" d="M171 275.6v5.4l10.1 1.8v-5.4z"/>
  <path fill="#FFCE55" d="M197.6 276v5.4l-10.3 1.5v-5.4z"/>
  <path fill="#F4C253" d="M210.6 270.1v5.4l-7.6 4.2v-5.4z"/>
  <path fill="#DDAD4E" d="M216.6 261.1v5.4l-2.8 5.9V267z"/>
  <path fill="#F4A855" d="M203 274.3l7.6-4.3-.7-.4c1.1-.9 2.1-1.8 2.9-2.8l.9.1 2.8-5.9-.9-.2c.2-1.1.2-2.2 0-3.3l.9-.1-2.7-5.9-.9.1c-.8-1-1.7-1.9-2.9-2.9l.7-.4-7.5-4.3-.7.4c-1.3-.5-2.7-1-4.1-1.4l.3-.5-10.2-1.8-.3.5c-1.9-.1-3.8-.2-5.7-.1l-.2-.5L172 242l.2.5c-1.7.4-3.4 1-5 1.6l-.7-.4-7.6 4.3.7.4c-1.1.9-2.1 1.8-2.9 2.8l-.9-.1-2.8 5.9.9.2c-.2 1.1-.2 2.2 0 3.3l-.9.1 2.7 5.9.9-.1c.8 1 1.7 2 2.9 2.9l-.7.4 7.5 4.3.7-.4c1.3.5 2.7 1 4.1 1.4l-.3.5 10.2 1.8.3-.5c1.9.1 3.8.2 5.7.1l.2.5 10.3-1.4-.2-.5c1.7-.4 3.4-1 5-1.6l.7.4z"/>
  <path fill="#F4FF8C" d="M154.4 260c-.2-1.1-.2-2.2 0-3.3l-.9-.2 2.5-5.3h-.1l-2.8 5.9.9.1c-.2.9-.2 1.9-.1 2.8h.5zM160 268.8c-1.1-.9-2.1-1.9-2.9-2.9l-.9.1-2.5-5.4-.6.1 2.7 5.9.9-.1c.7.9 1.6 1.8 2.6 2.6l.7-.3zM172.7 242.1l-.6.1v.1c.3-.1.5-.1.6-.2zM160.2 248l-.3-.2-.7.4.4.3c.2-.2.4-.4.6-.5M214.1 266.4l-.8-.1c-.8 1-1.8 1.9-2.9 2.8l.2.1c.9-.8 1.7-1.6 2.4-2.4l.9.1.2-.5zM210.7 248.5l-.2-.2c.1.1.2.1.2.2M216.1 257.1c0 .2 0 .3.1.5l.5-.1-.2-.5-.4.1zM187.7 276.9l-.2-.5c-1.9.1-3.8 0-5.7-.1l-.3.5-10.2-1.8.3-.5c-1.4-.4-2.8-.9-4.1-1.4l-.7.4-7.2-4.2-.7.4 7.5 4.3.7-.4c1.3.5 2.7 1 4.1 1.4l-.3.5 10.2 1.8.3-.5c1.9.1 3.8.2 5.7.1l.2.5 10.3-1.4-.2-.5-9.7 1.4zM203.4 273.7l-.7-.4c-1.6.6-3.3 1.2-5 1.6l.2.4c1.5-.4 3-.9 4.4-1.4l.7.4 7.6-4.3-.3-.2-6.9 3.9z"/>
  <path fill="#EDCA40" d="M203.6 269.6c10.3-5.9 10.2-15.6-.1-21.6-.3-.1-.5-.3-.8-.4-6.9-3.7-16.3-4.9-24.8-3.6-4.3.7-8.3 2-11.7 3.9-10.3 5.9-10.2 15.6.1 21.6 3.3 1.9 7.1 3.2 11.2 3.8 4.8.8 9.9.9 14.6.1 4.3-.6 8.3-1.9 11.5-3.8"/>
  <path fill="#E3B637" d="M192.2 273.5c.8-9.5 5.6-18.7 10.5-25.8-6.9-3.7-16.3-4.9-24.8-3.6-1.8 9.3-1.3 20-.3 29.3 4.8.8 9.9.9 14.6.1"/>
  <path fill="#D9A12C" d="M166.4 269.6c-7.5-5.7-6.7-13.9 2.3-19.1 9.8-5.7 25.9-5.7 35.8.1 3.5 2 5.8 4.5 6.8 7.1-.5-3.5-3.1-6.9-7.7-9.6-10.3-6-27-6-37.3-.1-10.3 5.9-10.3 15.6.1 21.6"/>
  <path fill="#E3B637" d="M166.2 250.1c10.3-5.9 27-5.9 37.3.1 4.7 2.7 7.3 6.2 7.7 9.8.5-4.3-2.1-8.6-7.7-11.9-10.3-6-27-6-37.3-.1-5.6 3.2-8.1 7.5-7.6 11.7.5-3.5 3-6.9 7.6-9.6"/>
  <path fill="#F9BA7A" d="M203 272.2l7.6-4.3-.7-.4c1.1-.9 2.1-1.8 2.9-2.8l.9.1 2.8-5.9-.9-.1c.2-1.1.2-2.2 0-3.3l.9-.1-2.7-5.9-.9.1c-.8-1-1.7-2-2.9-2.9l.7-.4-7.5-4.3-.7.4c-1.3-.5-2.7-1-4.1-1.4l.3-.5-10.2-1.8-.3.5c-1.9-.1-3.8-.2-5.7-.1l-.2-.5L172 240l.2.5c-1.7.4-3.4 1-5 1.6l-.7-.4-7.6 4.2.7.4c-1.1.9-2.1 1.9-2.9 2.8l-.9-.1-2.8 5.9.9.1c-.2 1.1-.2 2.2 0 3.3l-.9.1 2.7 5.9.9-.1c.8 1 1.7 2 2.9 2.9l-.7.4 7.5 4.3.7-.4c1.3.5 2.7 1 4.1 1.4l-.3.5 10.2 1.8.3-.5c1.9.1 3.8.2 5.7.1l.2.5 10.3-1.4-.2-.5c1.7-.4 3.4-1 5-1.6l.7.5z"/>
  <path fill="#D38B4A" d="M156.8 259v5.4l-.9.1v-5.4zM153.2 249.6h1.1v4.7h-1.1z"/>
  <path fill="#E0964C" d="M167.2 266.2v5.4l-.7.4v-5.5zM181.4 269.3v5.4s-.3.6-.3.5v-5.4l.3-.5zM187.1 269.4v5.4l.2.6v-5.5zM202.4 266.4v5.4l.6.4v-5.4z"/>
  <path fill="#D38B4A" d="M212.9 259.3v5.4l.9.2v-5.4zM216.6 250v5l-1.1.3V250z"/>
  <path fill="#BD8A17" d="M210.8 240.9v1.8l-1.3-1.8zM198.8 235.1v.9l-.7-.1zM172.2 234.6v1.4s1-.2.9-.3c-.1-.2-.9-1.1-.9-1.1M159.2 240.6v1.3l1.1-1.1z"/>
  <path fill="#DDAD4E" d="M153.2 253.2v5.4l2.7 5.9v-5.4z"/>
  <path fill="#F4C253" d="M159 262.2v5.4l7.5 4.4v-5.5z"/>
  <path fill="#FCDC7C" d="M171 268.1v5.4l10.1 1.8v-5.4z"/>
  <path fill="#FFCE55" d="M197.6 268.5v5.4l-10.3 1.5v-5.5z"/>
  <path fill="#F4C253" d="M210.6 262.5v5.4l-7.6 4.3v-5.4z"/>
  <path fill="#DDAD4E" d="M216.6 253.6v5.4l-2.8 5.9v-5.4z"/>
  <path fill="#F4A855" d="M203 266.8l7.6-4.2-.7-.4c1.1-.9 2.1-1.8 2.9-2.8l.9.1 2.8-5.9-.9-.1c.2-1.1.2-2.2 0-3.3l.9-.1-2.7-5.9-.9.1c-.8-1-1.7-1.9-2.9-2.9l.7-.4-7.5-4.4-.7.4c-1.3-.5-2.7-1-4.1-1.4l.3-.5-10.2-1.8-.3.5c-1.9-.1-3.8-.2-5.7-.1l-.2-.5-10.3 1.4.2.5c-1.7.4-3.4 1-5 1.6l-.7-.4-7.6 4.3.7.4c-1.1.9-2.1 1.8-2.9 2.8l-.9-.1-2.8 5.9.9.1c-.2 1.1-.2 2.2 0 3.3l-.9.1 2.7 5.9.9-.1c.8 1 1.7 2 2.9 2.9l-.7.4 7.5 4.3.7-.4c1.3.5 2.7 1 4.1 1.4l-.3.5 10.2 1.8.3-.5c1.9.1 3.8.2 5.7.1l.2.5 10.3-1.4-.2-.5c1.7-.4 3.4-1 5-1.6l.7.4z"/>
  <path fill="#F4FF8C" d="M154.4 252.4c-.2-1.1-.2-2.2 0-3.3l-.9-.2 2.5-5.3h-.1l-2.8 5.9.9.1c-.2.9-.2 1.9-.1 2.8h.5zM160 261.2c-1.1-.9-2.1-1.9-2.9-2.9l-.9.1-2.5-5.4-.6.1 2.7 5.9.9-.1c.7.9 1.6 1.8 2.6 2.6l.7-.3zM172.7 234.6l-.6.1v.1c.3-.1.5-.2.6-.2zM160.2 240.4l-.3-.2-.7.4.4.3c.2-.2.4-.3.6-.5M214.1 258.9l-.8-.1c-.8 1-1.8 1.9-2.9 2.8l.2.1c.9-.8 1.7-1.6 2.4-2.4l.9.1.2-.5zM210.7 241l-.2-.2c.1 0 .2.1.2.2M216.1 249.6c0 .2 0 .3.1.5l.5-.1-.2-.5-.4.1zM187.7 269.4l-.2-.5c-1.9.1-3.8 0-5.7-.1l-.3.5-10.2-1.8.3-.5c-1.4-.4-2.8-.9-4.1-1.4l-.7.4-7.2-4.2-.7.4 7.5 4.3.7-.4c1.3.5 2.7 1 4.1 1.4l-.3.5 10.2 1.8.3-.5c1.9.1 3.8.2 5.7.1l.2.5 10.3-1.4-.2-.5-9.7 1.4zM203.4 266.2l-.7-.4c-1.6.6-3.3 1.2-5 1.6l.2.4c1.5-.4 3-.9 4.4-1.4l.7.4 7.6-4.2-.3-.2-6.9 3.8z"/>
  <path fill="#EDCA40" d="M203.6 262.1c10.3-5.9 10.2-15.6-.1-21.6-.3-.1-.5-.3-.8-.4-6.9-3.7-16.3-4.9-24.8-3.6-4.3.7-8.3 2-11.7 3.9-10.3 5.9-10.2 15.6.1 21.6 3.3 1.9 7.1 3.2 11.2 3.8 4.8.8 9.9.9 14.6.1 4.3-.6 8.3-1.9 11.5-3.8"/>
  <path fill="#E3B637" d="M192.2 265.9c.8-9.5 5.6-18.7 10.5-25.8-6.9-3.7-16.3-4.9-24.8-3.6-1.8 9.3-1.3 20-.3 29.3 4.8.9 9.9.9 14.6.1"/>
  <path fill="#D9A12C" d="M166.4 262c-7.5-5.7-6.7-13.9 2.3-19.1 9.8-5.7 25.9-5.7 35.8.1 3.5 2 5.8 4.5 6.8 7.1-.5-3.5-3.1-6.9-7.7-9.6-10.3-6-27-6-37.3-.1-10.3 6-10.3 15.7.1 21.6"/>
  <path fill="#E3B637" d="M166.2 242.5c10.3-5.9 27-5.9 37.3.1 4.7 2.7 7.3 6.2 7.7 9.8.5-4.2-2.1-8.6-7.7-11.9-10.3-6-27-6-37.3-.1-5.6 3.2-8.1 7.5-7.6 11.7.5-3.4 3-6.9 7.6-9.6"/>
  <path fill="#F9BA7A" d="M203 264.7l7.6-4.3-.6-.4c1.1-.9 2.1-1.8 2.9-2.8l.9.1 2.8-5.9-.9-.1c.2-1.1.2-2.2 0-3.3l.9-.1-2.7-5.9-.9.1c-.8-1-1.7-1.9-2.9-2.9l.7-.4-7.5-4.3-.7.4c-1.3-.5-2.7-1-4.1-1.4l.3-.5-10.2-1.8-.3.5c-1.9-.1-3.8-.2-5.7-.1l-.2-.5-10.3 1.4.2.5c-1.7.4-3.4 1-5 1.6l-.7-.4-7.6 4.3.7.4c-1.1.9-2.1 1.8-2.9 2.8l-.9-.1-2.8 5.9.9.1c-.2 1.1-.2 2.2 0 3.3l-.9.1 2.7 5.9.9-.1c.8 1 1.7 1.9 2.9 2.9l-.7.4 7.5 4.3.7-.4c1.3.5 2.7 1 4.1 1.4l-.2.6 10.2 1.8.3-.5c1.9.1 3.8.2 5.7.1l.2.5 10.3-1.4-.2-.5c1.7-.4 3.4-1 5-1.6l.5.3z"/>
  <path fill="#D38B4A" d="M156.8 251.4v5.4l-.9.2v-5.4zM153.2 242.1h1.1v4.7h-1.1z"/>
  <path fill="#E0964C" d="M167.2 258.6v5.5l-.7.3V259zM181.4 261.8v5.4s-.3.6-.3.5v-5.4l.3-.5zM187.1 261.9v5.4l.2.5v-5.4zM202.4 258.9v5.4l.6.4v-5.4z"/>
  <path fill="#D38B4A" d="M212.9 251.8v5.4l.9.2v-5.5zM216.6 242.5v5l-1.1.3v-5.3z"/>
  <path fill="#BD8A17" d="M210.8 233.4v1.7l-1.3-1.7zM198.8 227.5v1l-.7-.1zM172.2 227.1v1.4s1-.2.9-.3c-.1-.2-.9-1.1-.9-1.1M159.2 233.1v1.3l1.1-1.2z"/>
  <path fill="#DDAD4E" d="M153.2 245.6v5.5l2.7 5.9v-5.4z"/>
  <path fill="#F4C253" d="M159 254.7v5.4l7.5 4.3V259z"/>
  <path fill="#FCDC7C" d="M171 260.6v5.4l10.1 1.7v-5.4z"/>
  <path fill="#FFCE55" d="M197.6 261v5.4l-10.3 1.4v-5.4z"/>
  <path fill="#F4C253" d="M210.6 255v5.4l-7.6 4.3v-5.4z"/>
  <path fill="#DDAD4E" d="M216.6 246v5.5l-2.8 5.9v-5.5z"/>
  <path fill="#F4A855" d="M203 259.3l7.6-4.3-.7-.4c1.1-.9 2.1-1.8 2.9-2.8l.9.2 2.8-5.9-.9-.2c.2-1.1.2-2.2 0-3.3l.9-.1-2.7-5.9-.9.1c-.8-1-1.7-1.9-2.9-2.9l.7-.4-7.5-4.4-.7.4c-1.3-.5-2.7-1-4.1-1.4l.3-.5-10.2-1.8-.3.5c-1.9-.1-3.8-.2-5.7-.1l-.2-.5L172 227l.2.5c-1.7.4-3.4 1-5 1.6l-.7-.4-7.6 4.2.7.4c-1.1.9-2.1 1.8-2.9 2.8l-.9-.1-2.8 5.9.9.1c-.2 1.1-.2 2.2 0 3.3l-.9.1 2.7 5.9.9-.1c.8 1 1.7 2 2.9 2.9l-.7.4 7.5 4.3.7-.4c1.3.5 2.7 1 4.1 1.4l-.3.5 10.2 1.8.3-.5c1.9.1 3.8.2 5.7.1l.2.5 10.3-1.4-.2-.5c1.7-.4 3.4-1 5-1.6l.7.6z"/>
  <path fill="#F4FF8C" d="M154.4 244.9c-.2-1.1-.2-2.2 0-3.3l-.9-.1 2.5-5.3h-.1l-2.8 5.9.9.1c-.2.9-.2 1.9-.1 2.8l.5-.1zM160 253.7c-1.1-.9-2.1-1.9-2.9-2.9l-.9.1-2.5-5.4-.6.1 2.7 5.9.9-.1c.7.9 1.6 1.8 2.6 2.6l.7-.3zM172.7 227l-.6.1v.1c.3 0 .5-.1.6-.2zM160.2 232.9l-.3-.2-.7.4.4.3c.2-.2.4-.3.6-.5M214.1 251.4l-.8-.1c-.8 1-1.8 1.9-2.9 2.8l.2.1c.9-.8 1.7-1.6 2.4-2.4l.9.1.2-.5zM210.7 233.5l-.2-.2c.1 0 .2.1.2.2M216.1 242c0 .2 0 .3.1.5l.5-.1-.2-.5-.4.1zM187.7 261.8l-.2-.5c-1.9.1-3.8 0-5.7-.1l-.3.5-10.2-1.8.3-.5c-1.4-.4-2.8-.9-4.1-1.4l-.7.4-7.2-4.2-.7.4 7.5 4.3.7-.4c1.3.5 2.7 1 4.1 1.4l-.3.5 10.2 1.8.3-.5c1.9.1 3.8.2 5.7.1l.2.5 10.3-1.4-.2-.5-9.7 1.4zM203.4 258.7l-.7-.4c-1.6.6-3.3 1.2-5 1.6l.2.4c1.5-.4 3-.9 4.4-1.4l.7.4 7.6-4.3-.3-.2-6.9 3.9z"/>
  <path fill="#EDCA40" d="M203.6 254.6c10.3-5.9 10.2-15.6-.1-21.6-.3-.1-.5-.3-.8-.4-6.9-3.7-16.3-4.9-24.8-3.6-4.3.7-8.3 2-11.7 3.9-10.3 5.9-10.2 15.6.1 21.6 3.3 1.9 7.1 3.2 11.2 3.8 4.8.8 9.9.9 14.6.1 4.3-.6 8.3-1.9 11.5-3.8"/>
  <path fill="#E3B637" d="M192.2 258.4c.8-9.5 5.6-18.7 10.5-25.8-6.9-3.7-16.3-4.9-24.8-3.6-1.8 9.3-1.3 20-.3 29.3 4.8.9 9.9.9 14.6.1"/>
  <path fill="#D9A12C" d="M166.4 254.5c-7.5-5.7-6.7-13.9 2.3-19.1 9.8-5.7 25.9-5.7 35.8.1 3.5 2 5.8 4.5 6.8 7.1-.5-3.5-3.1-6.9-7.7-9.6-10.3-6-27-6-37.3-.1-10.3 6-10.3 15.6.1 21.6"/>
  <path fill="#E3B637" d="M166.2 235c10.3-5.9 27-5.9 37.3.1 4.7 2.7 7.3 6.2 7.7 9.8.5-4.2-2.1-8.6-7.7-11.9-10.3-6-27-6-37.3-.1-5.6 3.2-8.1 7.5-7.6 11.7.5-3.4 3-6.9 7.6-9.6"/>
  <path fill="#F9BA7A" d="M203 257.2l7.6-4.3-.7-.4c1.1-.9 2.1-1.8 2.9-2.8l.9.1 2.8-5.9-.9-.2c.2-1.1.2-2.2 0-3.3l.9-.1-2.7-5.9-.9.1c-.8-1-1.7-1.9-2.9-2.9l.7-.4-7.5-4.3-.7.4c-1.3-.5-2.7-1-4.1-1.4l.3-.5-10.2-1.8-.3.5c-1.9-.1-3.8-.2-5.7-.1l-.2-.5-10.3 1.4.2.5c-1.7.4-3.4 1-5 1.6l-.7-.4-7.6 4.3.7.4c-1.1.9-2.1 1.8-2.9 2.8l-.9-.1-2.8 5.9.9.1c-.2 1.1-.2 2.2 0 3.3l-.9.1 2.7 5.9.9-.1c.8 1 1.7 1.9 2.9 2.9l-.7.4 7.5 4.3.7-.4c1.3.5 2.7 1 4.1 1.4l-.3.5 10.2 1.8.3-.5c1.9.1 3.8.2 5.7.1l.2.5 10.3-1.4-.2-.5c1.7-.4 3.4-1 5-1.6l.7.5z"/>
  <path fill="#D38B4A" d="M156.8 243.9v5.4l-.9.2v-5.4zM153.2 234.5h1.1v4.7h-1.1z"/>
  <path fill="#E0964C" d="M167.2 251.1v5.4l-.7.4v-5.4zM181.4 254.3v5.4s-.3.6-.3.5v-5.4l.3-.5zM187.1 254.4v5.4l.2.5v-5.4zM202.4 251.4v5.4l.6.4v-5.5z"/>
  <path fill="#D38B4A" d="M212.9 244.3v5.4l.9.1v-5.4zM216.6 234.9v5.1l-1.1.3v-5.4z"/>
  <path fill="#BD8A17" d="M210.8 225.9v1.7l-1.3-1.7zM198.8 220v1l-.7-.1zM172.2 219.6v1.4s1-.2.9-.3c-.1-.2-.9-1.1-.9-1.1M159.2 225.6v1.3l1.1-1.2z"/>
  <path fill="#DDAD4E" d="M153.2 238.1v5.4l2.7 6v-5.4z"/>
  <path fill="#F4C253" d="M159 247.2v5.4l7.5 4.3v-5.4z"/>
  <path fill="#FCDC7C" d="M171 253.1v5.4l10.1 1.7v-5.4z"/>
  <path fill="#FFCE55" d="M197.6 253.5v5.4l-10.3 1.4v-5.4z"/>
  <path fill="#F4C253" d="M210.6 247.5v5.4l-7.6 4.3v-5.5z"/>
  <path fill="#DDAD4E" d="M216.6 238.5v5.4l-2.8 5.9v-5.4z"/>
  <path fill="#F4A855" d="M203 251.7l7.6-4.3-.7-.4c1.1-.9 2.1-1.8 2.9-2.8l.9.1 2.8-5.9-.9-.1c.2-1.1.2-2.2 0-3.3l.9-.1-2.7-5.9-.9.1c-.8-1-1.7-1.9-2.9-2.9l.7-.4-7.5-4.4-.7.4c-1.3-.5-2.7-1-4.1-1.4l.3-.5-10.2-1.8-.3.5c-1.9-.1-3.8-.2-5.7-.1l-.2-.5-10.3 1.4.2.5c-1.7.4-3.4 1-5 1.6l-.7-.4-7.6 4.3.7.4c-1.1.9-2.1 1.8-2.9 2.8l-.9-.1-2.8 5.9.9.1c-.2 1.1-.2 2.2 0 3.3l-.9.1 2.7 5.9.9-.1c.8 1 1.7 1.9 2.9 2.9l-.7.4 7.5 4.3.7-.4c1.3.5 2.7 1 4.1 1.4l-.1.7 10.2 1.8.3-.5c1.9.1 3.8.2 5.7.1l.2.5 10.3-1.4-.2-.5c1.7-.4 3.4-1 5-1.6l.5.3z"/>
  <path fill="#F4FF8C" d="M154.4 237.4c-.2-1.1-.2-2.2 0-3.3l-.9-.2 2.5-5.3h-.1l-2.8 5.9.9.1c-.2.9-.2 1.8-.1 2.8h.5zM160 246.2c-1.1-.9-2.1-1.9-2.9-2.9l-.9.1-2.5-5.4-.6.1 2.7 5.9.9-.1c.7.9 1.6 1.8 2.6 2.6l.7-.3zM172.7 219.5l-.6.1v.1c.3-.1.5-.1.6-.2zM160.2 225.4l-.3-.2-.7.4.4.3c.2-.2.4-.4.6-.5M214.1 243.8l-.8-.1c-.8 1-1.8 1.9-2.9 2.8l.2.1c.9-.8 1.7-1.5 2.4-2.4l.9.1.2-.5zM210.7 225.9l-.2-.2.2.2M216.1 234.5c0 .2 0 .3.1.5l.5-.1-.2-.5-.4.1zM187.7 254.3l-.2-.5c-1.9.1-3.8 0-5.7-.1l-.3.5-10.2-1.8.3-.5c-1.4-.4-2.8-.9-4.1-1.4l-.7.4-7.2-4.2-.7.4 7.5 4.3.7-.4c1.3.5 2.7 1 4.1 1.4l-.2.6 10.2 1.8.3-.5c1.9.1 3.8.2 5.7.1l.2.5 10.3-1.4-.2-.5-9.8 1.3zM203.4 251.2l-.7-.4c-1.6.6-3.3 1.2-5 1.6l.2.4c1.5-.4 3-.9 4.4-1.4l.7.4 7.6-4.3-.3-.2-6.9 3.9z"/>
  <path fill="#EDCA40" d="M203.6 247c10.3-5.9 10.2-15.6-.1-21.6-.3-.1-.5-.3-.8-.4-6.9-3.7-16.3-4.9-24.8-3.6-4.3.7-8.3 2-11.7 3.9-10.2 6.1-10.2 15.7.2 21.7 3.3 1.9 7.1 3.2 11.2 3.8 4.8.8 9.9.9 14.6.1 4.2-.6 8.2-2 11.4-3.9"/>
  <path fill="#E3B637" d="M192.2 250.9c.8-9.5 5.6-18.7 10.5-25.8-6.9-3.7-16.3-4.9-24.8-3.6-1.8 9.3-1.3 20-.3 29.3 4.8.9 9.9.9 14.6.1"/>
  <path fill="#D9A12C" d="M166.4 247c-7.5-5.7-6.7-13.9 2.3-19.1 9.8-5.7 25.9-5.7 35.8.1 3.5 2 5.8 4.5 6.8 7.1-.5-3.5-3.1-6.9-7.7-9.6-10.3-6-27-6-37.3-.1-10.3 6-10.3 15.6.1 21.6"/>
  <path fill="#E3B637" d="M166.2 227.5c10.3-5.9 27-5.9 37.3.1 4.7 2.7 7.3 6.2 7.7 9.8.5-4.3-2.1-8.6-7.7-11.9-10.3-6-27-6-37.3-.1-5.6 3.2-8.1 7.5-7.6 11.7.5-3.5 3-6.9 7.6-9.6"/>
  <path fill="#F9BA7A" d="M203 249.6l7.6-4.3-.6-.3c1.1-.9 2.1-1.8 2.9-2.8l.9.1 2.8-5.9-.9-.2c.2-1.1.2-2.2 0-3.3l.9-.1-2.7-5.9-.9.1c-.8-1-1.7-2-2.9-2.9l.7-.4-7.5-4.3-.7.4c-1.3-.5-2.7-1-4.1-1.4l.3-.5-10.2-1.8-.3.5c-1.9-.1-3.8-.2-5.7-.1l-.2-.5-10.3 1.4.2.5c-1.7.4-3.4 1-5 1.6l-.7-.4-7.6 4.3.7.4c-1.1.9-2.1 1.8-2.9 2.8l-.9-.1-2.8 5.9.9.1c-.2 1.1-.2 2.2 0 3.3l-.9.1 2.7 5.9.9-.1c.8 1 1.7 1.9 2.9 2.9l-.6.4 7.5 4.3.7-.4c1.3.5 2.7 1 4.1 1.4l-.3.5 10.2 1.8.3-.5c1.9.1 3.8.2 5.7.1l.2.5 10.3-1.4-.2-.5c1.7-.4 3.4-1 5-1.6l.5.4z"/>
  <path fill="#D38B4A" d="M156.8 236.4v5.4l-.9.1v-5.4zM153.2 227h1.1v4.7h-1.1z"/>
  <path fill="#E0964C" d="M167.2 243.6v5.4l-.7.4V244zM181.4 246.8v5.4s-.3.6-.3.5v-5.4l.3-.5zM187.1 246.9v5.4l.2.5v-5.4zM202.4 243.8v5.4l.6.4v-5.4z"/>
  <path fill="#D38B4A" d="M212.9 236.8v5.4l.9.1v-5.4z"/>
  <path fill="#BD8A17" d="M216.6 227.4v5.1l-1.1.2v-5.3zM210.8 218.4v1.7l-1.3-1.7zM198.8 212.5v1l-.7-.2zM172.2 212.1v1.4s1-.2.9-.3c-.1-.2-.9-1.1-.9-1.1M159.2 218.1v1.2l1.1-1.1z"/>
  <path fill="#DDAD4E" d="M153.2 230.6v5.4l2.7 5.9v-5.4z"/>
  <path fill="#F4C253" d="M159 239.6v5.4l7.5 4.4V244z"/>
  <path fill="#FCDC7C" d="M171 245.5v5.4l10.1 1.8v-5.4z"/>
  <path fill="#FFCE55" d="M197.6 245.9v5.5l-10.3 1.4v-5.4z"/>
  <path fill="#F4C253" d="M210.6 240v5.4l-7.6 4.2v-5.4z"/>
  <path fill="#DDAD4E" d="M216.6 231v5.4l-2.8 5.9v-5.4z"/>
  <path fill="#F4A855" d="M203 244.2l7.6-4.2-.7-.4c1.1-.9 2.1-1.8 2.9-2.8l.9.1 2.8-5.9-.9-.1c.2-1.1.2-2.2 0-3.3l.9-.1-2.7-5.9-.9.1c-.8-1-1.7-1.9-2.9-2.9l.7-.4-7.5-4.3-.7.4c-1.3-.5-2.7-1-4.1-1.4l.3-.5-10.2-1.8-.3.5c-1.9-.1-3.8-.2-5.7-.1l-.2-.5-10.3 1.4.2.5c-1.7.4-3.4 1-5 1.6l-.7-.4-7.6 4.3.7.4c-1.1.9-2.1 1.8-2.9 2.8l-.9-.1-2.8 5.9.9.1c-.2 1.1-.2 2.2 0 3.3l-.9.1 2.7 5.9.9-.1c.8 1 1.7 1.9 2.9 2.9l-.7.4 7.5 4.3.7-.4c1.3.5 2.7 1 4.1 1.4l-.3.5 10.2 1.8.3-.5c1.9.1 3.8.2 5.7.1l.2.5 10.3-1.4-.2-.5c1.7-.4 3.4-1 5-1.6l.7.3z"/>
  <path fill="#F4FF8C" d="M154.4 229.9c-.2-1.1-.2-2.2 0-3.3l-.9-.1 2.5-5.3h-.1l-2.8 5.9.9.1c-.2.9-.2 1.8-.1 2.8l.5-.1zM160 238.7c-1.1-.9-2.1-1.9-2.9-2.9l-.9.1-2.5-5.4-.6.1 2.7 5.9.9-.1c.7.9 1.6 1.8 2.6 2.6l.7-.3zM172.7 212l-.6.1v.1c.3-.1.5-.1.6-.2zM160.2 217.9l-.3-.2-.7.4.4.3c.2-.2.4-.4.6-.5M214.1 236.3l-.8-.1c-.8 1-1.8 1.9-2.9 2.8l.2.1c.9-.8 1.7-1.6 2.4-2.4l.9.1.2-.5zM210.7 218.4l-.2-.2c.1.1.2.1.2.2M216.1 227c0 .2 0 .3.1.5l.5-.1-.2-.5-.4.1zM187.7 246.8l-.2-.5c-1.9.1-3.8 0-5.7-.1l-.3.5-10.2-1.8.3-.5c-1.4-.4-2.8-.9-4.1-1.4l-.7.4-7.2-4.2-.7.4 7.5 4.3.7-.4c1.3.5 2.7 1 4.1 1.4l-.3.5 10.2 1.8.3-.5c1.9.1 3.8.2 5.7.1l.2.5 10.3-1.4-.2-.5-9.7 1.4zM203.4 243.6l-.7-.4c-1.6.6-3.3 1.2-5 1.6l.2.4c1.5-.4 3-.9 4.4-1.4l.7.4 7.6-4.3-.3-.2-6.9 3.9z"/>
  <path fill="#EDCA40" d="M203.6 239.5c10.3-5.9 10.2-15.6-.1-21.6-.3-.1-.5-.3-.8-.4-6.9-3.7-16.3-4.9-24.8-3.6-4.3.7-8.3 2-11.7 3.9-10.3 5.9-10.2 15.6.1 21.6 3.3 1.9 7.1 3.2 11.2 3.8 4.8.8 9.9.9 14.6.1 4.3-.6 8.3-1.9 11.5-3.8"/>
  <path fill="#E3B637" d="M192.2 243.4c.8-9.5 5.6-18.7 10.5-25.8-6.9-3.7-16.3-4.9-24.8-3.6-1.8 9.3-1.3 20-.3 29.3 4.8.8 9.9.9 14.6.1"/>
  <path fill="#D9A12C" d="M166.4 239.5c-7.5-5.7-6.7-13.9 2.3-19.1 9.8-5.7 25.9-5.7 35.8.1 3.5 2 5.8 4.5 6.8 7.1-.5-3.5-3.1-6.9-7.7-9.6-10.3-6-27-6-37.3-.1-10.3 5.9-10.3 15.6.1 21.6"/>
  <path fill="#E3B637" d="M166.2 220c10.3-5.9 27-5.9 37.3.1 4.7 2.7 7.3 6.2 7.7 9.8.5-4.3-2.1-8.6-7.7-11.9-10.3-6-27-6-37.3-.1-5.6 3.2-8.1 7.5-7.6 11.7.5-3.5 3-6.9 7.6-9.6"/>
  <path fill="#F9BA7A" d="M203 242.1l7.6-4.3-.7-.4c1.1-.9 2.1-1.8 2.9-2.8l.9.1 2.8-5.9-.9-.1c.2-1.1.2-2.2 0-3.3l.9-.1-2.7-5.9-.9.1c-.8-1-1.7-1.9-2.9-2.9l.7-.4-7.5-4.3-.7.4c-1.3-.5-2.7-1-4.1-1.4l.3-.5-10.2-1.8-.3.5c-1.9-.1-3.8-.2-5.7-.1l-.2-.5-10.3 1.4.2.5c-1.7.4-3.4 1-5 1.6l-.7-.4-7.6 4.3.7.4c-1.1.9-2.1 1.8-2.9 2.8l-.7-.1-2.8 5.9.9.1c-.2 1.1-.2 2.2 0 3.3l-.9.1 2.7 5.9.9-.1c.8 1 1.7 1.9 2.9 2.9l-.7.4 7.5 4.4.7-.4c1.3.5 2.7 1 4.1 1.4l-.3.5 10.2 1.8.3-.5c1.9.1 3.8.2 5.7.1l.2.5 10.3-1.4-.2-.5c1.7-.4 3.4-1 5-1.6l.5.3z"/>
  <path fill="#D38B4A" d="M156.8 228.9v5.4l-.9.1V229zM153.2 219.5h1.1v4.7h-1.1z"/>
  <path fill="#E0964C" d="M167.2 236.1v5.4l-.7.4v-5.4zM181.4 239.2v5.4s-.3.6-.3.5v-5.4l.3-.5zM187.1 239.3v5.4l.2.6v-5.4zM202.4 236.3v5.4l.6.4v-5.4z"/>
  <path fill="#D38B4A" d="M212.9 229.2v5.4l.9.2v-5.4zM216.6 219.9v5.1l-1.1.2v-5.3z"/>
  <path fill="#BD8A17" d="M210.8 210.9v1.7l-1.3-1.7zM198.8 205v1l-.7-.2zM172.2 204.6v1.4s1-.2.9-.3c-.1-.3-.9-1.1-.9-1.1M159.2 210.5v1.3l1.1-1.1z"/>
  <path fill="#DDAD4E" d="M153.2 223.1v5.4l2.7 5.9V229z"/>
  <path fill="#F4C253" d="M159 232.1v5.4l7.5 4.4v-5.4z"/>
  <path fill="#FCDC7C" d="M171 238v5.4l10.1 1.8v-5.4z"/>
  <path fill="#FFCE55" d="M197.6 238.4v5.4l-10.3 1.5v-5.4z"/>
  <path fill="#F4C253" d="M210.6 232.4v5.5l-7.6 4.2v-5.4z"/>
  <path fill="#DDAD4E" d="M216.6 223.5v5.4l-2.8 5.9v-5.4z"/>
  <path fill="#FFCE55" d="M203 236.7l7.6-4.2-.7-.4c1.1-.9 2.1-1.8 2.9-2.8l.9.1 2.8-5.9-.9-.1c.2-1.1.2-2.2 0-3.3l.9-.1-2.7-5.9-.9.1c-.8-1-1.7-1.9-2.9-2.9l.7-.4-7.5-4.3-.7.4c-1.3-.5-2.7-1-4.1-1.4l.3-.5-10.2-1.8-.3.5c-1.9-.1-3.8-.2-5.7-.1l-.2-.5-10.3 1.4.2.5c-1.7.4-3.4 1-5 1.6l-.7-.4-7.6 4.2.7.4c-1.1.9-2.1 1.8-2.9 2.8l-.9-.1-2.8 5.9.9.2c-.2 1.1-.2 2.2 0 3.3l-.9.1 2.7 5.9.9-.1c.8 1 1.7 2 2.9 2.9l-.7.4 7.5 4.4.7-.4c1.3.5 2.7 1 4.1 1.4l-.1.4 10.2 1.8.3-.5c1.9.1 3.8.2 5.7.1l.2.5 10.3-1.4-.2-.5c1.7-.4 3.4-1 5-1.6l.5.3z"/>
  <path fill="#F4FF8C" d="M154.4 222.4c-.2-1.1-.2-2.2 0-3.3l-.9-.2 2.5-5.3h-.1l-2.8 5.9.9.1c-.2.9-.2 1.9-.1 2.8h.5zM160 231.2c-1.1-.9-2.1-1.9-2.9-2.9l-.9.1-2.5-5.4-.6.1 2.7 5.9.9-.1c.7.9 1.6 1.8 2.6 2.6l.7-.3zM172.7 204.5l-.6.1v.1c.3-.1.5-.2.6-.2zM160.2 210.3l-.3-.2-.7.4.4.3c.2-.2.4-.3.6-.5M214.1 228.8l-.8-.1c-.8 1-1.8 1.9-2.9 2.8l.2.1c.9-.8 1.7-1.6 2.4-2.4l.9.1.2-.5zM210.7 210.9l-.2-.2c.1 0 .2.1.2.2M216.1 219.5c0 .2 0 .3.1.5l.5-.1-.2-.5-.4.1zM187.7 239.3l-.2-.5c-1.9.1-3.8 0-5.7-.1l-.3.5-10.2-1.8.3-.5c-1.4-.4-2.8-.9-4.1-1.4l-.7.4-7.2-4.2-.7.4 7.5 4.4.7-.4c1.3.5 2.7 1 4.1 1.4l-.2.5 10.2 1.8.3-.5c1.9.1 3.8.2 5.7.1l.2.5 10.3-1.4-.2-.5-9.8 1.3zM203.4 236.1l-.7-.4c-1.6.6-3.3 1.2-5 1.6l.2.4c1.5-.4 3-.9 4.4-1.4l.7.4 7.6-4.3-.3-.2-6.9 3.9z"/>
  <path fill="#FCDC7C" d="M203.6 232c10.3-5.9 10.2-15.6-.1-21.6-.3-.1-.5-.3-.8-.4-6.9-3.7-16.3-4.9-24.8-3.6-4.3.7-8.3 2-11.7 3.9-10.3 5.9-10.2 15.6.1 21.6 3.3 1.9 7.1 3.2 11.2 3.8 4.8.8 9.9.9 14.6.1 4.3-.6 8.3-1.9 11.5-3.8"/>
  <path fill="#F4A855" d="M166.4 231.9c0 .1 0 .1 0 0-7.5-5.7-6.7-13.9 2.3-19.1 9.8-5.7 25.9-5.7 35.8.1 3.5 2 5.8 4.5 6.8 7.1-.5-3.5-3.1-6.9-7.7-9.6-10.3-6-27-6-37.3-.1-10.3 6-10.3 15.7.1 21.6"/>
  <path fill="#F4A855" d="M166.2 212.5c10.3-5.9 27-5.9 37.3.1 4.7 2.7 7.3 6.2 7.7 9.8.5-4.2-2.1-8.6-7.7-11.9-10.3-6-27-6-37.3-.1-5.6 3.2-8.1 7.5-7.6 11.7.5-3.5 3-7 7.6-9.6"/>
  <path fill="#BD8A17" d="M152.6 274.2v5"/>
  <path fill="#F4FF8C" d="M152.6 274.2l-.3-.5"/>
  <path fill="#F9BA7A" d="M160.1 307l7.6-4.2-.7-.4c1.1-.9 2.1-1.8 2.9-2.8l.9.1 2.8-5.9-.9-.1c.2-1.1.2-2.2 0-3.3l.9-.1-2.7-5.9-.9.1c-.8-1-1.7-1.9-2.9-2.9l.7-.4-7.5-4.3-.7.4c-1.3-.5-2.7-1-4.1-1.4l.3-.5-10.2-1.8-.3.5c-1.9-.1-3.8-.2-5.7-.1l-.2-.5-10.3 1.4.2.5c-1.7.4-3.4 1-5 1.6l-.7-.4-7.6 4.3.7.4c-1.1.9-2.1 1.8-2.9 2.8l-.9-.1-2.8 5.9.9.1c-.2 1.1-.2 2.2 0 3.3l-.9.1 2.7 5.9.9-.1c.8 1 1.7 1.9 2.9 2.9l-.7.4 7.5 4.3.7-.4c1.3.5 2.7 1 4.1 1.4l-.3.5 10.2 1.8.3-.5c1.9.1 3.8.2 5.7.1l.2.5 10.3-1.4-.2-.5c1.7-.4 3.4-1 5-1.6l.7.3z"/>
  <path fill="#D38B4A" d="M113.8 293.8v5.4l-.9.1v-5.4zM110.2 284.4h1.1v4.7h-1.1z"/>
  <path fill="#E0964C" d="M124.2 301v5.4l-.6.4v-5.5zM138.5 304.1v5.4s-.3.6-.3.5v-5.4l.3-.5zM144.1 304.2v5.4l.3.6v-5.5zM159.4 301.2v5.4l.7.4v-5.4z"/>
  <path fill="#D38B4A" d="M169.9 294.1v5.4l.9.2v-5.4zM173.7 284.8v5l-1.1.3v-5.3z"/>
  <path fill="#BD8A17" d="M167.8 275.7v1.7l-1.3-1.7zM155.9 269.9v.9l-.7-.1zM129.2 269.4v1.4s1-.2.9-.3c-.1-.2-.9-1.1-.9-1.1M116.2 275.4v1.3l1.1-1.1z"/>
  <path fill="#DDAD4E" d="M110.2 287.9v5.5l2.7 5.9v-5.4z"/>
  <path fill="#F4C253" d="M116 297v5.4l7.6 4.4v-5.5z"/>
  <path fill="#FCDC7C" d="M128 302.9v5.4l10.2 1.8v-5.5z"/>
  <path fill="#FFCE55" d="M154.7 303.3v5.4l-10.3 1.5v-5.5z"/>
  <path fill="#F4C253" d="M167.7 297.3v5.4l-7.6 4.3v-5.4z"/>
  <path fill="#DDAD4E" d="M173.6 288.4v5.4l-2.8 5.9v-5.4z"/>
  <path fill="#F4A855" d="M160.1 301.6l7.6-4.3-.7-.4c1.1-.9 2.1-1.8 2.9-2.8l.9.2 2.8-5.9-.9-.2c.2-1.1.2-2.2 0-3.3l.9-.1-2.7-5.9-.9.1c-.8-1-1.7-1.9-2.9-2.9l.7-.4-7.5-4.4-.7.4c-1.3-.5-2.7-1-4.1-1.4l.3-.5-10.2-1.8-.3.5c-1.9-.1-3.8-.2-5.7-.1l-.2-.5-10.3 1.4.2.5c-1.7.4-3.4 1-5 1.6l-.7-.4-7.6 4.3.7.4c-1.1.9-2.1 1.8-2.9 2.8l-.9-.1-2.8 5.9.9.1c-.2 1.1-.2 2.2 0 3.3l-.9.1 2.7 5.9.9-.1c.8 1 1.7 2 2.9 2.9l-.6.5 7.5 4.3.7-.4c1.3.5 2.7 1 4.1 1.4l-.3.5 10.2 1.8.3-.5c1.9.1 3.8.2 5.7.1l.2.5 10.3-1.4-.2-.5c1.7-.4 3.4-1 5-1.6l.6.4z"/>
  <path fill="#F4FF8C" d="M111.5 287.2c-.2-1.1-.2-2.2 0-3.3l-.9-.2 2.5-5.3h-.1l-2.8 5.9.9.1c-.2.9-.2 1.9-.1 2.8h.5zM117 296c-1.1-.9-2.1-1.9-2.9-2.9l-.9.1-2.5-5.4-.6.1 2.7 5.9.9-.1c.7.9 1.6 1.8 2.6 2.6l.7-.3zM129.8 269.4l-.6.1v.1c.2-.1.4-.2.6-.2zM117.2 275.2l-.3-.2-.7.4.4.3c.2-.2.4-.3.6-.5M171.1 293.7l-.8-.1c-.8 1-1.8 1.9-2.9 2.8l.2.1c.9-.8 1.7-1.6 2.4-2.4l.9.1.2-.5zM167.8 275.8l-.2-.2.2.2M173.1 284.3c0 .2 0 .3.1.5l.5-.1-.2-.5-.4.1zM144.7 304.2l-.2-.5c-1.9.1-3.8 0-5.7-.1l-.3.5-10.2-1.8.3-.5c-1.4-.4-2.8-.9-4.1-1.4l-.7.4-7.2-4.2-.6.4 7.5 4.3.7-.4c1.3.5 2.7 1 4.1 1.4l-.3.5 10.2 1.8.3-.5c1.9.1 3.8.2 5.7.1l.2.5 10.3-1.4-.2-.5-9.8 1.4zM160.4 301l-.7-.4c-1.6.6-3.3 1.2-5 1.6l.2.4c1.5-.4 3-.9 4.5-1.4l.7.4 7.6-4.3-.3-.2-7 3.9z"/>
  <path fill="#EDCA40" d="M160.7 296.9c10.3-5.9 10.2-15.6-.1-21.6-.3-.1-.5-.3-.8-.4-6.9-3.7-16.3-4.9-24.8-3.6-4.3.7-8.3 2-11.7 3.9-10.3 5.9-10.2 15.6.1 21.6 3.3 1.9 7.1 3.2 11.2 3.8 4.8.8 9.9.9 14.6.1 4.3-.6 8.2-1.9 11.5-3.8"/>
  <path fill="#E3B637" d="M149.3 300.7c.8-9.5 5.6-18.7 10.5-25.8-6.9-3.7-16.3-4.9-24.8-3.6-1.8 9.3-1.3 20-.3 29.3 4.7.9 9.8.9 14.6.1"/>
  <path fill="#D9A12C" d="M123.4 296.8c-7.5-5.7-6.7-13.9 2.3-19.1 9.8-5.7 25.9-5.7 35.8.1 3.5 2 5.8 4.5 6.8 7.1-.5-3.5-3.1-6.9-7.7-9.6-10.3-6-27-6-37.3-.1-10.3 6-10.2 15.7.1 21.6"/>
  <path fill="#E3B637" d="M123.3 277.3c10.3-5.9 27-5.9 37.3.1 4.7 2.7 7.3 6.2 7.7 9.8.5-4.3-2.1-8.6-7.7-11.9-10.3-6-27-6-37.3-.1-5.6 3.2-8.1 7.5-7.6 11.7.4-3.4 2.9-6.9 7.6-9.6"/>
  <path fill="#F9BA7A" d="M160.1 299.5l7.6-4.3-.7-.4c1.1-.9 2.1-1.8 2.9-2.8l.9.1 2.8-5.9-.9-.1c.2-1.1.2-2.2 0-3.3l.9-.1-2.7-5.9-.9.1c-.8-1-1.7-1.9-2.9-2.9l.7-.4-7.5-4.3-.7.4c-1.3-.5-2.7-1-4.1-1.4l.3-.5-10.2-1.8-.3.5c-1.9-.1-3.8-.2-5.7-.1l-.2-.5-10.3 1.4.2.5c-1.7.4-3.4 1-5 1.6l-.7-.4-7.6 4.3.7.4c-1.1.9-2.1 1.8-2.9 2.8l-.9-.1-2.8 5.9.9.1c-.2 1.1-.2 2.2 0 3.3l-.9.1 2.7 5.9.9-.1c.8 1 1.7 1.9 2.9 2.9l-.7.4 7.5 4.3.7-.4c1.3.5 2.7 1 4.1 1.4l-.3.5 10.2 1.8.3-.5c1.9.1 3.8.2 5.7.1l.2.5 10.3-1.4-.2-.5c1.7-.4 3.4-1 5-1.6l.7.4z"/>
  <path fill="#D38B4A" d="M113.8 286.2v5.4l-.9.2v-5.4zM110.2 276.9h1.1v4.7h-1.1z"/>
  <path fill="#E0964C" d="M124.2 293.4v5.4l-.6.4v-5.4zM138.5 296.6v5.4s-.3.6-.3.5v-5.4l.3-.5zM144.1 296.7v5.4l.3.5v-5.4zM159.4 293.7v5.4l.7.4v-5.4z"/>
  <path fill="#D38B4A" d="M169.9 286.6v5.4l.9.1v-5.4zM173.7 277.3v5l-1.1.3v-5.3z"/>
  <path fill="#BD8A17" d="M167.8 268.2v1.7l-1.3-1.7zM155.9 262.3v1l-.7-.1zM129.2 261.9v1.4s1-.2.9-.3c-.1-.2-.9-1.1-.9-1.1M116.2 267.9v1.3l1.1-1.2z"/>
  <path fill="#DDAD4E" d="M110.2 280.4v5.4l2.7 6v-5.4z"/>
  <path fill="#F4C253" d="M116 289.5v5.4l7.6 4.3v-5.4z"/>
  <path fill="#FCDC7C" d="M128 295.4v5.4l10.2 1.7v-5.4z"/>
  <path fill="#FFCE55" d="M154.7 295.8v5.4l-10.3 1.4v-5.4z"/>
  <path fill="#F4C253" d="M167.7 289.8v5.4l-7.6 4.3v-5.4z"/>
  <path fill="#DDAD4E" d="M173.6 280.8v5.4l-2.8 5.9v-5.4z"/>
  <path fill="#F4A855" d="M160.1 294.1l7.6-4.3-.7-.4c1.1-.9 2.1-1.8 2.9-2.8l.9.1 2.8-5.9-.9-.1c.2-1.1.2-2.2 0-3.3l.9-.1-2.7-5.9-.9.1c-.8-1-1.7-1.9-2.9-2.9l.7-.4-7.5-4.3-.7.4c-1.3-.5-2.7-1-4.1-1.4l.3-.5-10.2-1.8-.3.5c-1.9-.1-3.8-.2-5.7-.1l-.2-.5-10.3 1.4.2.5c-1.7.4-3.4 1-5 1.6l-.7-.4-7.6 4.3.7.4c-1.1.9-2.1 1.8-2.9 2.8l-.9-.1-2.8 5.9.9.1c-.2 1.1-.2 2.2 0 3.3l-.9.1 2.7 5.9.9-.1c.8 1 1.7 2 2.9 2.9l-.7.4 7.5 4.3.7-.4c1.3.5 2.7 1 4.1 1.4l-.3.5 10.2 1.8.3-.5c1.9.1 3.8.2 5.7.1l.2.5 10.3-1.4-.2-.5c1.7-.4 3.4-1 5-1.6l.7.4z"/>
  <path fill="#F4FF8C" d="M111.5 279.7c-.2-1.1-.2-2.2 0-3.3l-.9-.2 2.5-5.3h-.1l-2.8 5.9.9.1c-.2.9-.2 1.9-.1 2.8h.5zM117 288.5c-1.1-.9-2.1-1.9-2.9-2.9l-.9.1-2.5-5.4-.6.1 2.7 5.9.9-.1c.7.9 1.6 1.8 2.6 2.6l.7-.3zM129.8 261.8l-.6.1v.1c.2 0 .4-.1.6-.2zM117.2 267.7l-.3-.2-.7.4.4.3c.2-.2.4-.3.6-.5M171.1 286.1l-.8-.1c-.8 1-1.8 1.9-2.9 2.8l.2.1c.9-.8 1.7-1.5 2.4-2.4l.9.1.2-.5zM167.8 268.2l-.2-.2c0 .1.1.2.2.2M173.1 276.8c0 .2 0 .3.1.5l.5-.1-.2-.5-.4.1zM144.7 296.6l-.2-.5c-1.9.1-3.8 0-5.7-.1l-.3.5-10.2-1.8.3-.5c-1.4-.4-2.8-.9-4.1-1.4l-.7.4-7.2-4.2-.7.4 7.5 4.3.7-.4c1.3.5 2.7 1 4.1 1.4l-.3.5 10.2 1.8.3-.5c1.9.1 3.8.2 5.7.1l.2.5 10.3-1.4-.2-.5-9.7 1.4zM160.4 293.5l-.7-.4c-1.6.6-3.3 1.2-5 1.6l.2.4c1.5-.4 3-.9 4.5-1.4l.7.4 7.6-4.3-.3-.2-7 3.9z"/>
  <path fill="#EDCA40" d="M160.7 289.4c10.3-5.9 10.2-15.6-.1-21.6-.3-.1-.5-.3-.8-.4-6.9-3.7-16.3-4.9-24.8-3.6-4.3.7-8.3 2-11.7 3.9-10.3 5.9-10.2 15.6.1 21.6 3.3 1.9 7.1 3.2 11.2 3.8 4.8.8 9.9.9 14.6.1 4.3-.6 8.2-1.9 11.5-3.8"/>
  <path fill="#E3B637" d="M149.3 293.2c.8-9.5 5.6-18.7 10.5-25.8-6.9-3.7-16.3-4.9-24.8-3.6-1.8 9.3-1.3 20-.3 29.3 4.7.9 9.8.9 14.6.1"/>
  <path fill="#D9A12C" d="M123.4 289.3c-7.5-5.7-6.7-13.9 2.3-19.1 9.8-5.7 25.9-5.7 35.8.1 3.5 2 5.8 4.5 6.8 7.1-.5-3.5-3.1-6.9-7.7-9.6-10.3-6-27-6-37.3-.1-10.3 6-10.2 15.6.1 21.6"/>
  <path fill="#E3B637" d="M123.3 269.8c10.3-5.9 27-5.9 37.3.1 4.7 2.7 7.3 6.2 7.7 9.8.5-4.3-2.1-8.6-7.7-11.9-10.3-6-27-6-37.3-.1-5.6 3.2-8.1 7.5-7.6 11.7.4-3.4 2.9-6.9 7.6-9.6"/>
  <path fill="#F9BA7A" d="M160.1 291.9l7.6-4.3-.7-.4c1.1-.9 2.1-1.8 2.9-2.8l.9.1 2.8-5.9-.9-.1c.2-1.1.2-2.2 0-3.3l.9-.1-2.7-5.9-.9.1c-.8-1-1.7-1.9-2.9-2.9l.7-.4-7.5-4.4-.7.4c-1.3-.5-2.7-1-4.1-1.4l.3-.5-10.2-1.8-.3.5c-1.9-.1-3.8-.2-5.7-.1l-.2-.5-10.3 1.4.2.5c-1.7.4-3.4 1-5 1.6l-.7-.4-7.6 4.3.7.4c-1.1.9-2.1 1.8-2.9 2.8l-.9-.1-2.8 5.9.9.2c-.2 1.1-.2 2.2 0 3.3l-.9.1 2.7 5.9.9-.1c.8 1 1.7 1.9 2.9 2.9l-.7.4 7.5 4.3.7-.4c1.3.5 2.7 1 4.1 1.4l-.3.5 10.2 1.8.3-.5c1.9.1 3.8.2 5.7.1l.2.5 10.3-1.4-.2-.5c1.7-.4 3.4-1 5-1.6l.7.4z"/>
  <path fill="#D38B4A" d="M113.8 278.7v5.4l-.9.2v-5.5zM110.2 269.3h1.1v4.7h-1.1z"/>
  <path fill="#E0964C" d="M124.2 285.9v5.4l-.6.4v-5.4zM138.5 289.1v5.4s-.3.6-.3.5v-5.4l.3-.5zM144.1 289.2v5.4l.3.5v-5.4zM159.4 286.1v5.4l.7.4v-5.4z"/>
  <path fill="#D38B4A" d="M169.9 279.1v5.4l.9.1v-5.4z"/>
  <path fill="#BD8A17" d="M173.7 269.7v5.1l-1.1.3v-5.4zM167.8 260.7v1.7l-1.3-1.7zM155.9 254.8v1l-.7-.2zM129.2 254.4v1.4s1-.2.9-.3c-.1-.2-.9-1.1-.9-1.1M116.2 260.4v1.3l1.1-1.2z"/>
  <path fill="#DDAD4E" d="M110.2 272.9v5.4l2.7 6v-5.5z"/>
  <path fill="#F4C253" d="M116 281.9v5.5l7.6 4.3v-5.4z"/>
  <path fill="#FCDC7C" d="M128 287.8v5.5l10.2 1.7v-5.4z"/>
  <path fill="#FFCE55" d="M154.7 288.2v5.5l-10.3 1.4v-5.4z"/>
  <path fill="#F4C253" d="M167.7 282.3v5.4l-7.6 4.2v-5.4z"/>
  <path fill="#DDAD4E" d="M173.6 273.3v5.4l-2.8 5.9v-5.4z"/>
  <path fill="#F4A855" d="M160.1 286.5l7.6-4.3-.7-.4c1.1-.9 2.1-1.8 2.9-2.8l.9.2 2.8-5.9-.9-.1c.2-1.1.2-2.2 0-3.3l.9-.1-2.7-5.9-.9.1c-.8-1-1.7-1.9-2.9-2.9l.7-.4-7.5-4.3-.7.4c-1.3-.5-2.7-1-4.1-1.4l.3-.5-10.2-1.8-.3.5c-1.9-.1-3.8-.2-5.7-.1l-.2-.5-10.3 1.4.2.5c-1.7.4-3.4 1-5 1.6l-.7-.4-7.6 4.3.7.4c-1.1.9-2.1 1.8-2.9 2.8l-.9-.1-2.8 5.9.9.1c-.2 1.1-.2 2.2 0 3.3l-.9.1 2.7 5.9.9-.1c.8 1 1.7 1.9 2.9 2.9l-.7.4 7.5 4.3.7-.4c1.3.5 2.7 1 4.1 1.4l-.3.5 10.2 1.8.3-.5c1.9.1 3.8.2 5.7.1l.2.5 10.3-1.4-.2-.5c1.7-.4 3.4-1 5-1.6l.7.3z"/>
  <path fill="#F4FF8C" d="M111.5 272.2c-.2-1.1-.2-2.2 0-3.3l-.9-.2 2.5-5.3h-.1l-2.8 5.9.9.1c-.2.9-.2 1.9-.1 2.8h.5zM117 281c-1.1-.9-2.1-1.9-2.9-2.9l-.9.1-2.5-5.4-.6.1 2.7 5.9.9-.1c.7.9 1.6 1.8 2.6 2.6l.7-.3zM129.8 254.3l-.6.1v.1c.2-.1.4-.1.6-.2zM117.2 260.2l-.3-.2-.7.4.4.3c.2-.2.4-.4.6-.5M171.1 278.6l-.8-.1c-.8 1-1.8 1.9-2.9 2.8l.2.1c.9-.8 1.7-1.6 2.4-2.4l.9.1.2-.5zM167.8 260.7l-.2-.2c0 .1.1.2.2.2M173.1 269.3c0 .2 0 .3.1.5l.5-.1-.2-.5-.4.1zM144.7 289.1l-.2-.5c-1.9.1-3.8 0-5.7-.1l-.3.5-10.2-1.8.3-.5c-1.4-.4-2.8-.9-4.1-1.4l-.7.4-7.2-4.2-.7.4 7.5 4.3.7-.4c1.3.5 2.7 1 4.1 1.4l-.3.5 10.2 1.8.3-.5c1.9.1 3.8.2 5.7.1l.2.5 10.3-1.4-.2-.5-9.7 1.4zM160.4 286l-.7-.4c-1.6.6-3.3 1.1-5 1.6l.2.4c1.5-.4 3-.9 4.5-1.4l.7.4 7.6-4.3-.3-.2-7 3.9z"/>
  <path fill="#EDCA40" d="M160.7 281.8c10.3-5.9 10.2-15.6-.1-21.6-.3-.1-.5-.3-.8-.4-6.9-3.7-16.3-4.9-24.8-3.6-4.3.7-8.3 2-11.7 3.9-10.3 5.9-10.2 15.6.1 21.6 3.3 1.9 7.1 3.2 11.2 3.8 4.8.8 9.9.9 14.6.1 4.3-.6 8.2-1.9 11.5-3.8"/>
  <path fill="#E3B637" d="M149.3 285.7c.8-9.5 5.6-18.7 10.5-25.8-6.9-3.7-16.3-4.9-24.8-3.6-1.8 9.3-1.3 20-.3 29.3 4.7.8 9.8.9 14.6.1"/>
  <path fill="#D9A12C" d="M123.4 281.8c-7.5-5.7-6.7-13.9 2.3-19.1 9.8-5.7 25.9-5.7 35.8.1 3.5 2 5.8 4.5 6.8 7.1-.5-3.5-3.1-6.9-7.7-9.6-10.3-6-27-6-37.3-.1-10.3 6-10.2 15.6.1 21.6"/>
  <path fill="#E3B637" d="M123.3 262.3c10.3-5.9 27-5.9 37.3.1 4.7 2.7 7.3 6.2 7.7 9.8.5-4.2-2.1-8.6-7.7-11.9-10.3-6-27-6-37.3-.1-5.6 3.2-8.1 7.5-7.6 11.7.4-3.5 2.9-6.9 7.6-9.6"/>
  <path fill="#F9BA7A" d="M160.1 284.4l7.6-4.3-.7-.4c1.1-.9 2.1-1.8 2.9-2.8l.9.1 2.8-5.9-.9-.1c.2-1.1.2-2.2 0-3.3l.9-.1-2.7-5.9-.9.1c-.8-1-1.7-1.9-2.9-2.9l.7-.4-7.5-4.3-.7.4c-1.3-.5-2.7-1-4.1-1.4l.3-.5-10.2-1.8-.3.5c-1.9-.1-3.8-.2-5.7-.1l-.2-.5-10.3 1.4.2.5c-1.7.4-3.4 1-5 1.6l-.7-.4-7.6 4.3.7.4c-1.1.9-2.1 1.8-2.9 2.8l-.9-.1-2.8 5.9.9.2c-.2 1.1-.2 2.2 0 3.3l-.9.1 2.7 5.9.9-.1c.8 1 1.7 1.9 2.9 2.9l-.7.4 7.5 4.3.7-.4c1.3.5 2.7 1 4.1 1.4l-.3.5 10.2 1.8.3-.5c1.9.1 3.8.2 5.7.1l.2.5 10.3-1.4-.2-.5c1.7-.4 3.4-1 5-1.6l.7.3z"/>
  <path fill="#D38B4A" d="M113.8 271.2v5.4l-.9.1v-5.4zM110.2 261.8h1.1v4.7h-1.1z"/>
  <path fill="#E0964C" d="M124.2 278.4v5.4l-.6.4v-5.4zM138.5 281.6v5.4s-.3.6-.3.5v-5.4l.3-.5zM144.1 281.6v5.5l.3.5v-5.4zM159.4 278.6v5.4l.7.4V279z"/>
  <path fill="#D38B4A" d="M169.9 271.5v5.5l.9.1v-5.4zM173.7 262.2v5.1l-1.1.2v-5.3z"/>
  <path fill="#BD8A17" d="M167.8 253.2v1.7l-1.3-1.7zM155.9 247.3v1l-.7-.2zM129.2 246.9v1.4s1-.2.9-.3c-.1-.3-.9-1.1-.9-1.1M116.2 252.8v1.3l1.1-1.1z"/>
  <path fill="#DDAD4E" d="M110.2 265.4v5.4l2.7 5.9v-5.4z"/>
  <path fill="#F4C253" d="M116 274.4v5.4l7.6 4.4v-5.4z"/>
  <path fill="#FCDC7C" d="M128 280.3v5.4l10.2 1.8v-5.4z"/>
  <path fill="#FFCE55" d="M154.7 280.7v5.4l-10.3 1.5v-5.4z"/>
  <path fill="#F4C253" d="M167.7 274.8v5.4l-7.6 4.2V279z"/>
  <path fill="#DDAD4E" d="M173.6 265.8v5.4l-2.8 5.9v-5.4z"/>
  <path fill="#FFCE55" d="M160.1 279l7.6-4.2-.7-.4c1.1-.9 2.1-1.8 2.9-2.8l.9.1 2.8-5.9-.9-.1c.2-1.1.2-2.2 0-3.3l.9-.1-2.7-5.9-.9.1c-.8-1-1.7-1.9-2.9-2.9l.7-.4-7.5-4.3-.7.4c-1.3-.5-2.7-1-4.1-1.4l.3-.5-10.2-1.8-.3.5c-1.9-.1-3.8-.2-5.7-.1l-.2-.5-10.3 1.4.2.5c-1.7.4-3.4 1-5 1.6l-.7-.4-7.6 4.3.7.4c-1.1.9-2.1 1.8-2.9 2.8l-.9-.1-2.8 5.9.9.1c-.2 1.1-.2 2.2 0 3.3l-.9.1 2.7 5.9.9-.1c.8 1 1.7 1.9 2.9 2.9l-.7.4 7.5 4.3.7-.4c1.3.5 2.7 1 4.1 1.4l-.3.5 10.2 1.8.3-.5c1.9.1 3.8.2 5.7.1l.2.5 10.3-1.4-.2-.5c1.7-.4 3.4-1 5-1.6l.7.3z"/>
  <path fill="#F4FF8C" d="M111.5 264.7c-.2-1.1-.2-2.2 0-3.3l-.9-.2 2.5-5.3h-.1l-2.8 5.9.9.1c-.2.9-.2 1.9-.1 2.8h.5zM117 273.5c-1.1-.9-2.1-1.9-2.9-2.9l-.9.1-2.5-5.4-.6.1 2.7 5.9.9-.1c.7.9 1.6 1.8 2.6 2.6l.7-.3zM129.8 246.8l-.6.1v.1c.2-.1.4-.1.6-.2zM117.2 252.7l-.3-.2-.7.4.4.3c.2-.2.4-.4.6-.5M171.1 271.1l-.8-.1c-.8 1-1.8 1.9-2.9 2.8l.2.1c.9-.8 1.7-1.6 2.4-2.4l.9.1.2-.5zM167.8 253.2l-.2-.2c0 .1.1.1.2.2M173.1 261.8c0 .2 0 .3.1.5l.5-.1-.2-.5-.4.1zM144.7 281.6l-.2-.5c-1.9.1-3.8 0-5.7-.1l-.3.5-10.2-1.8.3-.5c-1.4-.4-2.8-.9-4.1-1.4l-.7.4-7.2-4.2-.7.4 7.5 4.3.7-.4c1.3.5 2.7 1 4.1 1.4l-.3.5 10.2 1.8.3-.5c1.9.1 3.8.2 5.7.1l.2.5 10.3-1.4-.2-.5-9.7 1.4zM160.4 278.4l-.7-.4c-1.6.6-3.3 1.2-5 1.6l.2.4c1.5-.4 3-.9 4.5-1.4l.7.4 7.6-4.3-.3-.2-7 3.9z"/>
  <path fill="#FCDC7C" d="M160.7 274.3c10.3-5.9 10.2-15.6-.1-21.6-.3-.1-.5-.3-.8-.4-6.9-3.7-16.3-4.9-24.8-3.6-4.3.7-8.3 2-11.7 3.9-10.3 5.9-10.2 15.6.1 21.6 3.3 1.9 7.1 3.2 11.2 3.8 4.8.8 9.9.9 14.6.1 4.3-.6 8.2-1.9 11.5-3.8"/>
  <path fill="#F4A855" d="M123.4 274.3c-7.5-5.7-6.7-13.9 2.3-19.1 9.8-5.7 25.9-5.7 35.8.1 3.5 2 5.8 4.5 6.8 7.1-.5-3.5-3.1-6.9-7.7-9.6-10.3-6-27-6-37.3-.1-10.3 5.9-10.2 15.6.1 21.6"/>
  <path fill="#F4A855" d="M123.3 254.8c10.3-5.9 27-5.9 37.3.1 4.7 2.7 7.3 6.2 7.7 9.8.5-4.2-2.1-8.6-7.7-11.9-10.3-6-27-6-37.3-.1-5.6 3.2-8.1 7.5-7.6 11.7.4-3.5 2.9-6.9 7.6-9.6"/>
  <path fill="none" d="M28.9 0h260.8v310.2H28.9z"/>
  <path fill="none" d="M28.9 0h260.8v310.2H28.9z"/>
  <g>
    <path fill="#FFF" d="M146 148.7l-24.6-5.9v-25.1l24.7-22.1 24.7 3.5v25.1L146 148.7zm-22.1-8.5l22.1 5.3 22.2-22.1v-21.9l-22.1-3.1-22.2 19.9v21.9z"/>
    <path fill="#FFF" d="M139.2 116.7v.3c0 5.7 6.9 6.2 7.1 6.2v-21.1c-.2.3-7.1 10-7.1 14.6zM146.3 123.2zM146.3 123.2zM146.3 102.1zM146.3 102.1v21.1c.2-.2 7.1-5.8 7.1-11.6v-.3c0-4.6-6.9-9-7.1-9.2zM146.3 102.1z"/>
    <path fill="#FFF" d="M146.1 122.8s-2.9-1.8-8.3.7c-5.5 2.5-8 11.3-11.4 12.4 0 0 6 2.9 11.1 1.9 4.6-1.1 9.4-6.6 8.6-15z"/>
    <path fill="#FFF" d="M146.3 122.5s1.2-1.7 4.1-3.5c1.1-.7 2.5-1.3 4-1.8 5.5-1.7 7.9 5.3 11.4 3.7 0 0-6 7.4-11.1 10.3-3.8 2-7.6 1.2-8.5-4-.3-1.2-.1-3 .1-4.7zM146.2 157.4l-24.9-5.9v1.4l24.9 6 24.6-24.5v-1.5z"/>
    <path fill="#FFF" d="M121.3 148.5v1.5l24.9 5.9 24.6-24.5V130l-24.6 24.5z"/>
    <path fill="#FFF" d="M146.2 153l24.6-24.5V127l-24.6 24.5-24.9-6v1.5zM146.1 124l-23.7-4.5.5-1.3 23.2 4.4 23.1-21.9.5.9z"/>
    <path fill="#FFF" d="M146.6 146.9l-1.1.4v-24.5l1.1-.4z"/>
    <path fill="#FFF" d="M146 148.7l-24.6-5.9v-25.1l24.7-22.1 24.7 3.5v25.1L146 148.7zm-22.1-8.5l22.1 5.3 22.2-22.1v-21.9l-22.1-3.1-22.2 19.9v21.9z"/>
    <path fill="#FFF" d="M146.6 146.9l-1.1.4v-24.5l1.1-.4z"/>
    <path fill="#FFF" d="M146.2 157.4l-24.9-5.9v1.4l24.9 6 24.6-24.5v-1.5z"/>
    <path fill="#FFF" d="M121.3 148.5v1.5l24.9 5.9 24.6-24.5V130l-24.6 24.5z"/>
    <path fill="#FFF" d="M146.2 153l24.6-24.5V127l-24.6 24.5-24.9-6v1.5zM146.1 124l-23.7-4.5.5-1.3 23.2 4.4 23.1-21.9.5.9z"/>
  </g>
  <g>
    <path fill="#FFF" d="M260.3 141.4l-17.8-4.3V119l17.8-16 17.8 2.5v18.1l-17.8 17.8zm-16-6l16 3.8 16-15.9v-15.8l-16-2.2-16 14.3v15.8z"/>
    <path fill="#FFF" d="M255.3 118.4v.2c0 4.1 5 4.5 5.1 4.5v-15.2c-.1.2-5.1 7.1-5.1 10.5zM260.4 123.1zM260.4 123.1zM260.5 107.9zM260.5 107.9v15.2c.2-.1 5.1-4.2 5.1-8.3v-.3c0-3.3-5-6.5-5.1-6.6zM260.5 107.9z"/>
    <path fill="#FFF" d="M260.3 122.8s-2.1-1.3-6 .5-5.7 8.2-8.2 8.9c0 0 4.3 2.1 8 1.4 3.4-.8 6.8-4.8 6.2-10.8z"/>
    <path fill="#FFF" d="M260.4 122.6s.9-1.3 2.9-2.5c.8-.5 1.8-1 2.9-1.3 3.9-1.2 5.7 3.8 8.2 2.7 0 0-4.3 5.4-8 7.4-2.7 1.5-5.5.9-6.2-2.9 0-.9.1-2.2.2-3.4zM260.4 147.8l-18-4.3v1l18 4.3 17.7-17.7v-1z"/>
    <path fill="#FFF" d="M242.4 141.3v1.1l18 4.3 17.7-17.7v-1.1l-17.7 17.7z"/>
    <path fill="#FFF" d="M260.4 144.5l17.7-17.6v-1.1l-17.7 17.7-18-4.3v1zM260.3 123.6l-17.1-3.2.4-.9 16.7 3.2 16.7-15.9.4.7z"/>
    <path fill="#FFF" d="M260.7 140.2l-.8.3v-17.7l.8-.3z"/>
    <path fill="#FFF" d="M260.3 141.4l-17.8-4.3V119l17.8-16 17.8 2.5v18.1l-17.8 17.8zm-16-6l16 3.8 16-15.9v-15.8l-16-2.2-16 14.3v15.8z"/>
    <path fill="#FFF" d="M260.7 140.2l-.8.3v-17.7l.8-.3z"/>
    <path fill="#FFF" d="M260.4 147.8l-18-4.3v1l18 4.3 17.7-17.7v-1z"/>
    <path fill="#FFF" d="M242.4 141.3v1.1l18 4.3 17.7-17.7v-1.1l-17.7 17.7z"/>
    <path fill="#FFF" d="M260.4 144.5l17.7-17.6v-1.1l-17.7 17.7-18-4.3v1zM260.3 123.6l-17.1-3.2.4-.9 16.7 3.2 16.7-15.9.4.7z"/>
  </g>
  <g>
    <path fill="#FFF" d="M148.8 267.2l-12.2 2-7.4-4.4 4-6.9 11.5-2.4 7.4 4.4-3.3 7.3zm-11.9 1.2l11-1.8 2.9-6.6-6.4-3.9-10.3 2.2-3.6 6.2 6.4 3.9z"/>
    <path fill="#5BFF97" d="M136.5 262.4l.1.1c1.7 1 4.7.3 4.8.2l-6.2-3.7s-.1 2.6 1.3 3.4zM141.4 262.7zM141.4 262.7zM135.2 259z"/>
    <path fill="#00B369" d="M135.2 259l6.2 3.7c0-.1 1.3-1.9-.4-2.9l-.1-.1c-1.3-.8-5.5-.7-5.7-.7z"/>
    <path fill="#5BFF97" d="M135.2 259zM141.2 262.6s-1.8 0-3.4 1.1c-1.6 1.1-.1 3-1.2 3.6 0 0 3.4-.2 5.3-1 1.7-.7 2.2-2.3-.7-3.7z"/>
    <path fill="#00B369" d="M141.2 262.6s0-.5.7-1.1c.3-.3.6-.5 1.2-.8 1.8-1 4.9 0 6-.7 0 0-.4 2-1.7 3.2-1 .8-2.9 1.1-4.8.3-.5-.3-1-.6-1.4-.9z"/>
    <path fill="#5BFF97" d="M151.4 268.7l-12.3 2 .4.3 12.4-2 3.2-7.3-.4-.3z"/>
    <path fill="#5BFF97" d="M138.2 270.2l.5.3 12.3-2 3.3-7.4-.5-.2-3.2 7.3z"/>
    <path fill="#5BFF97" d="M150.1 267.9l3.3-7.3-.4-.2-3.3 7.3-12.3 2 .4.2z"/>
    <path fill="#FFF" d="M141.6 262.8l-11.4 2.1-.2-.2 11.2-2.1 3.4-6.7.5.1z"/>
    <path fill="#FFF" d="M148.5 266.8l-.3.2-7.2-4.3.3-.2z"/>
    <path fill="#FFF" d="M148.8 267.2l-12.2 2-7.4-4.4 4-6.9 11.5-2.4 7.4 4.4-3.3 7.3zm-11.9 1.2l11-1.8 2.9-6.6-6.4-3.9-10.3 2.2-3.6 6.2 6.4 3.9z"/>
    <path fill="#FFF" d="M148.5 266.8l-.3.2-7.2-4.3.3-.2z"/>
    <path fill="#5BFF97" d="M151.4 268.7l-12.3 2 .4.3 12.4-2 3.2-7.3-.4-.3z"/>
    <path fill="#5BFF97" d="M138.2 270.2l.5.3 12.3-2 3.3-7.4-.5-.2-3.2 7.3z"/>
    <path fill="#5BFF97" d="M150.1 267.9l3.3-7.3-.4-.2-3.3 7.3-12.3 2 .4.2z"/>
    <path fill="#FFF" d="M141.6 262.8l-11.4 2.1-.2-.2 11.2-2.1 3.4-6.7.5.1z"/>
  </g>
  <g>
    <path fill="#FFF" d="M192.7 224.8l-12.2 2-7.4-4.4 4-6.9 11.5-2.4 7.4 4.4-3.3 7.3zm-11.9 1.2l11-1.8 2.9-6.6-6.4-3.9-10.3 2.2-3.6 6.2 6.4 3.9z"/>
    <path fill="#5BFF97" d="M180.4 219.9l.1.1c1.7 1 4.7.3 4.8.2l-6.2-3.7c0 .1-.1 2.6 1.3 3.4zM185.3 220.2zM185.3 220.2zM179.1 216.5z"/>
    <path fill="#00B369" d="M179.1 216.5l6.2 3.7c0-.1 1.3-1.9-.4-2.9l-.1-.1c-1.3-.7-5.5-.7-5.7-.7z"/>
    <path fill="#5BFF97" d="M179.1 216.5zM185.1 220.2s-1.8 0-3.4 1.1c-1.6 1.1-.1 3-1.2 3.6 0 0 3.4-.2 5.3-1 1.7-.8 2.2-2.3-.7-3.7z"/>
    <path fill="#00B369" d="M185.1 220.1s0-.5.7-1.1c.3-.3.6-.5 1.2-.8 1.8-1 4.9 0 6-.7 0 0-.4 2-1.7 3.2-1 .8-2.9 1.1-4.8.3-.5-.2-.9-.6-1.4-.9z"/>
    <path fill="#5BFF97" d="M195.4 226.3l-12.4 2 .4.2 12.4-2 3.3-7.3-.5-.2z"/>
    <path fill="#5BFF97" d="M182.1 227.7l.5.3 12.3-2 3.3-7.3-.4-.3-3.3 7.4z"/>
    <path fill="#5BFF97" d="M194 225.5l3.3-7.3-.4-.3-3.3 7.3-12.3 2 .4.3z"/>
    <path fill="#FFF" d="M185.5 220.4l-11.4 2.1-.2-.3 11.2-2 3.4-6.7h.5z"/>
    <path fill="#FFF" d="M192.4 224.4l-.3.2-7.2-4.3.3-.3z"/>
    <path fill="#FFF" d="M192.7 224.8l-12.2 2-7.4-4.4 4-6.9 11.5-2.4 7.4 4.4-3.3 7.3zm-11.9 1.2l11-1.8 2.9-6.6-6.4-3.9-10.3 2.2-3.6 6.2 6.4 3.9z"/>
    <path fill="#FFF" d="M192.4 224.4l-.3.2-7.2-4.3.3-.3z"/>
    <path fill="#5BFF97" d="M195.4 226.3l-12.4 2 .4.2 12.4-2 3.3-7.3-.5-.2z"/>
    <path fill="#5BFF97" d="M182.1 227.7l.5.3 12.3-2 3.3-7.3-.4-.3-3.3 7.4z"/>
    <path fill="#5BFF97" d="M194 225.5l3.3-7.3-.4-.3-3.3 7.3-12.3 2 .4.3z"/>
    <path fill="#FFF" d="M185.5 220.4l-11.4 2.1-.2-.3 11.2-2 3.4-6.7h.5z"/>
  </g>
</svg>
