<?xml version="1.0" encoding="utf-8"?>
<!-- Generator: Adobe Illustrator 16.0.0, SVG Export Plug-In . SVG Version: 6.00 Build 0)  -->
<!DOCTYPE svg PUBLIC "-//W3C//DTD SVG 1.1//EN" "http://www.w3.org/Graphics/SVG/1.1/DTD/svg11.dtd">
<svg version="1.1" id="Layer_1" xmlns="http://www.w3.org/2000/svg" xmlns:xlink="http://www.w3.org/1999/xlink" x="0px" y="0px"
	 width="587.481px" height="475px" viewBox="24.515 0 587.481 475" enable-background="new 24.515 0 587.481 475"
	 xml:space="preserve">
<linearGradient id="SVGID_1_" gradientUnits="userSpaceOnUse" x1="176.856" y1="650.2861" x2="176.8559" y2="951.3691" gradientTransform="matrix(1.7382 0 0 -1.7382 10.8398 1653.6935)">
	<stop  offset="0" style="stop-color:#6A69FD"/>
	<stop  offset="1" style="stop-color:#AD49F1"/>
</linearGradient>
<path fill="url(#SVGID_1_)" d="M201.475,337.652c-38.514-25.871-88.869-56.897-123.915-85.268
	c-35.806-28.779-56.302-54.896-52.621-80.353c0.414-4.103,1.292-8.165,2.622-12.134c0.687-2.068,1.482-4.109,2.382-6.122
	c0.934-2.087,1.965-4.144,3.092-6.166c4.588-8.234,11.05-16.647,19.169-24.875c16.364-16.059,38.757-33.04,68.135-35.511
	c37.241-0.433,51.931-3.377,60.248-16.189c8.256-11.771,10.14-33.412,20.355-47.139c8.842-14.806,28.621-23.387,52.563-23.891
	c24.057-0.261,52.279,7.553,80.577,31.15c29.719,24.078,58.235,42.333,92.022,53.055c8.379,2.956,17,5.793,25.804,8.876
	c4.471,1.559,8.913,3.175,13.322,4.848c4.552,1.728,9.053,3.547,13.498,5.454c18.062,7.696,36.373,17.882,53.409,30.541
	c34.255,26.242,62.492,57.925,73.929,83.639c11.696,27.138,6.592,48.304-19.85,86.416c-37.171,48.955-22.357,64.5-26.373,88.547
	c-0.924,5.892-2.92,12.269-6.938,19.511c-2.214,3.955-4.772,7.772-7.655,11.421c-3.424,4.34-7.224,8.471-11.372,12.359
	c-17.646,16.865-48.363,34.733-93.61,38.605c-23.254,2.358-47.944-2.799-68.946-11.62c-21.288-8.86-38.888-21.382-54.607-34.568
	c-15.842-13.344-30.633-27.764-49.245-42.962c-4.78-3.919-9.641-7.771-14.581-11.554c-2.583-1.978-5.186-3.939-7.809-5.883
	c-2.7-1.998-5.418-3.979-8.155-5.942C225.843,353.933,213.827,345.815,201.475,337.652L201.475,337.652z"/>
</svg>
